{
.appVersion = "1349";
DisplayStrings = (
"A/acutecomb ÁÂÄÀÅÃÆBCÇDEÉÊËÈFGHIÍÎÏÌJKLMNÑOÓÔÖÒÕ/OE PQRS/Scaron TUÚÛÜÙVWXYÝ/Ydieresis Z/Zcaron/A.alt/C.alt/I.alt/J.alt/K.alt/M.alt/N.alt/O.alt/Q.alt/R.alt/S.alt/V.alt/W.alt/X.alt/Y.alt/Z.alt/A.alt2/V.alt2/W.alt2/A.alt3/V.alt3/W.alt3/W.alt4 ÐØÞaáâäàåãæbcçdeéêëèfghi/dotlessi íîïìjklmnñoóôöòõ/oe pqrs/scaron ßtuúûüùvwxyý/ydieresis z/zcaron/a.alt/k.alt/v.alt/w.alt/x.alt/z.alt ðøþ/a.sc/b.sc/c.sc/d.sc/e.sc/f.sc/g.sc/h.sc/i.sc/j.sc/k.sc/l.sc/m.sc/n.sc/o.sc/p.sc/q.sc/r.sc/s.sc/t.sc/u.sc/v.sc/w.sc/x.sc/y.sc/z.sc ªº/mu 0123456789/two.alt/four.alt/seven.alt/nine.alt ¹²³½¼¾.,:;/ellipsis !¡?¿/bullet *#///backslash/question.alt ·(){}[]-/endash/emdash _/quotedblleft/quotedblright/quoteleft/quoteright \"'«»/.notdef/Euro ¢$£¤¥+/minus ×÷=><~%±¬^@&¶°|©®¦´/breve/caron ¸/circumflex ¨/dotaccent `/ring/tilde/dieresiscomb/dotaccentcomb/gravecomb/circumflexcomb/caroncomb/ringcomb/tildecomb/cedillacomb/hungarumlaut ¯/ogonek/dieresiscomb.case/gravecomb.case/uniE002/uniE003/uniE005/uniE006/uniE007/uniE008/uniE009/uniE00A/uniE00B/uniE00C",
"NÑ"
);
classes = (
{
automatic = 1;
code = "A Aacute Acircumflex Adieresis Agrave Aring Atilde AE B C Ccedilla D E Eacute Ecircumflex Edieresis Egrave F G H I Iacute Icircumflex Idieresis Igrave J K L M N Ntilde O Oacute Ocircumflex Odieresis Ograve Otilde OE P Q R S Scaron T U Uacute Ucircumflex Udieresis Ugrave V W X Y Yacute Ydieresis Z Zcaron A.alt C.alt I.alt J.alt K.alt M.alt N.alt O.alt Q.alt R.alt S.alt V.alt W.alt X.alt Y.alt Z.alt A.alt2 V.alt2 W.alt2 A.alt3 V.alt3 W.alt3 W.alt4";
name = Uppercase;
}
);
copyright = "Copyright 2018 The Orbitron Project Authors (https://github.com/theleagueof/orbitron)";
customParameters = (
{
name = license;
value = "This Font Software is licensed under the SIL Open Font License, Version 1.1. This license is available with a FAQ at: http://scripts.sil.org/OFL";
},
{
name = licenseURL;
value = "http://scripts.sil.org/OFL";
},
{
name = fsType;
value = (
);
},
{

glyphs = (
{
color = 4;
glyphname = A;
layers = (
{
anchors = (
{
name = bottom;
position = "{418, 0}";
},
{
name = ogonek;
position = "{740, 0}";
},
{
name = top;
position = "{418, 720}";
}
);
layerId = "17A5F7C0-AED1-4270-89BA-BFDC1003B8A5";
paths = (
{
closed = 1;
nodes = (
"58 0 LINE",
"139 0 LINE",
"139 263 LINE",
"697 263 LINE",
"697 0 LINE",
"778 0 LINE",
"778 600 LINE SMOOTH",
"778 666.667 OFFCURVE",
"724.667 720 OFFCURVE",
"658 720 CURVE SMOOTH",
"178 720 LINE SMOOTH",
"111.333 720 OFFCURVE",
"58 666.667 OFFCURVE",
"58 600 CURVE SMOOTH",
"58 0 LINE"
);
},
{
closed = 1;
nodes = (
"139 344 LINE",
"139 600 LINE SMOOTH",
"139 620.896 OFFCURVE",
"157.104 639 OFFCURVE",
"178 639 CURVE SMOOTH",
"658 639 LINE SMOOTH",
"678.896 639 OFFCURVE",
"697 621.333 OFFCURVE",
"697 600 CURVE SMOOTH",
"697 344 LINE",
"139 344 LINE"
);
}
);
width = 836;
},
{
anchors = (
{
name = bottom;
position = "{418, 0}";
},
{
name = ogonek;
position = "{700, 0}";
},
{
name = top;
position = "{418, 720}";
}
);
layerId = "D465923C-ABAE-4975-85A4-08C1BC9DA335";
paths = (
{
closed = 1;
nodes = (
"58 0 LINE",
"213 0 LINE",
"213 232 LINE",
"621 232 LINE",
"621 0 LINE",
"778 0 LINE",
"778 572 LINE SMOOTH",
"778 653.333 OFFCURVE",
"710.333 720 OFFCURVE",
"629 720 CURVE SMOOTH",
"206 720 LINE SMOOTH",
"124.667 720 OFFCURVE",
"58 653.333 OFFCURVE",
"58 572 CURVE SMOOTH",
"58 0 LINE"
);
},
{
closed = 1;
nodes = (
"213 388 LINE",
"213 564 LINE SMOOTH",
"213 564 OFFCURVE",
"213 564 OFFCURVE",
"213 564 CURVE SMOOTH",
"621 564 LINE SMOOTH",
"621 564 OFFCURVE",
"621 564 OFFCURVE",
"621 564 CURVE SMOOTH",
"621 388 LINE",
"213 388 LINE"
);
}
);
width = 836;
}
);
unicode = 0041;
},
{
color = 4;
glyphname = AE;
layers = (
{
layerId = "17A5F7C0-AED1-4270-89BA-BFDC1003B8A5";
paths = (
{
closed = 1;
nodes = (
"135 0 LINE",
"135 263 LINE",
"693 263 LINE",
"693 0 LINE",
"1350 0 LINE",
"1350 81 LINE",
"774 81 LINE",
"774 319 LINE",
"1237 319 LINE",
"1237 401 LINE",
"774 401 LINE",
"774 639 LINE",
"1350 639 LINE",
"1350 720 LINE",
"174 720 LINE SMOOTH",
"107.333 720 OFFCURVE",
"54 666.667 OFFCURVE",
"54 600 CURVE SMOOTH",
"54 0 LINE",
"54 0 LINE"
);
},
{
closed = 1;
nodes = (
"135 600 LINE SMOOTH",
"135 621.333 OFFCURVE",
"152.667 639 OFFCURVE",
"174 639 CURVE SMOOTH",
"654 639 LINE SMOOTH",
"675.333 639 OFFCURVE",
"693 621.333 OFFCURVE",
"693 600 CURVE SMOOTH",
"693 344 LINE",
"135 344 LINE",
"135 344 LINE"
);
}
);
width = 1375;
},
{
layerId = "D465923C-ABAE-4975-85A4-08C1BC9DA335";
paths = (
{
closed = 1;
nodes = (
"211 0 LINE",
"211 232 LINE",
"619 232 LINE",
"619 0 LINE",
"1283 0 LINE",
"1283 156 LINE",
"774 156 LINE",
"774 282 LINE",
"1183 282 LINE",
"1183 438 LINE",
"774 438 LINE",
"774 564 LINE",
"1283 564 LINE",
"1283 720 LINE",
"202 720 LINE SMOOTH",
"122 720 OFFCURVE",
"54 653.333 OFFCURVE",
"54 572 CURVE SMOOTH",
"54 0 LINE",
"54 0 LINE"
);
},
{
closed = 1;
nodes = (
"211 564 LINE SMOOTH",
"211 564 OFFCURVE",
"211 564 OFFCURVE",
"211 564 CURVE SMOOTH",
"619 564 LINE SMOOTH",
"619 564 OFFCURVE",
"619 564 OFFCURVE",
"619 564 CURVE SMOOTH",
"619 388 LINE",
"211 388 LINE",
"211 388 LINE"
);
}
);
width = 1375;
}
);
unicode = 00C6;
},
{
color = 4;
glyphname = B;
layers = (
{
layerId = "17A5F7C0-AED1-4270-89BA-BFDC1003B8A5";
paths = (
{
closed = 1;
nodes = (
"59 0 LINE",
"659 0 LINE SMOOTH",
"725.667 0 OFFCURVE",
"779 53.333 OFFCURVE",
"779 120 CURVE SMOOTH",
"779 288 LINE SMOOTH",
"779 321.831 OFFCURVE",
"764.333 350 OFFCURVE",
"735 394 CURVE",
"742.96 409.92 OFFCURVE",
"748 428.095 OFFCURVE",
"748 447 CURVE SMOOTH",
"748 600 LINE SMOOTH",
"748 666.667 OFFCURVE",
"694.667 720 OFFCURVE",
"628 720 CURVE SMOOTH",
"59 720 LINE",
"59 0 LINE"
);
},
{
closed = 1;
nodes = (
"158.104 81 OFFCURVE",
"140 99.104 OFFCURVE",
"140 120 CURVE SMOOTH",
"140 288 LINE SMOOTH",
"140 308.896 OFFCURVE",
"158.104 327 OFFCURVE",
"179 327 CURVE SMOOTH",
"659 327 LINE SMOOTH",
"679.896 327 OFFCURVE",
"698 308.896 OFFCURVE",
"698 288 CURVE SMOOTH",
"698 120 LINE SMOOTH",
"698 99.104 OFFCURVE",
"679.896 81 OFFCURVE",
"659 81 CURVE SMOOTH",
"179 81 LINE"
);
},
{
closed = 1;
nodes = (
"158.104 408 OFFCURVE",
"140 426.104 OFFCURVE",
"140 447 CURVE SMOOTH",
"140 600 LINE SMOOTH",
"140 620.896 OFFCURVE",
"158.104 639 OFFCURVE",
"179 639 CURVE SMOOTH",
"628 639 LINE SMOOTH",
"648.896 639 OFFCURVE",
"666 620.896 OFFCURVE",
"666 600 CURVE SMOOTH",
"666 447 LINE SMOOTH",
"666 426.104 OFFCURVE",
"648.896 408 OFFCURVE",
"628 408 CURVE SMOOTH",
"179 408 LINE"
);
}
);
width = 832;
},
{
layerId = "D465923C-ABAE-4975-85A4-08C1BC9DA335";
paths = (
{
closed = 1;
nodes = (
"59 0 LINE",
"630 0 LINE SMOOTH",
"711.333 0 OFFCURVE",
"779 66.667 OFFCURVE",
"779 148 CURVE SMOOTH",
"779 297 LINE SMOOTH",
"779 330.333 OFFCURVE",
"764 365.667 OFFCURVE",
"744 391 CURVE",
"749.333 404.333 OFFCURVE",
"751 419.667 OFFCURVE",
"751 437 CURVE SMOOTH",
"751 572 LINE SMOOTH",
"751 653.333 OFFCURVE",
"683 720 OFFCURVE",
"603 720 CURVE SMOOTH",
"59 720 LINE",
"59 0 LINE"
);
},
{
closed = 1;
nodes = (
"214 156 OFFCURVE",
"214 156 OFFCURVE",
"214 156 CURVE SMOOTH",
"214 288 LINE SMOOTH",
"214 288 OFFCURVE",
"214 288 OFFCURVE",
"214 288 CURVE SMOOTH",
"622 288 LINE SMOOTH",
"622 288 OFFCURVE",
"622 288 OFFCURVE",
"622 288 CURVE SMOOTH",
"622 156 LINE SMOOTH",
"622 156 OFFCURVE",
"622 156 OFFCURVE",
"622 156 CURVE SMOOTH",
"214 156 LINE"
);
},
{
closed = 1;
nodes = (
"214 444 OFFCURVE",
"214 444 OFFCURVE",
"214 444 CURVE SMOOTH",
"214 564 LINE SMOOTH",
"214 564 OFFCURVE",
"214 564 OFFCURVE",
"214 564 CURVE SMOOTH",
"594 564 LINE SMOOTH",
"594 564 OFFCURVE",
"594 564 OFFCURVE",
"594 564 CURVE SMOOTH",
"594 444 LINE SMOOTH",
"594 444 OFFCURVE",
"594 444 OFFCURVE",
"594 444 CURVE SMOOTH",
"214 444 LINE"
);
}
);
width = 832;
}
);
unicode = 0042;
},
{
color = 4;
glyphname = C;
layers = (
{
layerId = "17A5F7C0-AED1-4270-89BA-BFDC1003B8A5";
paths = (
{
closed = 1;
nodes = (
"774 0 LINE",
"774 81 LINE",
"176 81 LINE SMOOTH",
"155.104 81 OFFCURVE",
"137 99.104 OFFCURVE",
"137 120 CURVE SMOOTH",
"137 600 LINE SMOOTH",
"137 620.896 OFFCURVE",
"155.104 639 OFFCURVE",
"176 639 CURVE SMOOTH",
"774 639 LINE",
"774 720 LINE",
"176 720 LINE SMOOTH",
"109.333 720 OFFCURVE",
"56 666.667 OFFCURVE",
"56 600 CURVE SMOOTH",
"56 120 LINE SMOOTH",
"56 53.333 OFFCURVE",
"109.333 0 OFFCURVE",
"176 0 CURVE"
);
}
);
width = 822;
},
{
layerId = "D465923C-ABAE-4975-85A4-08C1BC9DA335";
paths = (
{
closed = 1;
nodes = (
"774 0 LINE",
"774 156 LINE",
"244 156 LINE SMOOTH",
"222 156 OFFCURVE",
"211 167 OFFCURVE",
"211 189 CURVE SMOOTH",
"211 531 LINE SMOOTH",
"211 553 OFFCURVE",
"222 564 OFFCURVE",
"244 564 CURVE SMOOTH",
"774 564 LINE",
"774 720 LINE",
"204 720 LINE SMOOTH",
"122.408 720 OFFCURVE",
"56 653.592 OFFCURVE",
"56 572 CURVE SMOOTH",
"56 148 LINE SMOOTH",
"56 66.408 OFFCURVE",
"122.408 0 OFFCURVE",
"204 0 CURVE"
);
}
);
width = 822;
}
);
unicode = 0043;
},
{
color = 4;
glyphname = Ccedilla;
layers = (
{
components = (
{
name = C;
}
);
layerId = "17A5F7C0-AED1-4270-89BA-BFDC1003B8A5";
paths = (
{
closed = 1;
nodes = (
"417 -139 LINE",
"455 16 LINE",
"376 16 LINE",
"337 -139 LINE"
);
}
);
width = 822;
},
{
components = (
{
name = C;
}
);
layerId = "D465923C-ABAE-4975-85A4-08C1BC9DA335";
paths = (
{
closed = 1;
nodes = (
"484 -156 LINE",
"536 15 LINE",
"379 15 LINE",
"327 -156 LINE"
);
}
);
width = 822;
}
);
unicode = 00C7;
},
{
color = 4;
glyphname = D;
layers = (
{
layerId = "17A5F7C0-AED1-4270-89BA-BFDC1003B8A5";
paths = (
{
closed = 1;
nodes = (
"658 0 LINE SMOOTH",
"724.667 0 OFFCURVE",
"778 53.333 OFFCURVE",
"778 120 CURVE SMOOTH",
"778 600 LINE SMOOTH",
"778 666.667 OFFCURVE",
"724.667 720 OFFCURVE",
"658 720 CURVE SMOOTH",
"58 720 LINE",
"58 0 LINE"
);
},
{
closed = 1;
nodes = (
"157.104 81 OFFCURVE",
"139 99.104 OFFCURVE",
"139 120 CURVE SMOOTH",
"139 600 LINE SMOOTH",
"139 620.896 OFFCURVE",
"157.104 639 OFFCURVE",
"178 639 CURVE SMOOTH",
"658 639 LINE SMOOTH",
"678.896 639 OFFCURVE",
"697 620.896 OFFCURVE",
"697 600 CURVE SMOOTH",
"697 120 LINE SMOOTH",
"697 99.104 OFFCURVE",
"678.896 81 OFFCURVE",
"658 81 CURVE SMOOTH",
"178 81 LINE"
);
}
);
width = 834;
},
{
layerId = "D465923C-ABAE-4975-85A4-08C1BC9DA335";
paths = (
{
closed = 1;
nodes = (
"629 0 LINE SMOOTH",
"710.333 0 OFFCURVE",
"778 66.667 OFFCURVE",
"778 148 CURVE SMOOTH",
"778 572 LINE SMOOTH",
"778 653.333 OFFCURVE",
"710.333 720 OFFCURVE",
"629 720 CURVE SMOOTH",
"58 720 LINE",
"58 0 LINE"
);
},
{
closed = 1;
nodes = (
"212 156 OFFCURVE",
"212 156 OFFCURVE",
"212 156 CURVE SMOOTH",
"212 564 LINE",
"212 564 OFFCURVE",
"212 564 OFFCURVE",
"212 564 CURVE SMOOTH",
"621 564 LINE",
"621 564 OFFCURVE",
"621 564 OFFCURVE",
"621 564 CURVE SMOOTH",
"621 156 LINE",
"621 156 OFFCURVE",
"621 156 OFFCURVE",
"621 156 CURVE SMOOTH",
"212 156 LINE"
);
}
);
width = 834;
}
);
unicode = 0044;
},
{
color = 4;
glyphname = E;
layers = (
{
anchors = (
{
name = bottom;
position = "{400, 0}";
},
{
name = ogonek;
position = "{647, 0}";
},
{
name = top;
position = "{398, 720}";
}
);
layerId = "17A5F7C0-AED1-4270-89BA-BFDC1003B8A5";
paths = (
{
closed = 1;
nodes = (
"715 0 LINE",
"715 81 LINE",
"139 81 LINE",
"139 319 LINE",
"602 319 LINE",
"602 401 LINE",
"139 401 LINE",
"139 639 LINE",
"715 639 LINE",
"715 720 LINE",
"58 720 LINE",
"58 0 LINE"
);
}
);
width = 766;
},
{
anchors = (
{
name = bottom;
position = "{398, 0}";
},
{
name = ogonek;
position = "{655, 0}";
},
{
name = top;
position = "{398, 720}";
}
);
layerId = "D465923C-ABAE-4975-85A4-08C1BC9DA335";
paths = (
{
closed = 1;
nodes = (
"723 0 LINE",
"723 156 LINE",
"215 156 LINE",
"215 282 LINE",
"624 282 LINE",
"624 438 LINE",
"215 438 LINE",
"215 564 LINE",
"723 564 LINE",
"723 720 LINE",
"58 720 LINE",
"58 0 LINE"
);
}
);
width = 766;
}
);
unicode = 0045;
},
{
color = 4;
glyphname = F;
layers = (
{
layerId = "17A5F7C0-AED1-4270-89BA-BFDC1003B8A5";
paths = (
{
closed = 1;
nodes = (
"139 0 LINE",
"139 319 LINE",
"602 319 LINE",
"602 401 LINE",
"139 401 LINE",
"139 639 LINE",
"715 639 LINE",
"715 720 LINE",
"58 720 LINE",
"58 0 LINE"
);
}
);
width = 723;
},
{
layerId = "D465923C-ABAE-4975-85A4-08C1BC9DA335";
paths = (
{
closed = 1;
nodes = (
"215 0 LINE",
"215 282 LINE",
"624 282 LINE",
"624 438 LINE",
"215 438 LINE",
"215 564 LINE",
"723 564 LINE",
"723 720 LINE",
"58 720 LINE",
"58 0 LINE"
);
}
);
width = 723;
}
);
unicode = 0046;
},
{
color = 4;
glyphname = G;
layers = (
{
layerId = "17A5F7C0-AED1-4270-89BA-BFDC1003B8A5";
paths = (
{
closed = 1;
nodes = (
"656 0 LINE SMOOTH",
"722.667 0 OFFCURVE",
"776 53.333 OFFCURVE",
"776 120 CURVE SMOOTH",
"776 380 LINE",
"517 380 LINE",
"517 298 LINE",
"695 298 LINE",
"695 120 LINE SMOOTH",
"695 99.104 OFFCURVE",
"676.896 81 OFFCURVE",
"656 81 CURVE SMOOTH",
"176 81 LINE SMOOTH",
"155.104 81 OFFCURVE",
"137 99.104 OFFCURVE",
"137 120 CURVE SMOOTH",
"137 600 LINE SMOOTH",
"137 620.896 OFFCURVE",
"155.104 639 OFFCURVE",
"176 639 CURVE SMOOTH",
"656 639 LINE SMOOTH",
"676.896 639 OFFCURVE",
"695 620.896 OFFCURVE",
"695 600 CURVE SMOOTH",
"695 571 LINE",
"776 571 LINE",
"776 600 LINE SMOOTH",
"776 666.667 OFFCURVE",
"722.667 720 OFFCURVE",
"656 720 CURVE SMOOTH",
"176 720 LINE SMOOTH",
"109.333 720 OFFCURVE",
"56 666.667 OFFCURVE",
"56 600 CURVE SMOOTH",
"56 120 LINE SMOOTH",
"56 53.333 OFFCURVE",
"109.333 0 OFFCURVE",
"176 0 CURVE"
);
}
);
width = 830;
},
{
layerId = "D465923C-ABAE-4975-85A4-08C1BC9DA335";
paths = (
{
closed = 1;
nodes = (
"627 0 LINE SMOOTH",
"708.592 0 OFFCURVE",
"776 66.408 OFFCURVE",
"776 148 CURVE SMOOTH",
"776 420 LINE",
"463 420 LINE",
"463 264 LINE",
"619 264 LINE",
"619 156 LINE SMOOTH",
"619 156 OFFCURVE",
"619 156 OFFCURVE",
"619 156 CURVE SMOOTH",
"211 156 LINE SMOOTH",
"211 156 OFFCURVE",
"211 156 OFFCURVE",
"211 156 CURVE SMOOTH",
"211 564 LINE SMOOTH",
"211 564 OFFCURVE",
"211 564 OFFCURVE",
"211 564 CURVE SMOOTH",
"619 564 LINE SMOOTH",
"619 564 OFFCURVE",
"619 564 OFFCURVE",
"619 564 CURVE SMOOTH",
"619 504 LINE",
"776 504 LINE",
"776 572 LINE SMOOTH",
"776 653.592 OFFCURVE",
"708.592 720 OFFCURVE",
"627 720 CURVE SMOOTH",
"204 720 LINE SMOOTH",
"122.408 720 OFFCURVE",
"56 653.592 OFFCURVE",
"56 572 CURVE SMOOTH",
"56 148 LINE SMOOTH",
"56 66.408 OFFCURVE",
"122.408 0 OFFCURVE",
"204 0 CURVE"
);
}
);
width = 830;
}
);
unicode = 0047;
},
{
color = 4;
glyphname = H;
layers = (
{
layerId = "17A5F7C0-AED1-4270-89BA-BFDC1003B8A5";
paths = (
{
closed = 1;
nodes = (
"138 0 LINE",
"138 319 LINE",
"713 319 LINE",
"713 0 LINE",
"795 0 LINE",
"795 720 LINE",
"713 720 LINE",
"713 401 LINE",
"138 401 LINE",
"138 720 LINE",
"57 720 LINE",
"57 0 LINE"
);
}
);
width = 851;
},
{
layerId = "D465923C-ABAE-4975-85A4-08C1BC9DA335";
paths = (
{
closed = 1;
nodes = (
"212 0 LINE",
"212 282 LINE",
"637 282 LINE",
"637 0 LINE",
"792 0 LINE",
"792 720 LINE",
"637 720 LINE",
"637 438 LINE",
"212 438 LINE",
"212 720 LINE",
"57 720 LINE",
"57 0 LINE"
);
}
);
width = 851;
}
);
unicode = 0048;
},
{
color = 4;
glyphname = I;
layers = (
{
anchors = (
{
name = bottom;
position = "{106, 0}";
},
{
name = ogonek;
position = "{134, 0}";
},
{
name = top;
position = "{109, 720}";
}
);
layerId = "17A5F7C0-AED1-4270-89BA-BFDC1003B8A5";
paths = (
{
closed = 1;
nodes = (
"148 0 LINE",
"148 720 LINE",
"66 720 LINE",
"66 0 LINE"
);
}
);
width = 214;
},
{
anchors = (
{
name = bottom;
position = "{109, 0}";
},
{
name = ogonek;
position = "{165, 0}";
},
{
name = top;
position = "{109, 720}";
}
);
layerId = "D465923C-ABAE-4975-85A4-08C1BC9DA335";
paths = (
{
closed = 1;
nodes = (
"184 0 LINE",
"184 720 LINE",
"31 720 LINE",
"31 0 LINE"
);
}
);
width = 214;
}
);
unicode = 0049;
},
{
color = 4;
glyphname = J;
layers = (
{
layerId = "17A5F7C0-AED1-4270-89BA-BFDC1003B8A5";
paths = (
{
closed = 1;
nodes = (
"604 0 LINE SMOOTH",
"670.667 0 OFFCURVE",
"724 53.333 OFFCURVE",
"724 120 CURVE SMOOTH",
"724 720 LINE",
"643 720 LINE",
"643 120 LINE SMOOTH",
"643 99.104 OFFCURVE",
"624.896 81 OFFCURVE",
"604 81 CURVE SMOOTH",
"124 81 LINE SMOOTH",
"103.104 81 OFFCURVE",
"85 99.104 OFFCURVE",
"85 120 CURVE SMOOTH",
"85 177 LINE",
"4 177 LINE",
"4 120 LINE SMOOTH",
"4 53.333 OFFCURVE",
"57.333 0 OFFCURVE",
"124 0 CURVE"
);
}
);
width = 780;
},
{
layerId = "D465923C-ABAE-4975-85A4-08C1BC9DA335";
paths = (
{
closed = 1;
nodes = (
"576 0 LINE SMOOTH",
"656 0 OFFCURVE",
"724 66.667 OFFCURVE",
"724 148 CURVE SMOOTH",
"724 720 LINE",
"567 720 LINE",
"567 156 LINE SMOOTH",
"567 156 OFFCURVE",
"567 156 OFFCURVE",
"567 156 CURVE SMOOTH",
"159 156 LINE SMOOTH",
"159 156 OFFCURVE",
"159 156 OFFCURVE",
"159 156 CURVE SMOOTH",
"159 241 LINE",
"4 241 LINE",
"4 148 LINE SMOOTH",
"4 66.667 OFFCURVE",
"70.667 0 OFFCURVE",
"152 0 CURVE"
);
}
);
width = 780;
}
);
unicode = 004A;
},
{
color = 4;
glyphname = K;
layers = (
{
layerId = "17A5F7C0-AED1-4270-89BA-BFDC1003B8A5";
paths = (
{
closed = 1;
nodes = (
"139 0 LINE",
"139 319 LINE",
"371 319 LINE",
"639 0 LINE",
"744 0 LINE",
"744 1 LINE",
"442 360 LINE",
"743 719 LINE",
"743 720 LINE",
"639 720 LINE",
"371 401 LINE",
"139 401 LINE",
"139 720 LINE",
"57 720 LINE",
"57 0 LINE"
);
}
);
width = 797;
},
{
layerId = "D465923C-ABAE-4975-85A4-08C1BC9DA335";
paths = (
{
closed = 1;
nodes = (
"213 0 LINE",
"213 282 LINE",
"354 282 LINE",
"590 0 LINE",
"752 0 LINE",
"752 54 LINE",
"495 360 LINE",
"752 666 LINE",
"752 720 LINE",
"590 720 LINE",
"354 438 LINE",
"213 438 LINE",
"213 720 LINE",
"57 720 LINE",
"57 0 LINE"
);
}
);
width = 797;
}
);
unicode = 004B;
},
{
color = 4;
glyphname = L;
layers = (
{
layerId = "17A5F7C0-AED1-4270-89BA-BFDC1003B8A5";
paths = (
{
closed = 1;
nodes = (
"777 0 LINE",
"777 81 LINE",
"138 81 LINE",
"138 721 LINE",
"57 721 LINE",
"57 0 LINE"
);
}
);
width = 779;
},
{
layerId = "D465923C-ABAE-4975-85A4-08C1BC9DA335";
paths = (
{
closed = 1;
nodes = (
"777 0 LINE",
"777 156 LINE",
"212 156 LINE",
"212 721 LINE",
"57 721 LINE",
"57 0 LINE"
);
}
);
width = 779;
}
);
unicode = 004C;
},
{
color = 4;
glyphname = M;
layers = (
{
layerId = "17A5F7C0-AED1-4270-89BA-BFDC1003B8A5";
paths = (
{
closed = 1;
nodes = (
"137 0 LINE",
"137 628 LINE",
"466 237 LINE",
"795 628 LINE",
"795 0 LINE",
"876 0 LINE",
"876 720 LINE",
"765 720 LINE",
"466 364 LINE",
"167 720 LINE",
"56 720 LINE",
"56 0 LINE"
);
}
);
width = 928;
},
{
layerId = "D465923C-ABAE-4975-85A4-08C1BC9DA335";
paths = (
{
closed = 1;
nodes = (
"211 0 LINE",
"211 482 LINE",
"460 187 LINE",
"708 483 LINE",
"708 0 LINE",
"864 0 LINE",
"864 720 LINE",
"703 720 LINE",
"460 429 LINE",
"216 720 LINE",
"56 720 LINE",
"56 0 LINE"
);
}
);
width = 928;
}
);
unicode = 004D;
},
{
color = 4;
glyphname = N;
layers = (
{
anchors = (
{
name = bottom;
position = "{403, 0}";
},
{
name = top;
position = "{403, 720}";
}
);
layerId = "17A5F7C0-AED1-4270-89BA-BFDC1003B8A5";
paths = (
{
closed = 1;
nodes = (
"137 0 LINE",
"137 628 LINE",
"665 0 LINE",
"776 0 LINE",
"776 720 LINE",
"695 720 LINE",
"695 92 LINE",
"167 720 LINE",
"56 720 LINE",
"56 0 LINE"
);
}
);
width = 832;
},
{
anchors = (
{
name = bottom;
position = "{403, 0}";
},
{
name = top;
position = "{403, 720}";
}
);
layerId = "D465923C-ABAE-4975-85A4-08C1BC9DA335";
paths = (
{
closed = 1;
nodes = (
"211 0 LINE",
"211 482 LINE",
"616 0 LINE",
"776 0 LINE",
"776 720 LINE",
"619 720 LINE",
"619 240 LINE",
"216 720 LINE",
"56 720 LINE",
"56 0 LINE"
);
}
);
width = 832;
}
);
unicode = 004E;
},
{
color = 4;
glyphname = O;
layers = (
{
anchors = (
{
name = bottom;
position = "{414, 0}";
},
{
name = top;
position = "{414, 720}";
}
);
layerId = "17A5F7C0-AED1-4270-89BA-BFDC1003B8A5";
paths = (
{
closed = 1;
nodes = (
"654 0 LINE SMOOTH",
"720.667 0 OFFCURVE",
"774 53.333 OFFCURVE",
"774 120 CURVE SMOOTH",
"774 600 LINE SMOOTH",
"774 666.667 OFFCURVE",
"720.667 720 OFFCURVE",
"654 720 CURVE SMOOTH",
"174 720 LINE SMOOTH",
"107.333 720 OFFCURVE",
"54 666.667 OFFCURVE",
"54 600 CURVE SMOOTH",
"54 120 LINE SMOOTH",
"54 53.333 OFFCURVE",
"107.333 0 OFFCURVE",
"174 0 CURVE"
);
},
{
closed = 1;
nodes = (
"153.104 81 OFFCURVE",
"135 99.104 OFFCURVE",
"135 120 CURVE SMOOTH",
"135 600 LINE SMOOTH",
"135 620.896 OFFCURVE",
"153.104 639 OFFCURVE",
"174 639 CURVE SMOOTH",
"654 639 LINE SMOOTH",
"674.896 639 OFFCURVE",
"693 620.896 OFFCURVE",
"693 600 CURVE SMOOTH",
"693 120 LINE SMOOTH",
"693 99.104 OFFCURVE",
"674.896 81 OFFCURVE",
"654 81 CURVE SMOOTH",
"174 81 LINE"
);
}
);
width = 828;
},
{
anchors = (
{
name = bottom;
position = "{414, 0}";
},
{
name = top;
position = "{414, 720}";
}
);
layerId = "D465923C-ABAE-4975-85A4-08C1BC9DA335";
paths = (
{
closed = 1;
nodes = (
"626 0 LINE SMOOTH",
"706 0 OFFCURVE",
"774 66.667 OFFCURVE",
"774 148 CURVE SMOOTH",
"774 572 LINE SMOOTH",
"774 653.333 OFFCURVE",
"706 720 OFFCURVE",
"626 720 CURVE SMOOTH",
"202 720 LINE SMOOTH",
"120.667 720 OFFCURVE",
"54 653.333 OFFCURVE",
"54 572 CURVE SMOOTH",
"54 148 LINE SMOOTH",
"54 66.667 OFFCURVE",
"120.667 0 OFFCURVE",
"202 0 CURVE"
);
},
{
closed = 1;
nodes = (
"209 156 OFFCURVE",
"209 156 OFFCURVE",
"209 156 CURVE SMOOTH",
"209 564 LINE SMOOTH",
"209 564 OFFCURVE",
"209 564 OFFCURVE",
"209 564 CURVE SMOOTH",
"617 564 LINE SMOOTH",
"617 564 OFFCURVE",
"617 564 OFFCURVE",
"617 564 CURVE SMOOTH",
"617 156 LINE SMOOTH",
"617 156 OFFCURVE",
"617 156 OFFCURVE",
"617 156 CURVE SMOOTH",
"209 156 LINE SMOOTH"
);
}
);
width = 828;
}
);
unicode = 004F;
},
{
color = 4;
glyphname = OE;
layers = (
{
layerId = "17A5F7C0-AED1-4270-89BA-BFDC1003B8A5";
paths = (
{
closed = 1;
nodes = (
"1349 0 LINE",
"1349 81 LINE",
"773 81 LINE",
"773 319 LINE",
"1236 319 LINE",
"1236 401 LINE",
"773 401 LINE",
"773 639 LINE",
"1349 639 LINE",
"1349 720 LINE",
"173 720 LINE SMOOTH",
"106.333 720 OFFCURVE",
"53 666.667 OFFCURVE",
"53 600 CURVE SMOOTH",
"53 120 LINE SMOOTH",
"53 53.333 OFFCURVE",
"106.333 0 OFFCURVE",
"173 0 CURVE"
);
},
{
closed = 1;
nodes = (
"152.104 81 OFFCURVE",
"134 99.104 OFFCURVE",
"134 120 CURVE SMOOTH",
"134 600 LINE SMOOTH",
"134 620.896 OFFCURVE",
"152.104 639 OFFCURVE",
"173 639 CURVE SMOOTH",
"653 639 LINE SMOOTH",
"673.896 639 OFFCURVE",
"692 620.896 OFFCURVE",
"692 600 CURVE SMOOTH",
"692 120 LINE SMOOTH",
"692 99.104 OFFCURVE",
"673.896 81 OFFCURVE",
"653 81 CURVE SMOOTH",
"173 81 LINE"
);
}
);
width = 1374;
},
{
layerId = "D465923C-ABAE-4975-85A4-08C1BC9DA335";
paths = (
{
closed = 1;
nodes = (
"1282 0 LINE",
"1282 156 LINE",
"773 156 LINE",
"773 282 LINE",
"1182 282 LINE",
"1182 438 LINE",
"773 438 LINE",
"773 564 LINE",
"1282 564 LINE",
"1282 720 LINE",
"201 720 LINE SMOOTH",
"120.403 720 OFFCURVE",
"53 653.592 OFFCURVE",
"53 572 CURVE SMOOTH",
"53 148 LINE SMOOTH",
"53 66.408 OFFCURVE",
"120.403 0 OFFCURVE",
"201 0 CURVE"
);
},
{
closed = 1;
nodes = (
"210 156 OFFCURVE",
"210 156 OFFCURVE",
"210 156 CURVE SMOOTH",
"210 564 LINE SMOOTH",
"210 564 OFFCURVE",
"210 564 OFFCURVE",
"210 564 CURVE SMOOTH",
"618 564 LINE SMOOTH",
"618 564 OFFCURVE",
"618 564 OFFCURVE",
"618 564 CURVE SMOOTH",
"618 156 LINE SMOOTH",
"618 156 OFFCURVE",
"618 156 OFFCURVE",
"618 156 CURVE SMOOTH",
"210 156 LINE SMOOTH"
);
}
);
width = 1374;
}
);
unicode = 0152;
},
{
color = 4;
glyphname = P;
layers = (
{
layerId = "17A5F7C0-AED1-4270-89BA-BFDC1003B8A5";
paths = (
{
closed = 1;
nodes = (
"137 0 LINE",
"137 268 LINE",
"656 268 LINE SMOOTH",
"722.667 268 OFFCURVE",
"776 322.328 OFFCURVE",
"776 388 CURVE SMOOTH",
"776 599 LINE SMOOTH",
"776 664.672 OFFCURVE",
"722.667 719 OFFCURVE",
"656 719 CURVE SMOOTH",
"56 719 LINE",
"56 0 LINE"
);
},
{
closed = 1;
nodes = (
"155.104 350 OFFCURVE",
"137 367.104 OFFCURVE",
"137 388 CURVE SMOOTH",
"137 599 LINE SMOOTH",
"137 619.896 OFFCURVE",
"155.104 638 OFFCURVE",
"176 638 CURVE SMOOTH",
"656 638 LINE SMOOTH",
"676.896 638 OFFCURVE",
"695 619.896 OFFCURVE",
"695 599 CURVE SMOOTH",
"695 388 LINE SMOOTH",
"695 367.104 OFFCURVE",
"676.896 350 OFFCURVE",
"656 350 CURVE SMOOTH",
"176 350 LINE"
);
}
);
width = 791;
},
{
layerId = "D465923C-ABAE-4975-85A4-08C1BC9DA335";
paths = (
{
closed = 1;
nodes = (
"211 0 LINE",
"211 236 LINE",
"627 237 LINE SMOOTH",
"708.592 237 OFFCURVE",
"776 304.403 OFFCURVE",
"776 385 CURVE SMOOTH",
"776 571 LINE SMOOTH",
"776 651.597 OFFCURVE",
"708.592 719 OFFCURVE",
"627 719 CURVE SMOOTH",
"56 719 LINE",
"56 0 LINE"
);
},
{
closed = 1;
nodes = (
"211 393 OFFCURVE",
"211 393 OFFCURVE",
"211 393 CURVE SMOOTH",
"211 564 LINE SMOOTH",
"211 564 OFFCURVE",
"211 564 OFFCURVE",
"211 564 CURVE SMOOTH",
"619 564 LINE SMOOTH",
"619 564 OFFCURVE",
"619 564 OFFCURVE",
"619 564 CURVE SMOOTH",
"619 393 LINE SMOOTH",
"619 393 OFFCURVE",
"619 393 OFFCURVE",
"619 393 CURVE SMOOTH",
"211 393 LINE SMOOTH"
);
}
);
width = 791;
}
);
unicode = 0050;
},
{
color = 4;
glyphname = Q;
layers = (
{
components = (
{
name = O;
}
);
layerId = "17A5F7C0-AED1-4270-89BA-BFDC1003B8A5";
paths = (
{
closed = 1;
nodes = (
"868 0 LINE",
"868 81 LINE",
"774 81 LINE",
"774 123 LINE",
"646 36 LINE",
"646 0 LINE"
);
}
);
width = 884;
},
{
components = (
{
name = O;
}
);
layerId = "D465923C-ABAE-4975-85A4-08C1BC9DA335";
paths = (
{
closed = 1;
nodes = (
"856 0 LINE",
"856 156 LINE",
"774 156 LINE",
"774 156 LINE",
"620 144 LINE",
"620 0 LINE"
);
}
);
width = 884;
}
);
unicode = 0051;
},
{
color = 4;
glyphname = R;
layers = (
{
components = (
{
name = P;
}
);
layerId = "17A5F7C0-AED1-4270-89BA-BFDC1003B8A5";
paths = (
{
closed = 1;
nodes = (
"771 0 LINE",
"771 1 LINE",
"535 280 LINE",
"429 280 LINE",
"664 0 LINE"
);
}
);
width = 825;
},
{
components = (
{
name = P;
}
);
layerId = "D465923C-ABAE-4975-85A4-08C1BC9DA335";
paths = (
{
closed = 1;
nodes = (
"775 0 LINE",
"775 53 LINE",
"609 249 LINE",
"406 249 LINE",
"615 0 LINE"
);
}
);
width = 825;
}
);
unicode = 0052;
},
{
color = 4;
glyphname = S;
layers = (
{
anchors = (
{
name = bottom;
position = "{414, 0}";
},
{
name = top;
position = "{414, 720}";
}
);
layerId = "17A5F7C0-AED1-4270-89BA-BFDC1003B8A5";
paths = (
{
closed = 1;
nodes = (
"651 0 LINE SMOOTH",
"717.667 0 OFFCURVE",
"771 53.333 OFFCURVE",
"771 120 CURVE SMOOTH",
"771 281 LINE SMOOTH",
"771 346.333 OFFCURVE",
"717.667 401 OFFCURVE",
"651 401 CURVE SMOOTH",
"171 401 LINE SMOOTH",
"149.667 401 OFFCURVE",
"132 417.667 OFFCURVE",
"132 439 CURVE SMOOTH",
"132 600 LINE SMOOTH",
"132 621.333 OFFCURVE",
"149.667 639 OFFCURVE",
"171 639 CURVE SMOOTH",
"651 639 LINE SMOOTH",
"672.333 639 OFFCURVE",
"690 621.333 OFFCURVE",
"690 600 CURVE SMOOTH",
"690 572 LINE",
"771 572 LINE",
"771 600 LINE SMOOTH",
"771 666.667 OFFCURVE",
"717.667 720 OFFCURVE",
"651 720 CURVE SMOOTH",
"171 720 LINE SMOOTH",
"104.333 720 OFFCURVE",
"51 666.667 OFFCURVE",
"51 600 CURVE SMOOTH",
"51 439 LINE SMOOTH",
"51 373.667 OFFCURVE",
"104.333 319 OFFCURVE",
"171 319 CURVE SMOOTH",
"651 319 LINE SMOOTH",
"672.333 319 OFFCURVE",
"690 302.333 OFFCURVE",
"690 281 CURVE SMOOTH",
"690 120 LINE SMOOTH",
"690 98.667 OFFCURVE",
"672.333 81 OFFCURVE",
"651 81 CURVE SMOOTH",
"171 81 LINE SMOOTH",
"149.667 81 OFFCURVE",
"132 98.667 OFFCURVE",
"132 120 CURVE SMOOTH",
"132 148 LINE",
"51 148 LINE",
"51 120 LINE SMOOTH",
"51 53.333 OFFCURVE",
"104.333 0 OFFCURVE",
"171 0 CURVE"
);
}
);
width = 822;
},
{
anchors = (
{
name = bottom;
position = "{414, 0}";
},
{
name = top;
position = "{414, 720}";
}
);
layerId = "D465923C-ABAE-4975-85A4-08C1BC9DA335";
paths = (
{
closed = 1;
nodes = (
"626 0 LINE SMOOTH",
"706 0 OFFCURVE",
"774 66.667 OFFCURVE",
"774 148 CURVE SMOOTH",
"774 290 LINE SMOOTH",
"774 371.333 OFFCURVE",
"706 438 OFFCURVE",
"626 438 CURVE SMOOTH",
"209 438 LINE SMOOTH",
"209 438 OFFCURVE",
"209 438 OFFCURVE",
"209 438 CURVE SMOOTH",
"209 564 LINE SMOOTH",
"209 564 OFFCURVE",
"209 564 OFFCURVE",
"209 564 CURVE SMOOTH",
"617 564 LINE SMOOTH",
"617 564 OFFCURVE",
"617 564 OFFCURVE",
"617 564 CURVE SMOOTH",
"617 505 LINE",
"774 505 LINE",
"774 572 LINE SMOOTH",
"774 653.333 OFFCURVE",
"706 720 OFFCURVE",
"626 720 CURVE SMOOTH",
"202 720 LINE SMOOTH",
"120.667 720 OFFCURVE",
"54 653.333 OFFCURVE",
"54 572 CURVE SMOOTH",
"54 430 LINE SMOOTH",
"54 348.667 OFFCURVE",
"120.667 282 OFFCURVE",
"202 282 CURVE SMOOTH",
"617 282 LINE SMOOTH",
"617 282 OFFCURVE",
"617 282 OFFCURVE",
"617 282 CURVE SMOOTH",
"617 156 LINE SMOOTH",
"617 156 OFFCURVE",
"617 156 OFFCURVE",
"617 156 CURVE SMOOTH",
"209 156 LINE SMOOTH",
"209 156 OFFCURVE",
"209 156 OFFCURVE",
"209 156 CURVE SMOOTH",
"209 215 LINE",
"54 215 LINE",
"54 148 LINE SMOOTH",
"54 66.667 OFFCURVE",
"120.667 0 OFFCURVE",
"202 0 CURVE"
);
}
);
width = 828;
}
);
unicode = 0053;
},
{
color = 4;
glyphname = T;
layers = (
{
layerId = "17A5F7C0-AED1-4270-89BA-BFDC1003B8A5";
paths = (
{
closed = 1;
nodes = (
"421 0 LINE",
"421 639 LINE",
"740 639 LINE",
"740 720 LINE",
"20 720 LINE",
"20 639 LINE",
"340 639 LINE",
"340 0 LINE",
"340 0 LINE"
);
}
);
width = 759;
},
{
layerId = "D465923C-ABAE-4975-85A4-08C1BC9DA335";
paths = (
{
closed = 1;
nodes = (
"458 0 LINE",
"458 564 LINE",
"740 564 LINE",
"740 720 LINE",
"20 720 LINE",
"20 564 LINE",
"302 564 LINE",
"302 0 LINE",
"302 0 LINE"
);
}
);
width = 759;
}
);
unicode = 0054;
},
{
color = 4;
glyphname = U;
layers = (
{
anchors = (
{
name = bottom;
position = "{414, 0}";
},
{
name = top;
position = "{414, 720}";
}
);
layerId = "17A5F7C0-AED1-4270-89BA-BFDC1003B8A5";
paths = (
{
closed = 1;
nodes = (
"174 0 LINE",
"654 0 LINE SMOOTH",
"720.667 0 OFFCURVE",
"774 53.333 OFFCURVE",
"774 120 CURVE SMOOTH",
"774 720 LINE",
"693 720 LINE",
"693 120 LINE SMOOTH",
"693 98.667 OFFCURVE",
"675.333 81 OFFCURVE",
"654 81 CURVE SMOOTH",
"174 81 LINE SMOOTH",
"152.667 81 OFFCURVE",
"135 98.667 OFFCURVE",
"135 120 CURVE SMOOTH",
"135 720 LINE",
"54 720 LINE",
"54 120 LINE SMOOTH",
"54 53.333 OFFCURVE",
"107.333 0 OFFCURVE",
"174 0 CURVE"
);
}
);
width = 828;
},
{
anchors = (
{
name = bottom;
position = "{414, 0}";
},
{
name = top;
position = "{414, 720}";
}
);
layerId = "D465923C-ABAE-4975-85A4-08C1BC9DA335";
paths = (
{
closed = 1;
nodes = (
"202 0 LINE",
"626 0 LINE SMOOTH",
"706 0 OFFCURVE",
"774 66.667 OFFCURVE",
"774 148 CURVE SMOOTH",
"774 720 LINE",
"617 720 LINE",
"617 156 LINE SMOOTH",
"617 156 OFFCURVE",
"617 156 OFFCURVE",
"617 156 CURVE SMOOTH",
"209 156 LINE SMOOTH",
"209 156 OFFCURVE",
"209 156 OFFCURVE",
"209 156 CURVE SMOOTH",
"209 720 LINE",
"54 720 LINE",
"54 148 LINE SMOOTH",
"54 66.667 OFFCURVE",
"120.667 0 OFFCURVE",
"202 0 CURVE"
);
}
);
width = 828;
}
);
unicode = 0055;
},
{
color = 4;
glyphname = V;
layers = (
{
layerId = "17A5F7C0-AED1-4270-89BA-BFDC1003B8A5";
paths = (
{
closed = 1;
nodes = (
"546 0 LINE",
"962 720 LINE",
"867 720 LINE",
"499 79 LINE",
"130 720 LINE",
"35 720 LINE",
"452 0 LINE",
"452 0 LINE"
);
}
);
width = 1003;
},
{
layerId = "D465923C-ABAE-4975-85A4-08C1BC9DA335";
paths = (
{
closed = 1;
nodes = (
"581 0 LINE",
"998 720 LINE",
"819 720 LINE",
"517 197 LINE",
"215 720 LINE",
"35 720 LINE",
"452 0 LINE",
"452 0 LINE"
);
}
);
width = 1003;
}
);
unicode = 0056;
},
{
color = 4;
glyphname = W;
layers = (
{
layerId = "17A5F7C0-AED1-4270-89BA-BFDC1003B8A5";
paths = (
{
closed = 1;
nodes = (
"367 0 LINE",
"591 615 LINE",
"815 0 LINE",
"886 0 LINE",
"1148 720 LINE",
"1060 720 LINE",
"851 142 LINE",
"640 720 LINE",
"542 720 LINE",
"332 142 LINE",
"121 720 LINE",
"35 720 LINE",
"297 0 LINE",
"297 0 LINE"
);
}
);
width = 1179;
},
{
layerId = "D465923C-ABAE-4975-85A4-08C1BC9DA335";
paths = (
{
closed = 1;
nodes = (
"416 0 LINE",
"585 463 LINE",
"755 0 LINE",
"874 0 LINE",
"1136 720 LINE",
"972 720 LINE",
"815 291 LINE",
"657 720 LINE",
"514 720 LINE",
"357 291 LINE",
"200 720 LINE",
"35 720 LINE",
"297 0 LINE",
"297 0 LINE"
);
}
);
width = 1179;
}
);
unicode = 0057;
},
{
color = 4;
glyphname = X;
layers = (
{
layerId = "17A5F7C0-AED1-4270-89BA-BFDC1003B8A5";
paths = (
{
closed = 1;
nodes = (
"150 0 LINE",
"401 297 LINE",
"651 0 LINE",
"756 0 LINE",
"756 1 LINE",
"453 360 LINE",
"755 719 LINE",
"755 720 LINE",
"651 720 LINE",
"401 423 LINE",
"150 720 LINE",
"46 720 LINE",
"46 719 LINE",
"348 360 LINE",
"46 1 LINE",
"46 0 LINE",
"46 0 LINE"
);
}
);
width = 812;
},
{
layerId = "D465923C-ABAE-4975-85A4-08C1BC9DA335";
paths = (
{
closed = 1;
nodes = (
"207 0 LINE",
"405 236 LINE",
"605 0 LINE",
"766 0 LINE",
"766 54 LINE",
"508 360 LINE",
"766 667 LINE",
"766 720 LINE",
"605 720 LINE",
"407 483 LINE",
"207 720 LINE",
"46 720 LINE",
"46 667 LINE",
"303 360 LINE",
"46 53 LINE",
"46 0 LINE",
"46 0 LINE"
);
}
);
width = 812;
}
);
unicode = 0058;
},
{
color = 4;
glyphname = Y;
layers = (
{
anchors = (
{
name = top;
position = "{402, 720}";
}
);
layerId = "17A5F7C0-AED1-4270-89BA-BFDC1003B8A5";
paths = (
{
closed = 1;
nodes = (
"444 0 LINE",
"444 271 LINE",
"775 720 LINE",
"680 720 LINE",
"404 368 LINE",
"125 720 LINE",
"32 720 LINE",
"363 271 LINE",
"363 0 LINE",
"363 0 LINE"
);
}
);
width = 806;
},
{
anchors = (
{
name = top;
position = "{402, 720}";
}
);
layerId = "D465923C-ABAE-4975-85A4-08C1BC9DA335";
paths = (
{
closed = 1;
nodes = (
"480 0 LINE",
"480 268 LINE",
"814 720 LINE",
"627 720 LINE",
"402 436 LINE",
"176 720 LINE",
"-9 720 LINE",
"324 269 LINE",
"324 0 LINE",
"324 0 LINE"
);
}
);
width = 806;
}
);
unicode = 0059;
},
{
color = 4;
glyphname = Z;
layers = (
{
anchors = (
{
name = top;
position = "{411, 720}";
}
);
layerId = "17A5F7C0-AED1-4270-89BA-BFDC1003B8A5";
paths = (
{
closed = 1;
nodes = (
"771 0 LINE",
"771 81 LINE",
"143 81 LINE",
"771 609 LINE",
"771 720 LINE",
"51 720 LINE",
"51 639 LINE",
"679 639 LINE",
"51 111 LINE",
"51 0 LINE",
"51 0 LINE"
);
}
);
width = 821;
},
{
anchors = (
{
name = top;
position = "{411, 720}";
}
);
layerId = "D465923C-ABAE-4975-85A4-08C1BC9DA335";
paths = (
{
closed = 1;
nodes = (
"771 0 LINE",
"771 156 LINE",
"289 156 LINE",
"771 561 LINE",
"771 720 LINE",
"51 720 LINE",
"51 564 LINE",
"533 564 LINE",
"51 159 LINE",
"51 0 LINE",
"51 0 LINE"
);
}
);
width = 821;
}
);
unicode = 005A;
},
{
color = 4;
glyphname = A.alt;
layers = (
{
layerId = "17A5F7C0-AED1-4270-89BA-BFDC1003B8A5";
paths = (
{
closed = 1;
nodes = (
"111 0 LINE",
"281 202 LINE",
"645 202 LINE",
"645 0 LINE",
"728 0 LINE",
"728 721 LINE",
"616 721 LINE",
"4 1 LINE",
"4 0 LINE",
"4 0 LINE"
);
},
{
closed = 1;
nodes = (
"645 629 LINE",
"645 285 LINE",
"351 285 LINE",
"351 285 LINE"
);
}
);
width = 774;
},
{
layerId = "D465923C-ABAE-4975-85A4-08C1BC9DA335";
paths = (
{
closed = 1;
nodes = (
"156 0 LINE",
"302 174 LINE",
"552 174 LINE",
"552 0 LINE",
"706 0 LINE",
"706 720 LINE",
"549 720 LINE",
"0 50 LINE",
"0 0 LINE",
"0 0 LINE"
);
},
{
closed = 1;
nodes = (
"552 471 LINE",
"552 327 LINE",
"430 327 LINE",
"430 327 LINE"
);
}
);
width = 774;
}
);
},
{
color = 4;
glyphname = C.alt;
layers = (
{
layerId = "17A5F7C0-AED1-4270-89BA-BFDC1003B8A5";
paths = (
{
closed = 1;
nodes = (
"172 0 LINE",
"652 0 LINE SMOOTH",
"705.732 0 OFFCURVE",
"755.075 49.253 OFFCURVE",
"770 100 CURVE",
"770 194 LINE",
"692 194 LINE",
"692 81 LINE",
"172 81 LINE SMOOTH",
"151.104 81 OFFCURVE",
"133 98.667 OFFCURVE",
"133 120 CURVE SMOOTH",
"133 600 LINE SMOOTH",
"133 620.896 OFFCURVE",
"151.104 639 OFFCURVE",
"172 639 CURVE SMOOTH",
"692 639 LINE",
"692 526 LINE",
"773 526 LINE",
"770 620 LINE",
"755.075 670.747 OFFCURVE",
"705.732 720 OFFCURVE",
"652 720 CURVE SMOOTH",
"172 720 LINE SMOOTH",
"105.333 720 OFFCURVE",
"52 666.667 OFFCURVE",
"52 600 CURVE SMOOTH",
"52 120 LINE SMOOTH",
"52 53.333 OFFCURVE",
"105.333 0 OFFCURVE",
"172 0 CURVE"
);
}
);
width = 822;
},
{
layerId = "D465923C-ABAE-4975-85A4-08C1BC9DA335";
paths = (
{
closed = 1;
nodes = (
"200 0 LINE",
"624 0 LINE SMOOTH",
"696.637 0 OFFCURVE",
"758.06 53.343 OFFCURVE",
"770 122 CURVE",
"770 255 LINE",
"616 255 LINE",
"616 156 LINE",
"240 156 LINE SMOOTH",
"221.333 156 OFFCURVE",
"207 170.333 OFFCURVE",
"207 189 CURVE SMOOTH",
"207 531 LINE SMOOTH",
"207 549.667 OFFCURVE",
"221.333 564 OFFCURVE",
"240 564 CURVE SMOOTH",
"616 564 LINE",
"616 465 LINE",
"773 465 LINE",
"773 599 LINE",
"756.084 666.661 OFFCURVE",
"695.641 720 OFFCURVE",
"624 720 CURVE SMOOTH",
"200 720 LINE SMOOTH",
"118.408 720 OFFCURVE",
"52 653.592 OFFCURVE",
"52 572 CURVE SMOOTH",
"52 148 LINE SMOOTH",
"52 66.408 OFFCURVE",
"118.408 0 OFFCURVE",
"200 0 CURVE"
);
}
);
width = 822;
}
);
},
{
color = 4;
glyphname = I.alt;
layers = (
{
layerId = "17A5F7C0-AED1-4270-89BA-BFDC1003B8A5";
paths = (
{
closed = 1;
nodes = (
"769 0 LINE",
"769 81 LINE",
"450 81 LINE",
"450 639 LINE",
"769 639 LINE",
"769 720 LINE",
"49 720 LINE",
"49 639 LINE",
"368 639 LINE",
"368 81 LINE",
"49 81 LINE",
"49 0 LINE",
"49 0 LINE"
);
}
);
width = 818;
},
{
layerId = "D465923C-ABAE-4975-85A4-08C1BC9DA335";
paths = (
{
closed = 1;
nodes = (
"769 0 LINE",
"769 156 LINE",
"487 156 LINE",
"487 564 LINE",
"769 564 LINE",
"769 720 LINE",
"49 720 LINE",
"49 564 LINE",
"331 564 LINE",
"331 156 LINE",
"49 156 LINE",
"49 0 LINE",
"49 0 LINE"
);
}
);
width = 818;
}
);
},
{
color = 4;
glyphname = J.alt;
layers = (
{
layerId = "17A5F7C0-AED1-4270-89BA-BFDC1003B8A5";
paths = (
{
closed = 1;
nodes = (
"468 0 LINE SMOOTH",
"533.672 0 OFFCURVE",
"588 53.333 OFFCURVE",
"588 120 CURVE SMOOTH",
"588 720 LINE",
"506 720 LINE",
"506 120 LINE SMOOTH",
"506 99.104 OFFCURVE",
"488.896 81 OFFCURVE",
"468 81 CURVE SMOOTH",
"3 81 LINE",
"3 0 LINE",
"3 0 LINE"
);
}
);
width = 645;
},
{
layerId = "D465923C-ABAE-4975-85A4-08C1BC9DA335";
paths = (
{
closed = 1;
nodes = (
"455 0 LINE SMOOTH",
"535.597 0 OFFCURVE",
"604 66.408 OFFCURVE",
"604 148 CURVE SMOOTH",
"604 720 LINE",
"447 720 LINE",
"447 156 LINE SMOOTH",
"447 156 OFFCURVE",
"447 156 OFFCURVE",
"447 156 CURVE SMOOTH",
"3 156 LINE",
"3 0 LINE",
"3 0 LINE"
);
}
);
width = 645;
}
);
},
{
color = 4;
glyphname = K.alt;
layers = (
{
layerId = "17A5F7C0-AED1-4270-89BA-BFDC1003B8A5";
paths = (
{
closed = 1;
nodes = (
"135 0 LINE",
"135 278 LINE SMOOTH",
"135 298 OFFCURVE",
"152.667 316 OFFCURVE",
"174 316 CURVE SMOOTH",
"654 316 LINE SMOOTH",
"675.333 316 OFFCURVE",
"693 298 OFFCURVE",
"693 278 CURVE SMOOTH",
"693 0 LINE",
"774 0 LINE",
"774 257 LINE SMOOTH",
"774 311.667 OFFCURVE",
"745.333 343.667 OFFCURVE",
"676 357 CURVE",
"746.667 370.333 OFFCURVE",
"775 401 OFFCURVE",
"775 457 CURVE SMOOTH",
"775 720 LINE",
"694 720 LINE",
"694 436 LINE SMOOTH",
"694 414.667 OFFCURVE",
"676.333 398 OFFCURVE",
"655 398 CURVE SMOOTH",
"174 398 LINE SMOOTH",
"152.667 398 OFFCURVE",
"135 414.667 OFFCURVE",
"135 436 CURVE SMOOTH",
"135 720 LINE",
"54 720 LINE",
"54 0 LINE",
"54 0 LINE"
);
}
);
width = 829;
},
{
layerId = "D465923C-ABAE-4975-85A4-08C1BC9DA335";
paths = (
{
closed = 1;
nodes = (
"209 0 LINE",
"209 279 LINE SMOOTH",
"209 279 OFFCURVE",
"209 279 OFFCURVE",
"209 279 CURVE SMOOTH",
"618 279 LINE SMOOTH",
"618 279 OFFCURVE",
"618 279 OFFCURVE",
"618 279 CURVE SMOOTH",
"617 0 LINE",
"774 0 LINE",
"774 269 LINE SMOOTH",
"774 302.333 OFFCURVE",
"753 335.667 OFFCURVE",
"717 357 CURVE",
"753 378.333 OFFCURVE",
"775 413 OFFCURVE",
"775 445 CURVE SMOOTH",
"775 720 LINE",
"618 720 LINE",
"618 435 LINE SMOOTH",
"618 435 OFFCURVE",
"618 435 OFFCURVE",
"618 435 CURVE SMOOTH",
"209 435 LINE SMOOTH",
"209 435 OFFCURVE",
"209 435 OFFCURVE",
"209 435 CURVE SMOOTH",
"209 720 LINE",
"54 720 LINE",
"54 0 LINE",
"54 0 LINE"
);
}
);
width = 829;
}
);
},
{
color = 4;
glyphname = M.alt;
layers = (
{
layerId = "17A5F7C0-AED1-4270-89BA-BFDC1003B8A5";
paths = (
{
closed = 1;
nodes = (
"136 0 LINE",
"136 639 LINE",
"494 639 LINE SMOOTH",
"514.896 639 OFFCURVE",
"532 620.896 OFFCURVE",
"532 600 CURVE SMOOTH",
"532 0 LINE",
"614 0 LINE",
"614 639 LINE",
"997 639 LINE SMOOTH",
"1017.896 639 OFFCURVE",
"1035 620.896 OFFCURVE",
"1035 600 CURVE SMOOTH",
"1035 0 LINE",
"1117 0 LINE",
"1117 600 LINE SMOOTH",
"1117 666.667 OFFCURVE",
"1062.672 720 OFFCURVE",
"997 720 CURVE SMOOTH",
"54 720 LINE",
"54 0 LINE",
"54 0 LINE"
);
}
);
width = 1155;
},
{
layerId = "D465923C-ABAE-4975-85A4-08C1BC9DA335";
paths = (
{
closed = 1;
nodes = (
"209 0 LINE",
"209 564 LINE",
"476 564 LINE SMOOTH",
"476 564 OFFCURVE",
"476 564 OFFCURVE",
"476 564 CURVE SMOOTH",
"476 0 LINE",
"632 0 LINE",
"632 564 LINE",
"920 564 LINE SMOOTH",
"920 564 OFFCURVE",
"920 564 OFFCURVE",
"920 564 CURVE SMOOTH",
"920 0 LINE",
"1076 0 LINE",
"1076 572 LINE SMOOTH",
"1076 653.592 OFFCURVE",
"1008.601 720 OFFCURVE",
"929 720 CURVE SMOOTH",
"54 720 LINE",
"54 0 LINE",
"54 0 LINE"
);
}
);
width = 1155;
}
);
},
{
color = 4;
glyphname = N.alt;
layers = (
{
layerId = "17A5F7C0-AED1-4270-89BA-BFDC1003B8A5";
paths = (
{
closed = 1;
nodes = (
"135 0 LINE",
"135 639 LINE",
"654 639 LINE SMOOTH",
"674.896 639 OFFCURVE",
"693 621.333 OFFCURVE",
"693 600 CURVE SMOOTH",
"693 0 LINE",
"774 0 LINE",
"774 600 LINE SMOOTH",
"774 666.667 OFFCURVE",
"720.667 720 OFFCURVE",
"654 720 CURVE SMOOTH",
"54 720 LINE",
"54 0 LINE",
"54 0 LINE"
);
}
);
width = 827;
},
{
layerId = "D465923C-ABAE-4975-85A4-08C1BC9DA335";
paths = (
{
closed = 1;
nodes = (
"209 0 LINE",
"209 564 LINE",
"617 564 LINE SMOOTH",
"617 564 OFFCURVE",
"617 564 OFFCURVE",
"617 564 CURVE SMOOTH",
"617 0 LINE",
"774 0 LINE",
"774 572 LINE SMOOTH",
"774 653.592 OFFCURVE",
"706.597 720 OFFCURVE",
"626 720 CURVE SMOOTH",
"54 720 LINE",
"54 0 LINE",
"54 0 LINE"
);
}
);
width = 827;
}
);
},
{
color = 4;
glyphname = O.alt;
layers = (
{
components = (
{
name = O;
}
);
layerId = "17A5F7C0-AED1-4270-89BA-BFDC1003B8A5";
paths = (
{
closed = 1;
nodes = (
"453 319 LINE",
"453 401 LINE",
"371 401 LINE",
"371 319 LINE",
"371 319 LINE"
);
}
);
width = 824;
},
{
components = (
{
name = O;
}
);
layerId = "D465923C-ABAE-4975-85A4-08C1BC9DA335";
paths = (
{
closed = 1;
nodes = (
"490 282 LINE",
"490 438 LINE",
"334 438 LINE",
"334 282 LINE",
"334 282 LINE"
);
}
);
width = 824;
}
);
},
{
color = 4;
glyphname = Q.alt;
layers = (
{
components = (
{
name = O;
}
);
layerId = "17A5F7C0-AED1-4270-89BA-BFDC1003B8A5";
paths = (
{
closed = 1;
nodes = (
"455 -113 LINE",
"455 16 LINE",
"373 16 LINE",
"373 -113 LINE"
);
}
);
width = 868;
},
{
components = (
{
name = O;
}
);
layerId = "D465923C-ABAE-4975-85A4-08C1BC9DA335";
paths = (
{
closed = 1;
nodes = (
"492 -120 LINE",
"492 16 LINE",
"335 16 LINE",
"335 -120 LINE"
);
}
);
width = 868;
}
);
},
{
color = 4;
glyphname = R.alt;
layers = (
{
layerId = "17A5F7C0-AED1-4270-89BA-BFDC1003B8A5";
paths = (
{
closed = 1;
nodes = (
"135 0 LINE",
"135 230 LINE SMOOTH",
"135 249.9 OFFCURVE",
"153.104 268 OFFCURVE",
"174 268 CURVE SMOOTH",
"654 268 LINE SMOOTH",
"674.896 268 OFFCURVE",
"693 249.9 OFFCURVE",
"693 230 CURVE SMOOTH",
"693 0 LINE",
"774 0 LINE",
"774 230 LINE SMOOTH",
"774 286.716 OFFCURVE",
"695.856 309 OFFCURVE",
"667 309 CURVE SMOOTH",
"694.861 309 OFFCURVE",
"774 331.284 OFFCURVE",
"774 388 CURVE SMOOTH",
"774 599 LINE SMOOTH",
"774 664.672 OFFCURVE",
"720.667 719 OFFCURVE",
"654 719 CURVE SMOOTH",
"54 720 LINE",
"54 0 LINE"
);
},
{
closed = 1;
nodes = (
"153.104 350 OFFCURVE",
"135 367.104 OFFCURVE",
"135 388 CURVE SMOOTH",
"135 599 LINE SMOOTH",
"135 619.896 OFFCURVE",
"153.104 638 OFFCURVE",
"174 638 CURVE SMOOTH",
"654 638 LINE SMOOTH",
"674.896 638 OFFCURVE",
"693 619.896 OFFCURVE",
"693 599 CURVE SMOOTH",
"693 388 LINE SMOOTH",
"693 367.104 OFFCURVE",
"674.896 350 OFFCURVE",
"654 350 CURVE SMOOTH",
"174 350 LINE"
);
}
);
width = 826;
},
{
layerId = "D465923C-ABAE-4975-85A4-08C1BC9DA335";
paths = (
{
closed = 1;
nodes = (
"209 0 LINE",
"209 237 LINE SMOOTH",
"209 237 OFFCURVE",
"209 237 OFFCURVE",
"209 237 CURVE SMOOTH",
"617 237 LINE SMOOTH",
"617 237 OFFCURVE",
"617 237 OFFCURVE",
"617 237 CURVE SMOOTH",
"617 0 LINE",
"774 0 LINE",
"774 245 LINE SMOOTH",
"774 277.836 OFFCURVE",
"760.896 300.075 OFFCURVE",
"740 315 CURVE",
"759.9 329.925 OFFCURVE",
"774 353.159 OFFCURVE",
"774 385 CURVE SMOOTH",
"774 571 LINE SMOOTH",
"774 651.597 OFFCURVE",
"707 720 OFFCURVE",
"626 720 CURVE SMOOTH",
"54 721 LINE",
"54 0 LINE"
);
},
{
closed = 1;
nodes = (
"209 393 OFFCURVE",
"209 393 OFFCURVE",
"209 393 CURVE SMOOTH",
"209 564 LINE SMOOTH",
"209 564 OFFCURVE",
"209 564 OFFCURVE",
"209 564 CURVE SMOOTH",
"617 564 LINE SMOOTH",
"617 564 OFFCURVE",
"617 564 OFFCURVE",
"617 564 CURVE SMOOTH",
"617 393 LINE SMOOTH",
"617 393 OFFCURVE",
"617 393 OFFCURVE",
"617 393 CURVE SMOOTH",
"209 393 LINE SMOOTH"
);
}
);
width = 826;
}
);
},
{
color = 4;
glyphname = S.alt;
layers = (
{
layerId = "17A5F7C0-AED1-4270-89BA-BFDC1003B8A5";
paths = (
{
closed = 1;
nodes = (
"646 0 LINE SMOOTH",
"712.667 0 OFFCURVE",
"766 53.333 OFFCURVE",
"766 120 CURVE SMOOTH",
"766 281 LINE SMOOTH",
"766 346.672 OFFCURVE",
"712.667 401 OFFCURVE",
"646 401 CURVE SMOOTH",
"166 401 LINE SMOOTH",
"145.104 401 OFFCURVE",
"127 418.104 OFFCURVE",
"127 439 CURVE SMOOTH",
"127 600 LINE SMOOTH",
"127 620.896 OFFCURVE",
"145.104 639 OFFCURVE",
"166 639 CURVE SMOOTH",
"766 639 LINE",
"766 720 LINE",
"166 720 LINE SMOOTH",
"99.333 720 OFFCURVE",
"46 666.667 OFFCURVE",
"46 600 CURVE SMOOTH",
"46 439 LINE SMOOTH",
"46 373.328 OFFCURVE",
"99.333 319 OFFCURVE",
"166 319 CURVE SMOOTH",
"646 319 LINE SMOOTH",
"666.896 319 OFFCURVE",
"684 301.896 OFFCURVE",
"684 281 CURVE SMOOTH",
"684 120 LINE SMOOTH",
"684 99.104 OFFCURVE",
"666.896 81 OFFCURVE",
"646 81 CURVE SMOOTH",
"46 81 LINE",
"46 0 LINE"
);
}
);
width = 812;
},
{
layerId = "D465923C-ABAE-4975-85A4-08C1BC9DA335";
paths = (
{
closed = 1;
nodes = (
"618 0 LINE SMOOTH",
"698.597 0 OFFCURVE",
"766 66.408 OFFCURVE",
"766 148 CURVE SMOOTH",
"766 290 LINE SMOOTH",
"766 371.592 OFFCURVE",
"698.597 438 OFFCURVE",
"618 438 CURVE SMOOTH",
"202 438 LINE SMOOTH",
"202 438 OFFCURVE",
"202 438 OFFCURVE",
"202 438 CURVE SMOOTH",
"202 564 LINE SMOOTH",
"202 564 OFFCURVE",
"202 564 OFFCURVE",
"202 564 CURVE SMOOTH",
"766 564 LINE",
"766 720 LINE",
"194 720 LINE SMOOTH",
"112.408 720 OFFCURVE",
"46 653.592 OFFCURVE",
"46 572 CURVE SMOOTH",
"46 430 LINE SMOOTH",
"46 348.408 OFFCURVE",
"112.408 282 OFFCURVE",
"194 282 CURVE SMOOTH",
"610 282 LINE SMOOTH",
"610 282 OFFCURVE",
"610 282 OFFCURVE",
"610 282 CURVE SMOOTH",
"610 156 LINE SMOOTH",
"610 156 OFFCURVE",
"610 156 OFFCURVE",
"610 156 CURVE SMOOTH",
"46 156 LINE",
"46 0 LINE"
);
}
);
width = 812;
}
);
},
{
color = 4;
glyphname = V.alt;
layers = (
{
layerId = "17A5F7C0-AED1-4270-89BA-BFDC1003B8A5";
paths = (
{
closed = 1;
nodes = (
"166 0 LINE",
"777 719 LINE",
"777 720 LINE",
"670 720 LINE",
"137 93 LINE",
"137 721 LINE",
"54 721 LINE",
"54 0 LINE",
"54 0 LINE"
);
}
);
width = 774;
},
{
layerId = "D465923C-ABAE-4975-85A4-08C1BC9DA335";
paths = (
{
closed = 1;
nodes = (
"211 0 LINE",
"761 656 LINE",
"761 720 LINE",
"605 720 LINE",
"207 234 LINE",
"207 720 LINE",
"54 720 LINE",
"54 0 LINE",
"54 0 LINE"
);
}
);
width = 774;
}
);
},
{
color = 4;
glyphname = W.alt;
layers = (
{
layerId = "17A5F7C0-AED1-4270-89BA-BFDC1003B8A5";
paths = (
{
closed = 1;
nodes = (
"161 0 LINE",
"449 343 LINE",
"449 0 LINE",
"561 0 LINE",
"1171 719 LINE",
"1171 720 LINE",
"1065 720 LINE",
"531 93 LINE",
"531 442 LINE",
"770 719 LINE",
"770 720 LINE",
"665 720 LINE",
"131 93 LINE",
"131 720 LINE",
"49 720 LINE",
"49 0 LINE",
"49 0 LINE"
);
}
);
width = 1171;
},
{
layerId = "D465923C-ABAE-4975-85A4-08C1BC9DA335";
paths = (
{
closed = 1;
nodes = (
"240 0 LINE",
"429 225 LINE",
"429 0 LINE",
"588 0 LINE",
"1149 668 LINE",
"1149 720 LINE",
"988 720 LINE",
"585 237 LINE",
"585 413 LINE",
"800 667 LINE",
"800 720 LINE",
"640 720 LINE",
"236 237 LINE",
"236 720 LINE",
"80 720 LINE",
"80 0 LINE",
"80 0 LINE"
);
}
);
width = 1149;
}
);
},
{
color = 4;
glyphname = X.alt;
layers = (
{
layerId = "17A5F7C0-AED1-4270-89BA-BFDC1003B8A5";
paths = (
{
closed = 1;
nodes = (
"136 0 LINE",
"136 278 LINE SMOOTH",
"136 297.9 OFFCURVE",
"154.104 316 OFFCURVE",
"175 316 CURVE SMOOTH",
"654 316 LINE SMOOTH",
"674.896 316 OFFCURVE",
"693 297.9 OFFCURVE",
"693 278 CURVE SMOOTH",
"693 0 LINE",
"774 0 LINE",
"774 257 LINE SMOOTH",
"774 307.747 OFFCURVE",
"707.641 357 OFFCURVE",
"636 357 CURVE",
"707.641 357 OFFCURVE",
"775 406.253 OFFCURVE",
"775 457 CURVE SMOOTH",
"775 720 LINE",
"694 720 LINE",
"694 436 LINE SMOOTH",
"694 415.104 OFFCURVE",
"675.896 398 OFFCURVE",
"655 398 CURVE SMOOTH",
"174 398 LINE SMOOTH",
"153.104 398 OFFCURVE",
"135 415.104 OFFCURVE",
"135 436 CURVE SMOOTH",
"135 720 LINE",
"54 720 LINE",
"54 457 LINE SMOOTH",
"54 406.253 OFFCURVE",
"120.363 357 OFFCURVE",
"193 357 CURVE",
"120.363 357 OFFCURVE",
"55 307.747 OFFCURVE",
"55 257 CURVE SMOOTH",
"55 0 LINE"
);
}
);
width = 829;
},
{
layerId = "D465923C-ABAE-4975-85A4-08C1BC9DA335";
paths = (
{
closed = 1;
nodes = (
"210 0 LINE",
"209 279 LINE SMOOTH",
"209 279 OFFCURVE",
"209 279 OFFCURVE",
"209 279 CURVE SMOOTH",
"620 279 LINE SMOOTH",
"620 279 OFFCURVE",
"620 279 OFFCURVE",
"620 279 CURVE SMOOTH",
"620 0 LINE",
"775 0 LINE",
"775 269 LINE SMOOTH",
"774 306.811 OFFCURVE",
"754.821 337.1 OFFCURVE",
"719 357 CURVE",
"752.831 376.9 OFFCURVE",
"775 408.184 OFFCURVE",
"775 445 CURVE SMOOTH",
"775 720 LINE",
"620 720 LINE",
"620 435 LINE SMOOTH",
"620 435 OFFCURVE",
"620 435 OFFCURVE",
"620 435 CURVE SMOOTH",
"209 435 LINE SMOOTH",
"209 435 OFFCURVE",
"209 435 OFFCURVE",
"209 435 CURVE SMOOTH",
"209 720 LINE",
"54 720 LINE",
"54 445 LINE SMOOTH",
"54 411.169 OFFCURVE",
"80.144 376.9 OFFCURVE",
"109 357 CURVE",
"77.159 337.1 OFFCURVE",
"55 304.821 OFFCURVE",
"55 269 CURVE SMOOTH",
"55 0 LINE"
);
}
);
width = 829;
}
);
},
{
color = 4;
glyphname = Y.alt;
layers = (
{
layerId = "17A5F7C0-AED1-4270-89BA-BFDC1003B8A5";
paths = (
{
closed = 1;
nodes = (
"651 0 LINE SMOOTH",
"717.667 0 OFFCURVE",
"771 53.333 OFFCURVE",
"771 120 CURVE SMOOTH",
"771 720 LINE",
"690 720 LINE",
"690 401 LINE",
"171 401 LINE SMOOTH",
"150.104 401 OFFCURVE",
"132 418.104 OFFCURVE",
"132 439 CURVE SMOOTH",
"132 720 LINE",
"51 720 LINE",
"51 439 LINE SMOOTH",
"51 373.328 OFFCURVE",
"104.333 319 OFFCURVE",
"171 319 CURVE SMOOTH",
"651 319 LINE SMOOTH",
"671.896 319 OFFCURVE",
"690 301.896 OFFCURVE",
"690 281 CURVE SMOOTH",
"690 120 LINE SMOOTH",
"690 99.104 OFFCURVE",
"671.896 81 OFFCURVE",
"651 81 CURVE SMOOTH",
"51 81 LINE",
"51 0 LINE",
"51 0 LINE"
);
}
);
width = 824;
},
{
layerId = "D465923C-ABAE-4975-85A4-08C1BC9DA335";
paths = (
{
closed = 1;
nodes = (
"623 0 LINE SMOOTH",
"703.597 0 OFFCURVE",
"771 66.408 OFFCURVE",
"771 148 CURVE SMOOTH",
"771 720 LINE",
"614 720 LINE",
"614 438 LINE",
"206 438 LINE SMOOTH",
"206 438 OFFCURVE",
"206 438 OFFCURVE",
"206 438 CURVE SMOOTH",
"206 720 LINE",
"51 720 LINE",
"51 430 LINE SMOOTH",
"51 348.408 OFFCURVE",
"117.408 282 OFFCURVE",
"199 282 CURVE SMOOTH",
"614 282 LINE SMOOTH",
"614 282 OFFCURVE",
"614 282 OFFCURVE",
"614 282 CURVE SMOOTH",
"614 156 LINE SMOOTH",
"614 156 OFFCURVE",
"614 156 OFFCURVE",
"614 156 CURVE SMOOTH",
"51 156 LINE",
"51 0 LINE",
"51 0 LINE"
);
}
);
width = 824;
}
);
},
{
color = 4;
glyphname = Z.alt;
layers = (
{
layerId = "17A5F7C0-AED1-4270-89BA-BFDC1003B8A5";
paths = (
{
closed = 1;
nodes = (
"769 0 LINE",
"769 81 LINE",
"169 81 LINE SMOOTH",
"148.104 81 OFFCURVE",
"130 99.104 OFFCURVE",
"130 120 CURVE SMOOTH",
"130 281 LINE SMOOTH",
"130 301.896 OFFCURVE",
"148.104 319 OFFCURVE",
"169 319 CURVE SMOOTH",
"649 319 LINE SMOOTH",
"715.667 319 OFFCURVE",
"769 373.328 OFFCURVE",
"769 439 CURVE SMOOTH",
"769 600 LINE SMOOTH",
"769 666.667 OFFCURVE",
"715.667 720 OFFCURVE",
"649 720 CURVE SMOOTH",
"49 720 LINE",
"49 639 LINE",
"649 639 LINE SMOOTH",
"669.896 639 OFFCURVE",
"687 620.896 OFFCURVE",
"687 600 CURVE SMOOTH",
"687 439 LINE SMOOTH",
"687 418.104 OFFCURVE",
"669.896 401 OFFCURVE",
"649 401 CURVE SMOOTH",
"169 401 LINE SMOOTH",
"102.333 401 OFFCURVE",
"49 346.672 OFFCURVE",
"49 281 CURVE SMOOTH",
"49 120 LINE SMOOTH",
"49 53.333 OFFCURVE",
"102.333 0 OFFCURVE",
"169 0 CURVE"
);
}
);
width = 818;
},
{
background = {
paths = (
{
closed = 1;
nodes = (
"769 156 LINE",
"205 156 LINE SMOOTH",
"205 156 OFFCURVE",
"205 156 OFFCURVE",
"205 156 CURVE SMOOTH",
"205 282 LINE SMOOTH",
"205 282 OFFCURVE",
"205 282 OFFCURVE",
"205 282 CURVE SMOOTH",
"621 282 LINE SMOOTH",
"703 282 OFFCURVE",
"769 348 OFFCURVE",
"769 430 CURVE SMOOTH",
"769 572 LINE SMOOTH",
"769 654 OFFCURVE",
"703 720 OFFCURVE",
"621 720 CURVE SMOOTH",
"49 720 LINE",
"49 564 LINE",
"613 564 LINE SMOOTH",
"613 564 OFFCURVE",
"613 564 OFFCURVE",
"613 564 CURVE SMOOTH",
"613 438 LINE SMOOTH",
"613 438 OFFCURVE",
"613 438 OFFCURVE",
"613 438 CURVE SMOOTH",
"197 438 LINE SMOOTH",
"116 438 OFFCURVE",
"49 372 OFFCURVE",
"49 290 CURVE SMOOTH",
"49 148 LINE SMOOTH",
"49 66 OFFCURVE",
"116 0 OFFCURVE",
"197 0 CURVE SMOOTH",
"769 0 LINE"
);
}
);
};
layerId = "D465923C-ABAE-4975-85A4-08C1BC9DA335";
paths = (
{
closed = 1;
nodes = (
"769 0 LINE",
"769 156 LINE",
"205 156 LINE SMOOTH",
"205 156 OFFCURVE",
"205 156 OFFCURVE",
"205 156 CURVE SMOOTH",
"205 282 LINE SMOOTH",
"205 282 OFFCURVE",
"205 282 OFFCURVE",
"205 282 CURVE SMOOTH",
"621 282 LINE SMOOTH",
"703 282 OFFCURVE",
"769 348 OFFCURVE",
"769 430 CURVE SMOOTH",
"769 572 LINE SMOOTH",
"769 654 OFFCURVE",
"703 720 OFFCURVE",
"621 720 CURVE SMOOTH",
"49 720 LINE",
"49 564 LINE",
"613 564 LINE SMOOTH",
"613 564 OFFCURVE",
"613 564 OFFCURVE",
"613 564 CURVE SMOOTH",
"613 438 LINE SMOOTH",
"613 438 OFFCURVE",
"613 438 OFFCURVE",
"613 438 CURVE SMOOTH",
"197 438 LINE SMOOTH",
"116 438 OFFCURVE",
"49 372 OFFCURVE",
"49 290 CURVE SMOOTH",
"49 148 LINE SMOOTH",
"49 66 OFFCURVE",
"116 0 OFFCURVE",
"197 0 CURVE SMOOTH"
);
}
);
width = 818;
}
);
},
{
color = 4;
glyphname = A.alt2;
layers = (
{
layerId = "17A5F7C0-AED1-4270-89BA-BFDC1003B8A5";
paths = (
{
closed = 1;
nodes = (
"137 0 LINE",
"137 202 LINE",
"499 202 LINE",
"670 0 LINE",
"778 0 LINE",
"778 1 LINE",
"166 721 LINE",
"54 721 LINE",
"54 0 LINE",
"54 0 LINE"
);
},
{
closed = 1;
nodes = (
"137 629 LINE",
"432 285 LINE",
"137 285 LINE",
"137 285 LINE"
);
}
);
width = 774;
},
{
layerId = "D465923C-ABAE-4975-85A4-08C1BC9DA335";
paths = (
{
closed = 1;
nodes = (
"207 0 LINE",
"207 174 LINE",
"457 174 LINE",
"604 0 LINE",
"761 0 LINE",
"761 50 LINE",
"211 720 LINE",
"54 720 LINE",
"54 0 LINE",
"54 0 LINE"
);
},
{
closed = 1;
nodes = (
"207 471 LINE",
"329 327 LINE",
"207 327 LINE",
"207 327 LINE"
);
}
);
width = 774;
}
);
},
{
color = 4;
glyphname = V.alt2;
layers = (
{
layerId = "17A5F7C0-AED1-4270-89BA-BFDC1003B8A5";
paths = (
{
closed = 1;
nodes = (
"716 0 LINE",
"716 720 LINE",
"635 720 LINE",
"635 92 LINE",
"107 720 LINE",
"0 720 LINE",
"0 719 LINE",
"605 0 LINE",
"605 0 LINE"
);
}
);
width = 774;
},
{
layerId = "D465923C-ABAE-4975-85A4-08C1BC9DA335";
paths = (
{
closed = 1;
nodes = (
"720 0 LINE",
"720 720 LINE",
"563 720 LINE",
"563 240 LINE",
"160 720 LINE",
"0 720 LINE",
"0 668 LINE",
"561 0 LINE",
"561 0 LINE"
);
}
);
width = 774;
}
);
},
{
color = 4;
glyphname = W.alt2;
layers = (
{
layerId = "17A5F7C0-AED1-4270-89BA-BFDC1003B8A5";
paths = (
{
closed = 1;
nodes = (
"724 0 LINE",
"724 343 LINE",
"1012 0 LINE",
"1123 0 LINE",
"1123 720 LINE",
"1041 720 LINE",
"1041 93 LINE",
"507 720 LINE",
"401 720 LINE",
"401 719 LINE",
"641 442 LINE",
"641 93 LINE",
"108 720 LINE",
"0 720 LINE",
"0 719 LINE",
"612 0 LINE",
"612 0 LINE"
);
}
);
width = 1168;
},
{
layerId = "D465923C-ABAE-4975-85A4-08C1BC9DA335";
paths = (
{
closed = 1;
nodes = (
"719 0 LINE",
"719 225 LINE",
"909 0 LINE",
"1068 0 LINE",
"1068 720 LINE",
"912 720 LINE",
"912 238 LINE",
"507 720 LINE",
"348 720 LINE",
"348 667 LINE",
"563 413 LINE",
"563 240 LINE",
"159 720 LINE",
"-1 720 LINE",
"-1 668 LINE",
"560 0 LINE",
"560 0 LINE"
);
}
);
width = 1131;
}
);
},
{
color = 4;
glyphname = A.alt3;
layers = (
{
layerId = "17A5F7C0-AED1-4270-89BA-BFDC1003B8A5";
paths = (
{
closed = 1;
nodes = (
"67 0 LINE",
"173 183 LINE",
"637 183 LINE",
"742 0 LINE",
"837 0 LINE",
"452 720 LINE",
"358 720 LINE",
"-28 0 LINE",
"-28 0 LINE"
);
},
{
closed = 1;
nodes = (
"405 644 LINE",
"588 264 LINE",
"220 264 LINE",
"220 264 LINE"
);
}
);
width = 827;
},
{
layerId = "D465923C-ABAE-4975-85A4-08C1BC9DA335";
paths = (
{
closed = 1;
nodes = (
"150 0 LINE",
"244 161 LINE",
"606 161 LINE",
"698 0 LINE",
"876 0 LINE",
"491 720 LINE",
"358 720 LINE",
"-28 0 LINE",
"-28 0 LINE"
);
},
{
closed = 1;
nodes = (
"424 512 LINE",
"519 317 LINE",
"330 317 LINE",
"330 317 LINE"
);
}
);
width = 827;
}
);
},
{
color = 4;
glyphname = V.alt3;
layers = (
{
layerId = "17A5F7C0-AED1-4270-89BA-BFDC1003B8A5";
paths = (
{
closed = 1;
nodes = (
"173 0 LINE",
"773 0 LINE",
"773 720 LINE",
"692 720 LINE",
"692 81 LINE",
"173 81 LINE SMOOTH",
"152.104 81 OFFCURVE",
"134 99.104 OFFCURVE",
"134 120 CURVE SMOOTH",
"134 720 LINE",
"53 720 LINE",
"53 120 LINE SMOOTH",
"53 53.333 OFFCURVE",
"106.333 0 OFFCURVE",
"173 0 CURVE"
);
}
);
width = 827;
},
{
layerId = "D465923C-ABAE-4975-85A4-08C1BC9DA335";
paths = (
{
closed = 1;
nodes = (
"201 0 LINE",
"773 0 LINE",
"773 720 LINE",
"616 720 LINE",
"616 156 LINE",
"208 156 LINE SMOOTH",
"208 156 OFFCURVE",
"208 156 OFFCURVE",
"208 156 CURVE SMOOTH",
"208 720 LINE",
"53 720 LINE",
"53 148 LINE SMOOTH",
"53 66.408 OFFCURVE",
"119.408 0 OFFCURVE",
"201 0 CURVE"
);
}
);
width = 827;
}
);
},
{
color = 4;
glyphname = W.alt3;
layers = (
{
layerId = "17A5F7C0-AED1-4270-89BA-BFDC1003B8A5";
paths = (
{
closed = 1;
nodes = (
"164 0 LINE",
"518 421 LINE",
"872 0 LINE",
"983 0 LINE",
"983 720 LINE",
"901 720 LINE",
"901 92 LINE",
"518 549 LINE",
"135 92 LINE",
"135 720 LINE",
"54 720 LINE",
"54 0 LINE",
"54 0 LINE"
);
}
);
width = 1028;
},
{
layerId = "D465923C-ABAE-4975-85A4-08C1BC9DA335";
paths = (
{
closed = 1;
nodes = (
"213 0 LINE",
"506 349 LINE",
"799 0 LINE",
"958 0 LINE",
"958 720 LINE",
"802 720 LINE",
"802 240 LINE",
"507 591 LINE",
"209 239 LINE",
"209 720 LINE",
"54 720 LINE",
"54 0 LINE",
"54 0 LINE"
);
}
);
width = 1028;
}
);
},
{
color = 4;
glyphname = W.alt4;
layers = (
{
layerId = "17A5F7C0-AED1-4270-89BA-BFDC1003B8A5";
paths = (
{
closed = 1;
nodes = (
"173 0 LINE",
"1116 0 LINE",
"1116 720 LINE",
"1034 720 LINE",
"1034 81 LINE",
"676 81 LINE SMOOTH",
"655.104 81 OFFCURVE",
"638 99.104 OFFCURVE",
"638 120 CURVE SMOOTH",
"638 720 LINE",
"556 720 LINE",
"556 81 LINE",
"173 81 LINE SMOOTH",
"153.1 81 OFFCURVE",
"135 99.104 OFFCURVE",
"135 120 CURVE SMOOTH",
"135 720 LINE",
"53 720 LINE",
"53 120 LINE SMOOTH",
"53 53.333 OFFCURVE",
"107.328 0 OFFCURVE",
"173 0 CURVE"
);
}
);
width = 1155;
},
{
layerId = "D465923C-ABAE-4975-85A4-08C1BC9DA335";
paths = (
{
closed = 1;
nodes = (
"201 0 LINE",
"1075 0 LINE",
"1075 720 LINE",
"919 720 LINE",
"919 156 LINE",
"653 156 LINE SMOOTH",
"653 156 OFFCURVE",
"653 156 OFFCURVE",
"653 156 CURVE SMOOTH",
"653 720 LINE",
"497 720 LINE",
"497 156 LINE",
"208 156 LINE SMOOTH",
"208 156 OFFCURVE",
"208 156 OFFCURVE",
"208 156 CURVE SMOOTH",
"208 720 LINE",
"53 720 LINE",
"53 148 LINE SMOOTH",
"53 66.408 OFFCURVE",
"119.408 0 OFFCURVE",
"201 0 CURVE"
);
}
);
width = 1155;
}
);
},
{
color = 4;
export = 0;
glyphname = Eth;
layers = (
{
components = (
{
name = D;
}
);
layerId = "17A5F7C0-AED1-4270-89BA-BFDC1003B8A5";
paths = (
{
closed = 1;
nodes = (
"239 320 LINE",
"239 400 LINE",
"0 400 LINE",
"0 320 LINE"
);
}
);
width = 834;
},
{
components = (
{
name = D;
}
);
layerId = "D465923C-ABAE-4975-85A4-08C1BC9DA335";
paths = (
{
closed = 1;
nodes = (
"320 300 LINE",
"320 420 LINE",
"0 420 LINE",
"0 300 LINE"
);
}
);
width = 834;
}
);
unicode = 00D0;
},
{
color = 4;
export = 0;
glyphname = Oslash;
layers = (
{
components = (
{
name = O;
}
);
layerId = "17A5F7C0-AED1-4270-89BA-BFDC1003B8A5";
paths = (
{
closed = 1;
nodes = (
"737 629 LINE",
"689 682 LINE",
"79 77 LINE",
"126 24 LINE"
);
},
{
closed = 1;
nodes = (
"101 0 LINE",
"193 0 LINE",
"54 159 LINE",
"54 54 LINE",
"0 0 LINE",
"50 -50 LINE"
);
},
{
closed = 1;
nodes = (
"774 667 LINE",
"828 720 LINE",
"777 770 LINE",
"727 720 LINE",
"603 720 LINE",
"774 554 LINE"
);
}
);
width = 828;
},
{
components = (
{
name = O;
}
);
layerId = "D465923C-ABAE-4975-85A4-08C1BC9DA335";
paths = (
{
closed = 1;
nodes = (
"729 550 LINE",
"631 654 LINE",
"118 174 LINE",
"214 69 LINE"
);
},
{
closed = 1;
nodes = (
"141 1 LINE",
"219 1 LINE",
"54 186 LINE",
"54 113 LINE",
"-24 40 LINE",
"76 -60 LINE"
);
},
{
closed = 1;
nodes = (
"774 594 LINE",
"854 670 LINE",
"753 770 LINE",
"701 720 LINE",
"603 720 LINE",
"774 534 LINE"
);
}
);
width = 828;
}
);
unicode = 00D8;
},
{
color = 4;
export = 0;
glyphname = Thorn;
layers = (
{
layerId = "17A5F7C0-AED1-4270-89BA-BFDC1003B8A5";
paths = (
{
closed = 1;
nodes = (
"138 0 LINE",
"139 140 LINE",
"658 140 LINE SMOOTH",
"724.667 140 OFFCURVE",
"778 193.333 OFFCURVE",
"778 260 CURVE SMOOTH",
"778 460 LINE SMOOTH",
"778 526.667 OFFCURVE",
"724.667 580 OFFCURVE",
"658 580 CURVE SMOOTH",
"139 580 LINE",
"139 720 LINE",
"58 720 LINE",
"58 0 LINE"
);
},
{
closed = 1;
nodes = (
"156.667 221 OFFCURVE",
"139 238.667 OFFCURVE",
"139 260 CURVE SMOOTH",
"139 460 LINE SMOOTH",
"139 481.333 OFFCURVE",
"156.667 499 OFFCURVE",
"178 499 CURVE SMOOTH",
"658 499 LINE SMOOTH",
"679.333 499 OFFCURVE",
"697 481.333 OFFCURVE",
"697 460 CURVE SMOOTH",
"697 260 LINE SMOOTH",
"697 238.667 OFFCURVE",
"679.333 221 OFFCURVE",
"658 221 CURVE SMOOTH",
"178 221 LINE"
);
}
);
width = 834;
},
{
layerId = "D465923C-ABAE-4975-85A4-08C1BC9DA335";
paths = (
{
closed = 1;
nodes = (
"213 0 LINE",
"213 130 LINE",
"629 130 LINE SMOOTH",
"710.333 130 OFFCURVE",
"778 196.667 OFFCURVE",
"778 278 CURVE SMOOTH",
"778 432 LINE SMOOTH",
"778 513.333 OFFCURVE",
"710.333 580 OFFCURVE",
"629 580 CURVE SMOOTH",
"213 580 LINE",
"213 720 LINE",
"58 720 LINE",
"58 0 LINE"
);
},
{
closed = 1;
nodes = (
"213 286 OFFCURVE",
"213 286 OFFCURVE",
"213 286 CURVE SMOOTH",
"213 424 LINE SMOOTH",
"213 424 OFFCURVE",
"213 424 OFFCURVE",
"213 424 CURVE SMOOTH",
"621 424 LINE SMOOTH",
"621 424 OFFCURVE",
"621 424 OFFCURVE",
"621 424 CURVE SMOOTH",
"621 286 LINE SMOOTH",
"621 286 OFFCURVE",
"621 286 OFFCURVE",
"621 286 CURVE SMOOTH",
"213 286 LINE SMOOTH"
);
}
);
width = 834;
}
);
unicode = 00DE;
},
{
color = 4;
glyphname = a;
layers = (
{
anchors = (
{
name = bottom;
position = "{334, 0}";
},
{
name = ogonek;
position = "{619, 0}";
},
{
name = top;
position = "{341, 661}";
}
);
layerId = "17A5F7C0-AED1-4270-89BA-BFDC1003B8A5";
paths = (
{
closed = 1;
nodes = (
"173 0 LINE",
"643 0 LINE",
"643 459 LINE SMOOTH",
"643 525.667 OFFCURVE",
"589 580 OFFCURVE",
"521 580 CURVE SMOOTH",
"52 580 LINE",
"52 498 LINE",
"521 498 LINE SMOOTH",
"542.333 498 OFFCURVE",
"560 480.333 OFFCURVE",
"560 459 CURVE SMOOTH",
"560 331 LINE",
"52 331 LINE",
"52 121 LINE SMOOTH",
"52 54.333 OFFCURVE",
"106.333 0 OFFCURVE",
"173 0 CURVE"
);
},
{
closed = 1;
nodes = (
"151.667 82 OFFCURVE",
"134 99.667 OFFCURVE",
"134 121 CURVE SMOOTH",
"134 249 LINE",
"560 249 LINE",
"560 82 LINE",
"173 82 LINE",
"173 82 LINE"
);
}
);
width = 694;
},
{
anchors = (
{
name = bottom;
position = "{364, 0}";
},
{
name = ogonek;
position = "{619, 0}";
},
{
name = top;
position = "{367, 580}";
}
);
layerId = "D465923C-ABAE-4975-85A4-08C1BC9DA335";
paths = (
{
closed = 1;
nodes = (
"197 0 LINE",
"640 0 LINE",
"640 435 LINE SMOOTH",
"640 513.667 OFFCURVE",
"575 580 OFFCURVE",
"495 580 CURVE SMOOTH",
"52 580 LINE",
"52 427 LINE",
"454 427 LINE SMOOTH",
"476 427 OFFCURVE",
"487 427 OFFCURVE",
"487 427 CURVE",
"487 427 OFFCURVE",
"487 416 OFFCURVE",
"487 394 CURVE SMOOTH",
"487 367 LINE",
"52 367 LINE",
"52 145 LINE SMOOTH",
"52 66.333 OFFCURVE",
"117 0 OFFCURVE",
"197 0 CURVE"
);
},
{
closed = 1;
nodes = (
"216 153 OFFCURVE",
"205 153 OFFCURVE",
"205 153 CURVE",
"205 153 OFFCURVE",
"205 164 OFFCURVE",
"205 186 CURVE SMOOTH",
"205 233 LINE",
"487 233 LINE",
"487 153 LINE",
"238 153 LINE",
"238 153 LINE"
);
}
);
width = 694;
}
);
unicode = 0061;
},
{
color = 4;
glyphname = aacute;
layers = (
{
layerId = "17A5F7C0-AED1-4270-89BA-BFDC1003B8A5";
paths = (
{
closed = 1;
nodes = (
"173 0 LINE",
"643 0 LINE",
"643 459 LINE SMOOTH",
"643 525.667 OFFCURVE",
"589 580 OFFCURVE",
"521 580 CURVE SMOOTH",
"52 580 LINE",
"52 498 LINE",
"521 498 LINE SMOOTH",
"542.333 498 OFFCURVE",
"560 480.333 OFFCURVE",
"560 459 CURVE SMOOTH",
"560 331 LINE",
"52 331 LINE",
"52 121 LINE SMOOTH",
"52 54.333 OFFCURVE",
"106.333 0 OFFCURVE",
"173 0 CURVE"
);
},
{
closed = 1;
nodes = (
"151.667 82 OFFCURVE",
"134 99.667 OFFCURVE",
"134 121 CURVE SMOOTH",
"134 249 LINE",
"560 249 LINE",
"560 82 LINE",
"173 82 LINE",
"173 82 LINE"
);
},
{
closed = 1;
nodes = (
"368 764 LINE",
"402 903 LINE",
"323 903 LINE",
"288 764 LINE",
"288 764 LINE"
);
}
);
width = 725;
},
{
layerId = "D465923C-ABAE-4975-85A4-08C1BC9DA335";
paths = (
{
closed = 1;
nodes = (
"197 0 LINE",
"640 0 LINE",
"640 435 LINE SMOOTH",
"640 513.667 OFFCURVE",
"575 580 OFFCURVE",
"495 580 CURVE SMOOTH",
"52 580 LINE",
"52 427 LINE",
"454 427 LINE SMOOTH",
"476 427 OFFCURVE",
"487 427 OFFCURVE",
"487 427 CURVE",
"487 427 OFFCURVE",
"487 416 OFFCURVE",
"487 394 CURVE SMOOTH",
"487 367 LINE",
"52 367 LINE",
"52 145 LINE SMOOTH",
"52 66.333 OFFCURVE",
"117 0 OFFCURVE",
"197 0 CURVE"
);
},
{
closed = 1;
nodes = (
"216 153 OFFCURVE",
"205 153 OFFCURVE",
"205 153 CURVE",
"205 153 OFFCURVE",
"205 164 OFFCURVE",
"205 186 CURVE SMOOTH",
"205 233 LINE",
"487 233 LINE",
"487 153 LINE",
"238 153 LINE",
"238 153 LINE"
);
},
{
closed = 1;
nodes = (
"434 640 LINE",
"488 843 LINE",
"331 843 LINE",
"277 640 LINE",
"277 640 LINE"
);
}
);
width = 725;
}
);
unicode = 00E1;
},
{
color = 4;
glyphname = acircumflex;
layers = (
{
components = (
{
alignment = -1;
name = a;
}
);
layerId = "17A5F7C0-AED1-4270-89BA-BFDC1003B8A5";
paths = (
{
closed = 1;
nodes = (
"281 763 LINE",
"341 848 LINE",
"399 763 LINE",
"441 763 LINE",
"370 880 LINE",
"311 880 LINE",
"240 763 LINE",
"240 763 LINE"
);
}
);
width = 725;
},
{
components = (
{
alignment = -1;
name = a;
}
);
layerId = "D465923C-ABAE-4975-85A4-08C1BC9DA335";
paths = (
{
closed = 1;
nodes = (
"343 638 LINE",
"368 682 LINE",
"396 638 LINE",
"530 638 LINE",
"420 822 LINE",
"320 822 LINE",
"210 638 LINE",
"210 638 LINE"
);
}
);
width = 725;
}
);
unicode = 00E2;
},
{
color = 4;
glyphname = adieresis;
layers = (
{
components = (
{
name = a;
}
);
layerId = "17A5F7C0-AED1-4270-89BA-BFDC1003B8A5";
paths = (
{
closed = 1;
nodes = (
"487 763 LINE",
"487 845 LINE",
"404 845 LINE",
"404 763 LINE",
"404 763 LINE"
);
},
{
closed = 1;
nodes = (
"306 763 LINE",
"306 845 LINE",
"223 845 LINE",
"223 763 LINE",
"223 763 LINE"
);
}
);
width = 725;
},
{
components = (
{
name = a;
}
);
layerId = "D465923C-ABAE-4975-85A4-08C1BC9DA335";
paths = (
{
closed = 1;
nodes = (
"540 638 LINE",
"540 792 LINE",
"386 792 LINE",
"386 638 LINE",
"386 638 LINE"
);
},
{
closed = 1;
nodes = (
"326 638 LINE",
"326 792 LINE",
"173 792 LINE",
"173 638 LINE",
"173 638 LINE"
);
}
);
width = 725;
}
);
unicode = 00E4;
},
{
color = 4;
glyphname = agrave;
layers = (
{
components = (
{
name = a;
}
);
layerId = "17A5F7C0-AED1-4270-89BA-BFDC1003B8A5";
paths = (
{
closed = 1;
nodes = (
"403 763 LINE",
"369 902 LINE",
"288 902 LINE",
"323 763 LINE",
"323 763 LINE"
);
}
);
width = 725;
},
{
components = (
{
name = a;
}
);
layerId = "D465923C-ABAE-4975-85A4-08C1BC9DA335";
paths = (
{
closed = 1;
nodes = (
"466 638 LINE",
"415 841 LINE",
"258 841 LINE",
"309 638 LINE",
"309 638 LINE"
);
}
);
width = 725;
}
);
unicode = 00E0;
},
{
color = 4;
glyphname = aring;
layers = (
{
components = (
{
name = a;
}
);
layerId = "17A5F7C0-AED1-4270-89BA-BFDC1003B8A5";
paths = (
{
closed = 1;
nodes = (
"334 718 LINE",
"390 718 LINE SMOOTH",
"419.333 718 OFFCURVE",
"444 741.667 OFFCURVE",
"444 771 CURVE SMOOTH",
"444 825 LINE SMOOTH",
"444 854.333 OFFCURVE",
"419.333 878 OFFCURVE",
"390 878 CURVE SMOOTH",
"334 878 LINE SMOOTH",
"304.667 878 OFFCURVE",
"280 854.333 OFFCURVE",
"280 825 CURVE SMOOTH",
"280 771 LINE SMOOTH",
"280 741.667 OFFCURVE",
"304.667 718 OFFCURVE",
"334 718 CURVE"
);
},
{
closed = 1;
nodes = (
"323.667 758 OFFCURVE",
"320 762.667 OFFCURVE",
"320 768 CURVE SMOOTH",
"320 828 LINE SMOOTH",
"320 833.333 OFFCURVE",
"323.667 838 OFFCURVE",
"329 838 CURVE SMOOTH",
"395 838 LINE SMOOTH",
"400.333 838 OFFCURVE",
"404 833.333 OFFCURVE",
"404 828 CURVE SMOOTH",
"404 768 LINE SMOOTH",
"404 762.667 OFFCURVE",
"400.333 758 OFFCURVE",
"395 758 CURVE SMOOTH",
"329 758 LINE",
"329 758 LINE"
);
}
);
width = 725;
},
{
components = (
{
name = a;
}
);
layerId = "D465923C-ABAE-4975-85A4-08C1BC9DA335";
paths = (
{
closed = 1;
nodes = (
"281 638 LINE",
"332 638 LINE SMOOTH",
"373.333 638 OFFCURVE",
"408 672.667 OFFCURVE",
"408 714 CURVE SMOOTH",
"408 763 LINE SMOOTH",
"408 804.333 OFFCURVE",
"373.333 839 OFFCURVE",
"332 839 CURVE SMOOTH",
"281 839 LINE SMOOTH",
"239.667 839 OFFCURVE",
"204 804.333 OFFCURVE",
"204 763 CURVE SMOOTH",
"204 714 LINE SMOOTH",
"204 672.667 OFFCURVE",
"239.667 638 OFFCURVE",
"281 638 CURVE"
);
},
{
closed = 1;
nodes = (
"286.333 707 OFFCURVE",
"281 707 OFFCURVE",
"281 707 CURVE",
"281 707 OFFCURVE",
"281 712.333 OFFCURVE",
"281 723 CURVE SMOOTH",
"281 745 LINE SMOOTH",
"281 755.667 OFFCURVE",
"281 761 OFFCURVE",
"281 761 CURVE",
"281 761 OFFCURVE",
"286.333 761 OFFCURVE",
"297 761 CURVE SMOOTH",
"316 761 LINE SMOOTH",
"326 761 OFFCURVE",
"331 761 OFFCURVE",
"331 761 CURVE",
"331 761 OFFCURVE",
"331 755.667 OFFCURVE",
"331 745 CURVE SMOOTH",
"331 723 LINE SMOOTH",
"331 712.333 OFFCURVE",
"331 707 OFFCURVE",
"331 707 CURVE",
"331 707 OFFCURVE",
"326 707 OFFCURVE",
"316 707 CURVE SMOOTH",
"297 707 LINE",
"297 707 LINE"
);
}
);
width = 725;
}
);
unicode = 00E5;
},
{
color = 4;
glyphname = atilde;
layers = (
{
components = (
{
alignment = -1;
name = a;
}
);
layerId = "17A5F7C0-AED1-4270-89BA-BFDC1003B8A5";
paths = (
{
closed = 1;
nodes = (
"459 766 LINE",
"477.667 766 OFFCURVE",
"499.667 770.667 OFFCURVE",
"525 780 CURVE",
"525 831 LINE",
"501 819.667 OFFCURVE",
"479 814 OFFCURVE",
"459 814 CURVE SMOOTH",
"439.667 814 OFFCURVE",
"406.333 826 OFFCURVE",
"359 850 CURVE SMOOTH",
"311.667 874 OFFCURVE",
"274.667 886 OFFCURVE",
"248 886 CURVE SMOOTH",
"224.667 886 OFFCURVE",
"204 883 OFFCURVE",
"186 877 CURVE",
"186 830 LINE",
"201.333 835.333 OFFCURVE",
"222 838 OFFCURVE",
"248 838 CURVE SMOOTH",
"276 838 OFFCURVE",
"312.333 826 OFFCURVE",
"357 802 CURVE SMOOTH",
"401.667 778 OFFCURVE",
"435.667 766 OFFCURVE",
"459 766 CURVE"
);
}
);
width = 725;
},
{
components = (
{
alignment = -1;
name = a;
}
);
layerId = "D465923C-ABAE-4975-85A4-08C1BC9DA335";
paths = (
{
closed = 1;
nodes = (
"410 641 LINE",
"436 641 OFFCURVE",
"469.667 649.667 OFFCURVE",
"511 667 CURVE",
"511 793 LINE",
"475 768.333 OFFCURVE",
"443 756 OFFCURVE",
"415 756 CURVE SMOOTH",
"390.333 756 OFFCURVE",
"359.667 766.333 OFFCURVE",
"323 787 CURVE SMOOTH",
"286.333 807.667 OFFCURVE",
"255.667 818 OFFCURVE",
"231 818 CURVE SMOOTH",
"205.667 818 OFFCURVE",
"174 809 OFFCURVE",
"136 791 CURVE",
"136 667 LINE",
"164 691 OFFCURVE",
"192 703 OFFCURVE",
"220 703 CURVE SMOOTH",
"248.667 703 OFFCURVE",
"281.667 692.667 OFFCURVE",
"319 672 CURVE SMOOTH",
"356.333 651.333 OFFCURVE",
"386.667 641 OFFCURVE",
"410 641 CURVE"
);
}
);
width = 725;
}
);
unicode = 00E3;
},
{
color = 4;
glyphname = ae;
layers = (
{
layerId = "17A5F7C0-AED1-4270-89BA-BFDC1003B8A5";
paths = (
{
closed = 1;
nodes = (
"174 0 LINE",
"1151 0 LINE",
"1151 82 LINE",
"682 82 LINE SMOOTH",
"662.1 82 OFFCURVE",
"644.991 97.1 OFFCURVE",
"643 117 CURVE",
"643 249 LINE",
"1151 249 LINE",
"1151 459 LINE SMOOTH",
"1151 525.667 OFFCURVE",
"1097.661 580 OFFCURVE",
"1030 580 CURVE SMOOTH",
"53 580 LINE",
"53 498 LINE",
"522 498 LINE SMOOTH",
"542.896 498 OFFCURVE",
"561 479.896 OFFCURVE",
"561 459 CURVE SMOOTH",
"561 331 LINE",
"53 331 LINE",
"53 121 LINE SMOOTH",
"53 54.333 OFFCURVE",
"106.339 0 OFFCURVE",
"174 0 CURVE"
);
},
{
closed = 1;
nodes = (
"153.104 82 OFFCURVE",
"135 100.104 OFFCURVE",
"135 121 CURVE SMOOTH",
"135 249 LINE",
"561 249 LINE",
"561 82 LINE",
"174 82 LINE",
"174 82 LINE"
);
},
{
closed = 1;
nodes = (
"643 459 LINE SMOOTH",
"643 479.896 OFFCURVE",
"661.104 498 OFFCURVE",
"682 498 CURVE SMOOTH",
"1030 498 LINE SMOOTH",
"1050.896 498 OFFCURVE",
"1069 479.896 OFFCURVE",
"1069 459 CURVE SMOOTH",
"1069 331 LINE",
"643 331 LINE",
"643 331 LINE"
);
}
);
width = 1178;
},
{
layerId = "D465923C-ABAE-4975-85A4-08C1BC9DA335";
paths = (
{
closed = 1;
nodes = (
"198 0 LINE",
"1077 0 LINE",
"1077 153 LINE",
"675 153 LINE SMOOTH",
"653 153 OFFCURVE",
"642 153 OFFCURVE",
"642 153 CURVE",
"642 153 OFFCURVE",
"642 164 OFFCURVE",
"642 186 CURVE SMOOTH",
"642 213 LINE",
"1077 213 LINE",
"1077 435 LINE SMOOTH",
"1077 513.667 OFFCURVE",
"1012.601 580 OFFCURVE",
"933 580 CURVE SMOOTH",
"53 580 LINE",
"53 427 LINE",
"456 427 LINE SMOOTH",
"478 427 OFFCURVE",
"489 427 OFFCURVE",
"489 427 CURVE",
"489 427 OFFCURVE",
"489 416 OFFCURVE",
"489 394 CURVE SMOOTH",
"489 367 LINE",
"53 367 LINE",
"53 145 LINE SMOOTH",
"53 66.393 OFFCURVE",
"118.399 0 OFFCURVE",
"198 0 CURVE"
);
},
{
closed = 1;
nodes = (
"217 153 OFFCURVE",
"206 153 OFFCURVE",
"206 153 CURVE",
"206 153 OFFCURVE",
"206 164 OFFCURVE",
"206 186 CURVE SMOOTH",
"206 233 LINE",
"489 233 LINE",
"489 153 LINE",
"239 153 LINE",
"239 153 LINE"
);
},
{
closed = 1;
nodes = (
"642 394 LINE SMOOTH",
"642 416 OFFCURVE",
"642 427 OFFCURVE",
"642 427 CURVE",
"642 427 OFFCURVE",
"653 427 OFFCURVE",
"675 427 CURVE SMOOTH",
"891 427 LINE SMOOTH",
"913 427 OFFCURVE",
"924 427 OFFCURVE",
"924 427 CURVE",
"924 427 OFFCURVE",
"924 416 OFFCURVE",
"924 394 CURVE SMOOTH",
"924 347 LINE",
"642 347 LINE",
"642 347 LINE"
);
}
);
width = 1178;
}
);
unicode = 00E6;
},
{
color = 4;
glyphname = b;
layers = (
{
layerId = "17A5F7C0-AED1-4270-89BA-BFDC1003B8A5";
paths = (
{
closed = 1;
nodes = (
"524 0 LINE SMOOTH",
"590.667 0 OFFCURVE",
"645 54.333 OFFCURVE",
"645 121 CURVE SMOOTH",
"645 459 LINE SMOOTH",
"645 525.667 OFFCURVE",
"590.667 580 OFFCURVE",
"524 580 CURVE SMOOTH",
"136 580 LINE",
"136 770 LINE",
"54 770 LINE",
"54 0 LINE",
"54 0 LINE"
);
},
{
closed = 1;
nodes = (
"154.667 82 OFFCURVE",
"136 99.667 OFFCURVE",
"136 121 CURVE SMOOTH",
"136 459 LINE SMOOTH",
"136 480.333 OFFCURVE",
"154.667 498 OFFCURVE",
"176 498 CURVE SMOOTH",
"524 498 LINE SMOOTH",
"545.333 498 OFFCURVE",
"563 480.333 OFFCURVE",
"563 459 CURVE SMOOTH",
"563 121 LINE SMOOTH",
"563 99.667 OFFCURVE",
"545.333 82 OFFCURVE",
"524 82 CURVE SMOOTH",
"176 82 LINE",
"176 82 LINE"
);
}
);
width = 667;
},
{
layerId = "D465923C-ABAE-4975-85A4-08C1BC9DA335";
paths = (
{
closed = 1;
nodes = (
"497 0 LINE SMOOTH",
"577 0 OFFCURVE",
"642 66.333 OFFCURVE",
"642 145 CURVE SMOOTH",
"642 435 LINE SMOOTH",
"642 513.667 OFFCURVE",
"577 580 OFFCURVE",
"497 580 CURVE SMOOTH",
"207 580 LINE",
"207 770 LINE",
"54 770 LINE",
"54 0 LINE",
"54 0 LINE"
);
},
{
closed = 1;
nodes = (
"218 153 OFFCURVE",
"207 153 OFFCURVE",
"207 153 CURVE",
"207 153 OFFCURVE",
"207 164 OFFCURVE",
"207 186 CURVE SMOOTH",
"207 394 LINE SMOOTH",
"207 416 OFFCURVE",
"207 427 OFFCURVE",
"207 427 CURVE",
"207 427 OFFCURVE",
"218 427 OFFCURVE",
"240 427 CURVE SMOOTH",
"456 427 LINE SMOOTH",
"478 427 OFFCURVE",
"489 427 OFFCURVE",
"489 427 CURVE",
"489 427 OFFCURVE",
"489 416 OFFCURVE",
"489 394 CURVE SMOOTH",
"489 186 LINE SMOOTH",
"489 164 OFFCURVE",
"489 153 OFFCURVE",
"489 153 CURVE",
"489 153 OFFCURVE",
"478 153 OFFCURVE",
"456 153 CURVE SMOOTH",
"240 153 LINE",
"240 153 LINE"
);
}
);
width = 667;
}
);
unicode = 0062;
},
{
color = 4;
glyphname = c;
layers = (
{
layerId = "17A5F7C0-AED1-4270-89BA-BFDC1003B8A5";
paths = (
{
closed = 1;
nodes = (
"172 0 LINE",
"642 0 LINE",
"642 82 LINE",
"172 82 LINE SMOOTH",
"151.104 82 OFFCURVE",
"133 100.104 OFFCURVE",
"133 121 CURVE SMOOTH",
"133 459 LINE SMOOTH",
"133 479.896 OFFCURVE",
"151.104 498 OFFCURVE",
"172 498 CURVE SMOOTH",
"640 498 LINE",
"640 580 LINE",
"172 580 LINE SMOOTH",
"105.333 580 OFFCURVE",
"51 525.667 OFFCURVE",
"51 459 CURVE SMOOTH",
"51 121 LINE SMOOTH",
"51 54.333 OFFCURVE",
"105.333 0 OFFCURVE",
"172 0 CURVE"
);
}
);
width = 695;
},
{
layerId = "D465923C-ABAE-4975-85A4-08C1BC9DA335";
paths = (
{
closed = 1;
nodes = (
"196 0 LINE",
"639 0 LINE",
"639 153 LINE",
"237 153 LINE SMOOTH",
"215 153 OFFCURVE",
"204 153 OFFCURVE",
"204 153 CURVE",
"204 153 OFFCURVE",
"204 164 OFFCURVE",
"204 186 CURVE SMOOTH",
"204 394 LINE SMOOTH",
"204 416 OFFCURVE",
"204 427 OFFCURVE",
"204 427 CURVE",
"204 427 OFFCURVE",
"215 427 OFFCURVE",
"237 427 CURVE SMOOTH",
"638 427 LINE",
"638 580 LINE",
"196 580 LINE SMOOTH",
"117.393 580 OFFCURVE",
"51 513.607 OFFCURVE",
"51 435 CURVE SMOOTH",
"51 145 LINE SMOOTH",
"51 66.393 OFFCURVE",
"117.393 0 OFFCURVE",
"196 0 CURVE"
);
}
);
width = 695;
}
);
unicode = 0063;
},
{
color = 4;
glyphname = ccedilla;
layers = (
{
layerId = "17A5F7C0-AED1-4270-89BA-BFDC1003B8A5";
paths = (
{
closed = 1;
nodes = (
"352 -139 LINE",
"386 0 LINE",
"642 0 LINE",
"642 82 LINE",
"172 82 LINE SMOOTH",
"151.104 82 OFFCURVE",
"133 100.104 OFFCURVE",
"133 121 CURVE SMOOTH",
"133 459 LINE SMOOTH",
"133 479.896 OFFCURVE",
"151.104 498 OFFCURVE",
"172 498 CURVE SMOOTH",
"640 498 LINE",
"640 580 LINE",
"172 580 LINE SMOOTH",
"105.333 580 OFFCURVE",
"51 525.667 OFFCURVE",
"51 459 CURVE SMOOTH",
"51 121 LINE SMOOTH",
"51 54.333 OFFCURVE",
"105.333 0 OFFCURVE",
"172 0 CURVE SMOOTH",
"307 0 LINE",
"272 -139 LINE",
"272 -139 LINE"
);
}
);
width = 693;
},
{
layerId = "D465923C-ABAE-4975-85A4-08C1BC9DA335";
paths = (
{
closed = 1;
nodes = (
"371 -128 LINE",
"410 0 LINE",
"639 0 LINE",
"639 153 LINE",
"237 153 LINE SMOOTH",
"215 153 OFFCURVE",
"204 153 OFFCURVE",
"204 153 CURVE",
"204 153 OFFCURVE",
"204 164 OFFCURVE",
"204 186 CURVE SMOOTH",
"204 394 LINE SMOOTH",
"204 416 OFFCURVE",
"204 427 OFFCURVE",
"204 427 CURVE",
"204 427 OFFCURVE",
"215 427 OFFCURVE",
"237 427 CURVE SMOOTH",
"638 427 LINE",
"638 580 LINE",
"196 580 LINE SMOOTH",
"117.393 580 OFFCURVE",
"51 513.607 OFFCURVE",
"51 435 CURVE SMOOTH",
"51 145 LINE SMOOTH",
"51 66.393 OFFCURVE",
"117.393 0 OFFCURVE",
"196 0 CURVE SMOOTH",
"313 0 LINE",
"274 -128 LINE",
"274 -128 LINE"
);
}
);
width = 693;
}
);
unicode = 00E7;
},
{
color = 4;
glyphname = d;
layers = (
{
layerId = "17A5F7C0-AED1-4270-89BA-BFDC1003B8A5";
paths = (
{
closed = 1;
nodes = (
"145 0 LINE",
"614 0 LINE",
"614 770 LINE",
"532 770 LINE",
"532 580 LINE",
"145 580 LINE SMOOTH",
"77.339 580 OFFCURVE",
"23 525.667 OFFCURVE",
"23 459 CURVE SMOOTH",
"23 121 LINE SMOOTH",
"23 54.333 OFFCURVE",
"77.339 0 OFFCURVE",
"145 0 CURVE"
);
},
{
closed = 1;
nodes = (
"124.104 82 OFFCURVE",
"106 100.104 OFFCURVE",
"106 121 CURVE SMOOTH",
"106 459 LINE SMOOTH",
"106 479.896 OFFCURVE",
"124.104 498 OFFCURVE",
"145 498 CURVE SMOOTH",
"493 498 LINE SMOOTH",
"513.896 498 OFFCURVE",
"532 479.896 OFFCURVE",
"532 459 CURVE SMOOTH",
"532 121 LINE SMOOTH",
"532 100.104 OFFCURVE",
"513.896 82 OFFCURVE",
"493 82 CURVE SMOOTH",
"145 82 LINE",
"145 82 LINE"
);
}
);
width = 667;
},
{
layerId = "D465923C-ABAE-4975-85A4-08C1BC9DA335";
paths = (
{
closed = 1;
nodes = (
"168 0 LINE",
"612 0 LINE",
"612 770 LINE",
"459 770 LINE",
"459 580 LINE",
"168 580 LINE SMOOTH",
"88.399 580 OFFCURVE",
"23 513.607 OFFCURVE",
"23 435 CURVE SMOOTH",
"23 145 LINE SMOOTH",
"23 66.393 OFFCURVE",
"88.399 0 OFFCURVE",
"168 0 CURVE"
);
},
{
closed = 1;
nodes = (
"188 153 OFFCURVE",
"177 153 OFFCURVE",
"177 153 CURVE",
"177 153 OFFCURVE",
"177 164 OFFCURVE",
"177 186 CURVE SMOOTH",
"177 394 LINE SMOOTH",
"177 416 OFFCURVE",
"177 427 OFFCURVE",
"177 427 CURVE",
"177 427 OFFCURVE",
"188 427 OFFCURVE",
"210 427 CURVE SMOOTH",
"426 427 LINE SMOOTH",
"448 427 OFFCURVE",
"459 427 OFFCURVE",
"459 427 CURVE",
"459 427 OFFCURVE",
"459 416 OFFCURVE",
"459 394 CURVE SMOOTH",
"459 186 LINE SMOOTH",
"459 164 OFFCURVE",
"459 153 OFFCURVE",
"459 153 CURVE",
"459 153 OFFCURVE",
"448 153 OFFCURVE",
"426 153 CURVE SMOOTH",
"210 153 LINE",
"210 153 LINE"
);
}
);
width = 667;
}
);
unicode = 0064;
},
{
color = 4;
glyphname = e;
layers = (
{
anchors = (
{
name = bottom;
position = "{347, 0}";
},
{
name = top;
position = "{347, 580}";
}
);
layerId = "17A5F7C0-AED1-4270-89BA-BFDC1003B8A5";
paths = (
{
closed = 1;
nodes = (
"172 0 LINE",
"642 0 LINE",
"642 82 LINE",
"172 82 LINE SMOOTH",
"150.667 82 OFFCURVE",
"133 99.667 OFFCURVE",
"133 121 CURVE SMOOTH",
"133 249 LINE",
"642 249 LINE",
"642 459 LINE SMOOTH",
"642 525.667 OFFCURVE",
"588 580 OFFCURVE",
"520 580 CURVE SMOOTH",
"172 580 LINE SMOOTH",
"105.333 580 OFFCURVE",
"51 525.667 OFFCURVE",
"51 459 CURVE SMOOTH",
"51 121 LINE SMOOTH",
"51 54.333 OFFCURVE",
"105.333 0 OFFCURVE",
"172 0 CURVE"
);
},
{
closed = 1;
nodes = (
"133 459 LINE SMOOTH",
"133 480.333 OFFCURVE",
"150.667 498 OFFCURVE",
"172 498 CURVE SMOOTH",
"520 498 LINE SMOOTH",
"541.333 498 OFFCURVE",
"559 480.333 OFFCURVE",
"559 459 CURVE SMOOTH",
"559 331 LINE",
"133 331 LINE",
"133 331 LINE"
);
}
);
width = 692;
},
{
anchors = (
{
name = bottom;
position = "{345, 0}";
},
{
name = top;
position = "{345, 580}";
}
);
layerId = "D465923C-ABAE-4975-85A4-08C1BC9DA335";
paths = (
{
closed = 1;
nodes = (
"196 0 LINE",
"639 0 LINE",
"639 153 LINE",
"237 153 LINE SMOOTH",
"215 153 OFFCURVE",
"204 153 OFFCURVE",
"204 153 CURVE",
"204 153 OFFCURVE",
"204 164 OFFCURVE",
"204 186 CURVE SMOOTH",
"204 213 LINE",
"639 213 LINE",
"639 435 LINE SMOOTH",
"639 513.667 OFFCURVE",
"574 580 OFFCURVE",
"494 580 CURVE SMOOTH",
"196 580 LINE SMOOTH",
"117.333 580 OFFCURVE",
"51 513.667 OFFCURVE",
"51 435 CURVE SMOOTH",
"51 145 LINE SMOOTH",
"51 66.333 OFFCURVE",
"117.333 0 OFFCURVE",
"196 0 CURVE"
);
},
{
closed = 1;
nodes = (
"204 394 LINE SMOOTH",
"204 416 OFFCURVE",
"204 427 OFFCURVE",
"204 427 CURVE",
"204 427 OFFCURVE",
"215 427 OFFCURVE",
"237 427 CURVE SMOOTH",
"453 427 LINE SMOOTH",
"475 427 OFFCURVE",
"486 427 OFFCURVE",
"486 427 CURVE",
"486 427 OFFCURVE",
"486 416 OFFCURVE",
"486 394 CURVE SMOOTH",
"486 347 LINE",
"204 347 LINE",
"204 347 LINE"
);
}
);
width = 692;
}
);
unicode = 0065;
},
{
color = 4;
glyphname = eacute;
layers = (
{
components = (
{
alignment = -1;
name = e;
}
);
layerId = "17A5F7C0-AED1-4270-89BA-BFDC1003B8A5";
paths = (
{
closed = 1;
nodes = (
"325 764 LINE",
"359 903 LINE",
"280 903 LINE",
"245 764 LINE",
"245 764 LINE"
);
}
);
width = 638;
},
{
components = (
{
name = e;
}
);
layerId = "D465923C-ABAE-4975-85A4-08C1BC9DA335";
paths = (
{
closed = 1;
nodes = (
"422 639 LINE",
"473 842 LINE",
"316 842 LINE",
"265 639 LINE",
"265 639 LINE"
);
}
);
width = 638;
}
);
unicode = 00E9;
},
{
color = 4;
glyphname = ecircumflex;
layers = (
{
components = (
{
alignment = -1;
name = e;
}
);
layerId = "17A5F7C0-AED1-4270-89BA-BFDC1003B8A5";
paths = (
{
closed = 1;
nodes = (
"247 763 LINE",
"307 848 LINE",
"365 763 LINE",
"407 763 LINE",
"336 880 LINE",
"277 880 LINE",
"206 763 LINE",
"206 763 LINE"
);
}
);
width = 638;
},
{
components = (
{
alignment = -1;
name = e;
}
);
layerId = "D465923C-ABAE-4975-85A4-08C1BC9DA335";
paths = (
{
closed = 1;
nodes = (
"330 638 LINE",
"355 682 LINE",
"383 638 LINE",
"517 638 LINE",
"407 822 LINE",
"307 822 LINE",
"197 638 LINE",
"197 638 LINE"
);
}
);
width = 638;
}
);
unicode = 00EA;
},
{
color = 4;
glyphname = edieresis;
layers = (
{
components = (
{
alignment = -1;
name = e;
}
);
layerId = "17A5F7C0-AED1-4270-89BA-BFDC1003B8A5";
paths = (
{
closed = 1;
nodes = (
"469 763 LINE",
"469 845 LINE",
"387 845 LINE",
"387 763 LINE",
"387 763 LINE"
);
},
{
closed = 1;
nodes = (
"290 763 LINE",
"290 845 LINE",
"207 845 LINE",
"207 763 LINE",
"207 763 LINE"
);
}
);
width = 638;
},
{
components = (
{
alignment = -1;
name = e;
}
);
layerId = "D465923C-ABAE-4975-85A4-08C1BC9DA335";
paths = (
{
closed = 1;
nodes = (
"547 638 LINE",
"547 792 LINE",
"393 792 LINE",
"393 638 LINE",
"393 638 LINE"
);
},
{
closed = 1;
nodes = (
"333 638 LINE",
"333 792 LINE",
"180 792 LINE",
"180 638 LINE",
"180 638 LINE"
);
}
);
width = 638;
}
);
unicode = 00EB;
},
{
color = 4;
glyphname = egrave;
layers = (
{
components = (
{
alignment = -1;
name = e;
}
);
layerId = "17A5F7C0-AED1-4270-89BA-BFDC1003B8A5";
paths = (
{
closed = 1;
nodes = (
"360 763 LINE",
"326 902 LINE",
"245 902 LINE",
"280 763 LINE",
"280 763 LINE"
);
}
);
width = 638;
},
{
components = (
{
alignment = -1;
name = e;
}
);
layerId = "D465923C-ABAE-4975-85A4-08C1BC9DA335";
paths = (
{
closed = 1;
nodes = (
"453 638 LINE",
"402 841 LINE",
"245 841 LINE",
"296 638 LINE",
"296 638 LINE"
);
}
);
width = 638;
}
);
unicode = 00E8;
},
{
color = 4;
glyphname = f;
layers = (
{
layerId = "17A5F7C0-AED1-4270-89BA-BFDC1003B8A5";
paths = (
{
closed = 1;
nodes = (
"135 0 LINE",
"135 498 LINE",
"386 498 LINE",
"386 580 LINE",
"135 580 LINE",
"135 649 LINE SMOOTH",
"135 670.333 OFFCURVE",
"152.667 688 OFFCURVE",
"174 688 CURVE SMOOTH",
"386 688 LINE",
"386 770 LINE",
"174 770 LINE SMOOTH",
"106 770 OFFCURVE",
"53 717 OFFCURVE",
"53 649 CURVE SMOOTH",
"53 0 LINE",
"53 0 LINE"
);
}
);
width = 407;
},
{
layerId = "D465923C-ABAE-4975-85A4-08C1BC9DA335";
paths = (
{
closed = 1;
nodes = (
"206 0 LINE",
"206 427 LINE",
"421 427 LINE",
"421 580 LINE",
"206 580 LINE",
"206 584 LINE SMOOTH",
"206 605.333 OFFCURVE",
"206 616 OFFCURVE",
"206 616 CURVE",
"206 616 OFFCURVE",
"217 616 OFFCURVE",
"239 616 CURVE SMOOTH",
"421 616 LINE",
"421 770 LINE",
"199 770 LINE SMOOTH",
"119 770 OFFCURVE",
"53 703.667 OFFCURVE",
"53 625 CURVE SMOOTH",
"53 0 LINE",
"53 0 LINE"
);
}
);
width = 440;
}
);
unicode = 0066;
},
{
color = 4;
glyphname = g;
layers = (
{
layerId = "17A5F7C0-AED1-4270-89BA-BFDC1003B8A5";
paths = (
{
closed = 1;
nodes = (
"510 -229 LINE SMOOTH",
"578 -229 OFFCURVE",
"631 -175 OFFCURVE",
"631 -107 CURVE SMOOTH",
"631 459 LINE SMOOTH",
"631 525.667 OFFCURVE",
"578 580 OFFCURVE",
"510 580 CURVE SMOOTH",
"162 580 LINE SMOOTH",
"95.333 580 OFFCURVE",
"41 525.667 OFFCURVE",
"41 459 CURVE SMOOTH",
"41 121 LINE SMOOTH",
"41 54.333 OFFCURVE",
"95.333 0 OFFCURVE",
"162 0 CURVE SMOOTH",
"549 0 LINE",
"549 -107 LINE SMOOTH",
"549 -128.333 OFFCURVE",
"531.333 -146 OFFCURVE",
"510 -146 CURVE SMOOTH",
"148 -146 LINE",
"148 -229 LINE",
"148 -229 LINE"
);
},
{
closed = 1;
nodes = (
"140.667 82 OFFCURVE",
"123 99.667 OFFCURVE",
"123 121 CURVE SMOOTH",
"123 459 LINE SMOOTH",
"123 480.333 OFFCURVE",
"140.667 498 OFFCURVE",
"162 498 CURVE SMOOTH",
"510 498 LINE SMOOTH",
"531.333 498 OFFCURVE",
"549 480.333 OFFCURVE",
"549 459 CURVE SMOOTH",
"549 121 LINE SMOOTH",
"549 99.667 OFFCURVE",
"531.333 82 OFFCURVE",
"510 82 CURVE SMOOTH",
"162 82 LINE",
"162 82 LINE"
);
}
);
width = 683;
},
{
layerId = "D465923C-ABAE-4975-85A4-08C1BC9DA335";
paths = (
{
closed = 1;
nodes = (
"485 -229 LINE SMOOTH",
"565 -229 OFFCURVE",
"630 -164 OFFCURVE",
"630 -84 CURVE SMOOTH",
"630 435 LINE SMOOTH",
"630 513.667 OFFCURVE",
"565 580 OFFCURVE",
"485 580 CURVE SMOOTH",
"187 580 LINE SMOOTH",
"107 580 OFFCURVE",
"41 513.667 OFFCURVE",
"41 435 CURVE SMOOTH",
"41 145 LINE SMOOTH",
"41 66.333 OFFCURVE",
"107 0 OFFCURVE",
"187 0 CURVE SMOOTH",
"477 0 LINE",
"477 -42 LINE SMOOTH",
"477 -64 OFFCURVE",
"477 -75 OFFCURVE",
"477 -75 CURVE",
"477 -75 OFFCURVE",
"466 -75 OFFCURVE",
"444 -75 CURVE SMOOTH",
"133 -75 LINE",
"133 -229 LINE",
"133 -229 LINE"
);
},
{
closed = 1;
nodes = (
"205 153 OFFCURVE",
"194 153 OFFCURVE",
"194 153 CURVE",
"194 153 OFFCURVE",
"194 164 OFFCURVE",
"194 186 CURVE SMOOTH",
"194 394 LINE SMOOTH",
"194 416 OFFCURVE",
"194 427 OFFCURVE",
"194 427 CURVE",
"194 427 OFFCURVE",
"205 427 OFFCURVE",
"227 427 CURVE SMOOTH",
"444 427 LINE SMOOTH",
"466 427 OFFCURVE",
"477 427 OFFCURVE",
"477 427 CURVE",
"477 427 OFFCURVE",
"477 416 OFFCURVE",
"477 394 CURVE SMOOTH",
"477 186 LINE SMOOTH",
"477 164 OFFCURVE",
"477 153 OFFCURVE",
"477 153 CURVE",
"477 153 OFFCURVE",
"466 153 OFFCURVE",
"444 153 CURVE SMOOTH",
"227 153 LINE",
"227 153 LINE"
);
}
);
width = 683;
}
);
unicode = 0067;
},
{
color = 4;
glyphname = h;
layers = (
{
layerId = "17A5F7C0-AED1-4270-89BA-BFDC1003B8A5";
paths = (
{
closed = 1;
nodes = (
"136 0 LINE",
"136 459 LINE SMOOTH",
"136 479.896 OFFCURVE",
"154.109 498 OFFCURVE",
"176 498 CURVE SMOOTH",
"524 498 LINE SMOOTH",
"544.896 498 OFFCURVE",
"563 479.896 OFFCURVE",
"563 459 CURVE SMOOTH",
"563 0 LINE",
"645 0 LINE",
"645 459 LINE SMOOTH",
"645 525.667 OFFCURVE",
"589.672 580 OFFCURVE",
"524 580 CURVE SMOOTH",
"136 580 LINE",
"136 770 LINE",
"54 770 LINE",
"54 0 LINE",
"54 0 LINE"
);
}
);
width = 668;
},
{
layerId = "D465923C-ABAE-4975-85A4-08C1BC9DA335";
paths = (
{
closed = 1;
nodes = (
"207 0 LINE",
"207 394 LINE SMOOTH",
"207 416 OFFCURVE",
"207 427 OFFCURVE",
"207 427 CURVE",
"207 427 OFFCURVE",
"218 427 OFFCURVE",
"240 427 CURVE SMOOTH",
"456 427 LINE SMOOTH",
"478 427 OFFCURVE",
"489 427 OFFCURVE",
"489 427 CURVE",
"489 427 OFFCURVE",
"489 416 OFFCURVE",
"489 394 CURVE SMOOTH",
"489 0 LINE",
"642 0 LINE",
"642 435 LINE SMOOTH",
"642 513.667 OFFCURVE",
"575.667 580 OFFCURVE",
"497 580 CURVE SMOOTH",
"207 580 LINE",
"207 770 LINE",
"54 770 LINE",
"54 0 LINE",
"54 0 LINE"
);
}
);
width = 668;
}
);
unicode = 0068;
},
{
color = 4;
glyphname = i;
layers = (
{
layerId = "17A5F7C0-AED1-4270-89BA-BFDC1003B8A5";
paths = (
{
closed = 1;
nodes = (
"134 0 LINE",
"134 580 LINE",
"52 580 LINE",
"52 0 LINE",
"52 0 LINE"
);
},
{
closed = 1;
nodes = (
"134 688 LINE",
"134 770 LINE",
"52 770 LINE",
"52 688 LINE",
"52 688 LINE"
);
}
);
width = 208;
},
{
layerId = "D465923C-ABAE-4975-85A4-08C1BC9DA335";
paths = (
{
closed = 1;
nodes = (
"205 0 LINE",
"205 580 LINE",
"52 580 LINE",
"52 0 LINE",
"52 0 LINE"
);
},
{
closed = 1;
nodes = (
"205 616 LINE",
"205 770 LINE",
"52 770 LINE",
"52 616 LINE",
"52 616 LINE"
);
}
);
width = 229;
}
);
unicode = 0069;
},
{
color = 4;
glyphname = dotlessi;
layers = (
{
anchors = (
{
name = top;
position = "{93, 580}";
}
);
layerId = "17A5F7C0-AED1-4270-89BA-BFDC1003B8A5";
paths = (
{
closed = 1;
nodes = (
"134 0 LINE",
"134 580 LINE",
"52 580 LINE",
"52 0 LINE",
"52 0 LINE"
);
}
);
width = 214;
},
{
anchors = (
{
name = top;
position = "{128, 580}";
}
);
layerId = "D465923C-ABAE-4975-85A4-08C1BC9DA335";
paths = (
{
closed = 1;
nodes = (
"205 0 LINE",
"205 580 LINE",
"52 580 LINE",
"52 0 LINE",
"52 0 LINE"
);
}
);
width = 214;
}
);
unicode = 0131;
},
{
color = 4;
glyphname = iacute;
layers = (
{
components = (
{
name = dotlessi;
}
);
layerId = "17A5F7C0-AED1-4270-89BA-BFDC1003B8A5";
paths = (
{
closed = 1;
nodes = (
"129 763 LINE",
"163 902 LINE",
"84 902 LINE",
"49 763 LINE",
"49 763 LINE"
);
}
);
width = 214;
},
{
components = (
{
name = dotlessi;
}
);
layerId = "D465923C-ABAE-4975-85A4-08C1BC9DA335";
paths = (
{
closed = 1;
nodes = (
"206 638 LINE",
"257 841 LINE",
"100 841 LINE",
"49 638 LINE",
"49 638 LINE"
);
}
);
width = 214;
}
);
unicode = 00ED;
},
{
color = 4;
glyphname = icircumflex;
layers = (
{
layerId = "17A5F7C0-AED1-4270-89BA-BFDC1003B8A5";
paths = (
{
closed = 1;
nodes = (
"26 763 LINE",
"86 848 LINE",
"144 763 LINE",
"186 763 LINE",
"115 880 LINE",
"56 880 LINE",
"-15 763 LINE",
"-15 763 LINE"
);
},
{
closed = 1;
nodes = (
"133 0 LINE",
"133 580 LINE",
"51 580 LINE",
"51 0 LINE",
"51 0 LINE"
);
}
);
width = 214;
},
{
layerId = "D465923C-ABAE-4975-85A4-08C1BC9DA335";
paths = (
{
closed = 1;
nodes = (
"118 638 LINE",
"143 682 LINE",
"171 638 LINE",
"305 638 LINE",
"195 822 LINE",
"95 822 LINE",
"-15 638 LINE",
"-15 638 LINE"
);
},
{
closed = 1;
nodes = (
"204 0 LINE",
"204 580 LINE",
"51 580 LINE",
"51 0 LINE",
"51 0 LINE"
);
}
);
width = 214;
}
);
unicode = 00EE;
},
{
color = 4;
glyphname = idieresis;
layers = (
{
layerId = "17A5F7C0-AED1-4270-89BA-BFDC1003B8A5";
paths = (
{
closed = 1;
nodes = (
"230 765 LINE",
"230 847 LINE",
"148 847 LINE",
"148 765 LINE",
"148 765 LINE"
);
},
{
closed = 1;
nodes = (
"51 765 LINE",
"51 847 LINE",
"-32 847 LINE",
"-32 765 LINE",
"-32 765 LINE"
);
},
{
closed = 1;
nodes = (
"137 0 LINE",
"137 580 LINE",
"55 580 LINE",
"55 0 LINE",
"55 0 LINE"
);
}
);
width = 214;
},
{
layerId = "D465923C-ABAE-4975-85A4-08C1BC9DA335";
paths = (
{
closed = 1;
nodes = (
"335 640 LINE",
"335 794 LINE",
"181 794 LINE",
"181 640 LINE",
"181 640 LINE"
);
},
{
closed = 1;
nodes = (
"121 640 LINE",
"121 794 LINE",
"-32 794 LINE",
"-32 640 LINE",
"-32 640 LINE"
);
},
{
closed = 1;
nodes = (
"208 0 LINE",
"209 580 LINE",
"56 580 LINE",
"55 0 LINE",
"55 0 LINE"
);
}
);
width = 214;
}
);
unicode = 00EF;
},
{
color = 4;
glyphname = igrave;
layers = (
{
layerId = "17A5F7C0-AED1-4270-89BA-BFDC1003B8A5";
paths = (
{
closed = 1;
nodes = (
"131 764 LINE",
"97 903 LINE",
"16 903 LINE",
"51 764 LINE",
"51 764 LINE"
);
},
{
closed = 1;
nodes = (
"138 0 LINE",
"138 580 LINE",
"56 580 LINE",
"56 0 LINE",
"56 0 LINE"
);
}
);
width = 214;
},
{
layerId = "D465923C-ABAE-4975-85A4-08C1BC9DA335";
paths = (
{
closed = 1;
nodes = (
"224 639 LINE",
"173 842 LINE",
"16 842 LINE",
"67 639 LINE",
"67 639 LINE"
);
},
{
closed = 1;
nodes = (
"209 0 LINE",
"209 580 LINE",
"56 580 LINE",
"56 0 LINE",
"56 0 LINE"
);
}
);
width = 214;
}
);
unicode = 00EC;
},
{
color = 4;
glyphname = j;
layers = (
{
layerId = "17A5F7C0-AED1-4270-89BA-BFDC1003B8A5";
paths = (
{
closed = 1;
nodes = (
"58 -243 LINE SMOOTH",
"126 -243 OFFCURVE",
"180 -189 OFFCURVE",
"180 -121 CURVE SMOOTH",
"180 580 LINE",
"97 580 LINE",
"97 -121 LINE SMOOTH",
"97 -142.333 OFFCURVE",
"79.333 -160 OFFCURVE",
"58 -160 CURVE SMOOTH",
"-187 -160 LINE",
"-187 -243 LINE",
"-187 -243 LINE"
);
},
{
closed = 1;
nodes = (
"180 688 LINE",
"180 770 LINE",
"97 770 LINE",
"97 688 LINE",
"97 688 LINE"
);
}
);
width = 239;
},
{
layerId = "D465923C-ABAE-4975-85A4-08C1BC9DA335";
paths = (
{
closed = 1;
nodes = (
"65 -208 LINE SMOOTH",
"145 -208 OFFCURVE",
"211 -143 OFFCURVE",
"211 -63 CURVE SMOOTH",
"211 580 LINE",
"58 580 LINE",
"58 -21 LINE SMOOTH",
"58 -43 OFFCURVE",
"58 -54 OFFCURVE",
"58 -54 CURVE",
"58 -54 OFFCURVE",
"47 -54 OFFCURVE",
"25 -54 CURVE SMOOTH",
"-187 -54 LINE",
"-187 -208 LINE",
"-187 -208 LINE"
);
},
{
closed = 1;
nodes = (
"211 616 LINE",
"211 770 LINE",
"58 770 LINE",
"58 616 LINE",
"58 616 LINE"
);
}
);
width = 239;
}
);
unicode = 006A;
},
{
color = 4;
glyphname = k;
layers = (
{
layerId = "17A5F7C0-AED1-4270-89BA-BFDC1003B8A5";
paths = (
{
closed = 1;
nodes = (
"136 0 LINE",
"136 249 LINE",
"296 249 LINE",
"524 0 LINE",
"631 0 LINE",
"631 1 LINE",
"369 290 LINE",
"632 579 LINE",
"632 580 LINE",
"524 580 LINE",
"296 331 LINE",
"136 331 LINE",
"136 770 LINE",
"54 770 LINE",
"54 0 LINE",
"54 0 LINE"
);
}
);
width = 646;
},
{
layerId = "D465923C-ABAE-4975-85A4-08C1BC9DA335";
paths = (
{
closed = 1;
nodes = (
"207 0 LINE",
"207 213 LINE",
"285 213 LINE",
"482 0 LINE",
"636 0 LINE",
"636 52 LINE",
"420 290 LINE",
"636 528 LINE",
"636 580 LINE",
"482 580 LINE",
"285 367 LINE",
"207 367 LINE",
"207 770 LINE",
"54 770 LINE",
"54 0 LINE",
"54 0 LINE"
);
}
);
width = 646;
}
);
unicode = 006B;
},
{
color = 4;
glyphname = l;
layers = (
{
layerId = "17A5F7C0-AED1-4270-89BA-BFDC1003B8A5";
paths = (
{
closed = 1;
nodes = (
"173 0 LINE",
"271 0 LINE",
"271 82 LINE",
"173 82 LINE SMOOTH",
"151.667 82 OFFCURVE",
"134 99.667 OFFCURVE",
"134 121 CURVE SMOOTH",
"134 770 LINE",
"52 770 LINE",
"52 121 LINE SMOOTH",
"52 54.333 OFFCURVE",
"106.333 0 OFFCURVE",
"173 0 CURVE"
);
}
);
width = 302;
},
{
layerId = "D465923C-ABAE-4975-85A4-08C1BC9DA335";
paths = (
{
closed = 1;
nodes = (
"197 0 LINE",
"323 0 LINE",
"323 153 LINE",
"239 153 LINE SMOOTH",
"217 153 OFFCURVE",
"206 153 OFFCURVE",
"206 153 CURVE",
"206 153 OFFCURVE",
"206 164 OFFCURVE",
"206 186 CURVE SMOOTH",
"206 771 LINE",
"52 771 LINE",
"52 145 LINE SMOOTH",
"52 66.333 OFFCURVE",
"118.333 0 OFFCURVE",
"197 0 CURVE"
);
}
);
width = 337;
}
);
unicode = 006C;
},
{
color = 4;
glyphname = m;
layers = (
{
layerId = "17A5F7C0-AED1-4270-89BA-BFDC1003B8A5";
paths = (
{
closed = 1;
nodes = (
"137 0 LINE",
"137 459 LINE SMOOTH",
"137 480.333 OFFCURVE",
"154.667 498 OFFCURVE",
"176 498 CURVE SMOOTH",
"418 498 LINE SMOOTH",
"439.333 498 OFFCURVE",
"457 480.333 OFFCURVE",
"457 459 CURVE SMOOTH",
"457 0 LINE",
"540 0 LINE",
"540 459 LINE SMOOTH",
"540 480.333 OFFCURVE",
"557.667 498 OFFCURVE",
"579 498 CURVE SMOOTH",
"820 498 LINE SMOOTH",
"841.333 498 OFFCURVE",
"860 480.333 OFFCURVE",
"860 459 CURVE SMOOTH",
"860 0 LINE",
"941 0 LINE",
"941 459 LINE SMOOTH",
"941 525.667 OFFCURVE",
"888 580 OFFCURVE",
"820 580 CURVE SMOOTH",
"54 580 LINE",
"54 0 LINE",
"54 0 LINE"
);
}
);
width = 978;
},
{
layerId = "D465923C-ABAE-4975-85A4-08C1BC9DA335";
paths = (
{
closed = 1;
nodes = (
"207 0 LINE",
"207 394 LINE SMOOTH",
"207 416 OFFCURVE",
"207 427 OFFCURVE",
"207 427 CURVE",
"207 427 OFFCURVE",
"218 427 OFFCURVE",
"240 427 CURVE SMOOTH",
"366 427 LINE SMOOTH",
"388 427 OFFCURVE",
"399 427 OFFCURVE",
"399 427 CURVE",
"399 427 OFFCURVE",
"399 416 OFFCURVE",
"399 394 CURVE SMOOTH",
"399 0 LINE",
"553 0 LINE",
"553 394 LINE SMOOTH",
"553 416 OFFCURVE",
"553 427 OFFCURVE",
"553 427 CURVE",
"553 427 OFFCURVE",
"564 427 OFFCURVE",
"586 427 CURVE SMOOTH",
"712 427 LINE SMOOTH",
"734 427 OFFCURVE",
"745 427 OFFCURVE",
"745 427 CURVE",
"745 427 OFFCURVE",
"745 416 OFFCURVE",
"745 394 CURVE SMOOTH",
"745 0 LINE",
"897 0 LINE",
"897 435 LINE SMOOTH",
"897 513.667 OFFCURVE",
"832 580 OFFCURVE",
"752 580 CURVE SMOOTH",
"54 580 LINE",
"54 0 LINE",
"54 0 LINE"
);
}
);
width = 978;
}
);
unicode = 006D;
},
{
color = 4;
glyphname = n;
layers = (
{
anchors = (
{
name = bottom;
position = "{346, 0}";
},
{
name = top;
position = "{346, 580}";
}
);
layerId = "17A5F7C0-AED1-4270-89BA-BFDC1003B8A5";
paths = (
{
closed = 1;
nodes = (
"136 0 LINE",
"136 459 LINE SMOOTH",
"136 480.333 OFFCURVE",
"154.667 498 OFFCURVE",
"176 498 CURVE SMOOTH",
"524 498 LINE SMOOTH",
"545.333 498 OFFCURVE",
"563 480.333 OFFCURVE",
"563 459 CURVE SMOOTH",
"563 0 LINE",
"645 0 LINE",
"645 459 LINE SMOOTH",
"645 525.667 OFFCURVE",
"590.667 580 OFFCURVE",
"524 580 CURVE SMOOTH",
"54 580 LINE",
"54 0 LINE",
"54 0 LINE"
);
}
);
width = 696;
},
{
anchors = (
{
name = bottom;
position = "{348, 0}";
},
{
name = top;
position = "{336, 580}";
}
);
layerId = "D465923C-ABAE-4975-85A4-08C1BC9DA335";
paths = (
{
closed = 1;
nodes = (
"207 0 LINE",
"207 394 LINE SMOOTH",
"207 416 OFFCURVE",
"207 427 OFFCURVE",
"207 427 CURVE",
"207 427 OFFCURVE",
"218 427 OFFCURVE",
"240 427 CURVE SMOOTH",
"456 427 LINE SMOOTH",
"478 427 OFFCURVE",
"489 427 OFFCURVE",
"489 427 CURVE",
"489 427 OFFCURVE",
"489 416 OFFCURVE",
"489 394 CURVE SMOOTH",
"489 0 LINE",
"642 0 LINE",
"642 435 LINE SMOOTH",
"642 513.667 OFFCURVE",
"577 580 OFFCURVE",
"497 580 CURVE SMOOTH",
"54 580 LINE",
"54 0 LINE",
"54 0 LINE"
);
}
);
width = 696;
}
);
unicode = 006E;
},
{
color = 4;
glyphname = ntilde;
layers = (
{
components = (
{
name = n;
}
);
layerId = "17A5F7C0-AED1-4270-89BA-BFDC1003B8A5";
paths = (
{
closed = 1;
nodes = (
"445 765 LINE",
"463.667 765 OFFCURVE",
"485.667 769.667 OFFCURVE",
"511 779 CURVE",
"511 830 LINE",
"487 818.667 OFFCURVE",
"465 813 OFFCURVE",
"445 813 CURVE SMOOTH",
"425.667 813 OFFCURVE",
"392.333 825 OFFCURVE",
"345 849 CURVE SMOOTH",
"297.667 873 OFFCURVE",
"260.667 885 OFFCURVE",
"234 885 CURVE SMOOTH",
"210.667 885 OFFCURVE",
"190 882 OFFCURVE",
"172 876 CURVE",
"172 829 LINE",
"187.333 834.333 OFFCURVE",
"208 837 OFFCURVE",
"234 837 CURVE SMOOTH",
"262 837 OFFCURVE",
"298.333 825 OFFCURVE",
"343 801 CURVE SMOOTH",
"387.667 777 OFFCURVE",
"421.667 765 OFFCURVE",
"445 765 CURVE"
);
}
);
width = 708;
},
{
components = (
{
name = n;
}
);
layerId = "D465923C-ABAE-4975-85A4-08C1BC9DA335";
paths = (
{
closed = 1;
nodes = (
"400 641 LINE",
"426 641 OFFCURVE",
"459.667 649.667 OFFCURVE",
"501 667 CURVE",
"501 793 LINE",
"465 768.333 OFFCURVE",
"433 756 OFFCURVE",
"405 756 CURVE SMOOTH",
"380.333 756 OFFCURVE",
"349.667 766.333 OFFCURVE",
"313 787 CURVE SMOOTH",
"276.333 807.667 OFFCURVE",
"245.667 818 OFFCURVE",
"221 818 CURVE SMOOTH",
"195.667 818 OFFCURVE",
"164 809 OFFCURVE",
"126 791 CURVE",
"126 667 LINE",
"154 691 OFFCURVE",
"182 703 OFFCURVE",
"210 703 CURVE SMOOTH",
"238.667 703 OFFCURVE",
"271.667 692.667 OFFCURVE",
"309 672 CURVE SMOOTH",
"346.333 651.333 OFFCURVE",
"376.667 641 OFFCURVE",
"400 641 CURVE"
);
}
);
width = 708;
}
);
unicode = 00F1;
},
{
color = 4;
glyphname = o;
layers = (
{
anchors = (
{
name = bottom;
position = "{348, 0}";
},
{
name = top;
position = "{348, 580}";
}
);
layerId = "17A5F7C0-AED1-4270-89BA-BFDC1003B8A5";
paths = (
{
closed = 1;
nodes = (
"172 0 LINE",
"520 0 LINE SMOOTH",
"588 0 OFFCURVE",
"642 54.333 OFFCURVE",
"642 121 CURVE SMOOTH",
"642 459 LINE SMOOTH",
"642 525.667 OFFCURVE",
"588 580 OFFCURVE",
"520 580 CURVE SMOOTH",
"172 580 LINE SMOOTH",
"105.333 580 OFFCURVE",
"51 525.667 OFFCURVE",
"51 459 CURVE SMOOTH",
"51 121 LINE SMOOTH",
"51 54.333 OFFCURVE",
"105.333 0 OFFCURVE",
"172 0 CURVE"
);
},
{
closed = 1;
nodes = (
"150.667 82 OFFCURVE",
"133 99.667 OFFCURVE",
"133 121 CURVE SMOOTH",
"133 459 LINE SMOOTH",
"133 480.333 OFFCURVE",
"150.667 498 OFFCURVE",
"172 498 CURVE SMOOTH",
"520 498 LINE SMOOTH",
"541.333 498 OFFCURVE",
"559 480.333 OFFCURVE",
"559 459 CURVE SMOOTH",
"559 121 LINE SMOOTH",
"559 99.667 OFFCURVE",
"541.333 82 OFFCURVE",
"520 82 CURVE SMOOTH",
"172 82 LINE",
"172 82 LINE"
);
}
);
width = 692;
},
{
anchors = (
{
name = bottom;
position = "{345, -2}";
},
{
name = top;
position = "{345, 578}";
}
);
layerId = "D465923C-ABAE-4975-85A4-08C1BC9DA335";
paths = (
{
closed = 1;
nodes = (
"196 0 LINE",
"494 0 LINE SMOOTH",
"574 0 OFFCURVE",
"639 66.333 OFFCURVE",
"639 145 CURVE SMOOTH",
"639 435 LINE SMOOTH",
"639 513.667 OFFCURVE",
"574 580 OFFCURVE",
"494 580 CURVE SMOOTH",
"196 580 LINE SMOOTH",
"117.333 580 OFFCURVE",
"51 513.667 OFFCURVE",
"51 435 CURVE SMOOTH",
"51 145 LINE SMOOTH",
"51 66.333 OFFCURVE",
"117.333 0 OFFCURVE",
"196 0 CURVE"
);
},
{
closed = 1;
nodes = (
"215 153 OFFCURVE",
"204 153 OFFCURVE",
"204 153 CURVE",
"204 153 OFFCURVE",
"204 164 OFFCURVE",
"204 186 CURVE SMOOTH",
"204 394 LINE SMOOTH",
"204 416 OFFCURVE",
"204 427 OFFCURVE",
"204 427 CURVE",
"204 427 OFFCURVE",
"215 427 OFFCURVE",
"237 427 CURVE SMOOTH",
"453 427 LINE SMOOTH",
"475 427 OFFCURVE",
"486 427 OFFCURVE",
"486 427 CURVE",
"486 427 OFFCURVE",
"486 416 OFFCURVE",
"486 394 CURVE SMOOTH",
"486 186 LINE SMOOTH",
"486 164 OFFCURVE",
"486 153 OFFCURVE",
"486 153 CURVE",
"486 153 OFFCURVE",
"475 153 OFFCURVE",
"453 153 CURVE SMOOTH",
"237 153 LINE",
"237 153 LINE"
);
}
);
width = 692;
}
);
unicode = 006F;
},
{
color = 4;
glyphname = oacute;
layers = (
{
components = (
{
name = o;
}
);
layerId = "17A5F7C0-AED1-4270-89BA-BFDC1003B8A5";
paths = (
{
closed = 1;
nodes = (
"352 764 LINE",
"386 903 LINE",
"307 903 LINE",
"272 764 LINE",
"272 764 LINE"
);
}
);
width = 692;
},
{
components = (
{
name = o;
}
);
layerId = "D465923C-ABAE-4975-85A4-08C1BC9DA335";
paths = (
{
closed = 1;
nodes = (
"419 639 LINE",
"470 842 LINE",
"313 842 LINE",
"262 639 LINE",
"262 639 LINE"
);
}
);
width = 692;
}
);
unicode = 00F3;
},
{
color = 4;
glyphname = ocircumflex;
layers = (
{
components = (
{
name = o;
}
);
layerId = "17A5F7C0-AED1-4270-89BA-BFDC1003B8A5";
paths = (
{
closed = 1;
nodes = (
"265 763 LINE",
"325 848 LINE",
"383 763 LINE",
"425 763 LINE",
"354 880 LINE",
"295 880 LINE",
"224 763 LINE",
"224 763 LINE"
);
}
);
width = 692;
},
{
components = (
{
name = o;
}
);
layerId = "D465923C-ABAE-4975-85A4-08C1BC9DA335";
paths = (
{
closed = 1;
nodes = (
"327 638 LINE",
"352 682 LINE",
"380 638 LINE",
"514 638 LINE",
"404 822 LINE",
"304 822 LINE",
"194 638 LINE",
"194 638 LINE"
);
}
);
width = 692;
}
);
unicode = 00F4;
},
{
color = 4;
glyphname = odieresis;
layers = (
{
components = (
{
name = o;
}
);
layerId = "17A5F7C0-AED1-4270-89BA-BFDC1003B8A5";
paths = (
{
closed = 1;
nodes = (
"469 765 LINE",
"469 847 LINE",
"387 847 LINE",
"387 765 LINE",
"387 765 LINE"
);
},
{
closed = 1;
nodes = (
"290 765 LINE",
"290 847 LINE",
"207 847 LINE",
"207 765 LINE",
"207 765 LINE"
);
}
);
width = 692;
},
{
components = (
{
name = o;
}
);
layerId = "D465923C-ABAE-4975-85A4-08C1BC9DA335";
paths = (
{
closed = 1;
nodes = (
"534 640 LINE",
"534 794 LINE",
"380 794 LINE",
"380 640 LINE",
"380 640 LINE"
);
},
{
closed = 1;
nodes = (
"320 640 LINE",
"320 794 LINE",
"167 794 LINE",
"167 640 LINE",
"167 640 LINE"
);
}
);
width = 692;
}
);
unicode = 00F6;
},
{
color = 4;
glyphname = ograve;
layers = (
{
components = (
{
name = o;
}
);
layerId = "17A5F7C0-AED1-4270-89BA-BFDC1003B8A5";
paths = (
{
closed = 1;
nodes = (
"387 764 LINE",
"353 903 LINE",
"272 903 LINE",
"307 764 LINE",
"307 764 LINE"
);
}
);
width = 692;
},
{
components = (
{
name = o;
}
);
layerId = "D465923C-ABAE-4975-85A4-08C1BC9DA335";
paths = (
{
closed = 1;
nodes = (
"450 639 LINE",
"399 842 LINE",
"242 842 LINE",
"293 639 LINE",
"293 639 LINE"
);
}
);
width = 692;
}
);
unicode = 00F2;
},
{
color = 4;
glyphname = otilde;
layers = (
{
components = (
{
name = o;
}
);
layerId = "17A5F7C0-AED1-4270-89BA-BFDC1003B8A5";
paths = (
{
closed = 1;
nodes = (
"443 765 LINE",
"461.667 765 OFFCURVE",
"483.667 769.667 OFFCURVE",
"509 779 CURVE",
"509 830 LINE",
"485 818.667 OFFCURVE",
"463 813 OFFCURVE",
"443 813 CURVE SMOOTH",
"423.667 813 OFFCURVE",
"390.333 825 OFFCURVE",
"343 849 CURVE SMOOTH",
"295.667 873 OFFCURVE",
"258.667 885 OFFCURVE",
"232 885 CURVE SMOOTH",
"208.667 885 OFFCURVE",
"188 882 OFFCURVE",
"170 876 CURVE",
"170 829 LINE",
"185.333 834.333 OFFCURVE",
"206 837 OFFCURVE",
"232 837 CURVE SMOOTH",
"260 837 OFFCURVE",
"296.333 825 OFFCURVE",
"341 801 CURVE SMOOTH",
"385.667 777 OFFCURVE",
"419.667 765 OFFCURVE",
"443 765 CURVE"
);
}
);
width = 692;
},
{
components = (
{
name = o;
}
);
layerId = "D465923C-ABAE-4975-85A4-08C1BC9DA335";
paths = (
{
closed = 1;
nodes = (
"414 640 LINE",
"440 640 OFFCURVE",
"473.667 648.667 OFFCURVE",
"515 666 CURVE",
"515 792 LINE",
"479 767.333 OFFCURVE",
"447 755 OFFCURVE",
"419 755 CURVE SMOOTH",
"394.333 755 OFFCURVE",
"363.667 765.333 OFFCURVE",
"327 786 CURVE SMOOTH",
"290.333 806.667 OFFCURVE",
"259.667 817 OFFCURVE",
"235 817 CURVE SMOOTH",
"209.667 817 OFFCURVE",
"178 808 OFFCURVE",
"140 790 CURVE",
"140 666 LINE",
"168 690 OFFCURVE",
"196 702 OFFCURVE",
"224 702 CURVE SMOOTH",
"252.667 702 OFFCURVE",
"285.667 691.667 OFFCURVE",
"323 671 CURVE SMOOTH",
"360.333 650.333 OFFCURVE",
"390.667 640 OFFCURVE",
"414 640 CURVE"
);
}
);
width = 692;
}
);
unicode = 00F5;
},
{
color = 4;
glyphname = oe;
layers = (
{
layerId = "17A5F7C0-AED1-4270-89BA-BFDC1003B8A5";
paths = (
{
closed = 1;
nodes = (
"173 0 LINE",
"1150 0 LINE",
"1150 82 LINE",
"681 82 LINE SMOOTH",
"660.104 82 OFFCURVE",
"642 100.104 OFFCURVE",
"642 121 CURVE SMOOTH",
"642 249 LINE",
"1150 249 LINE",
"1150 459 LINE SMOOTH",
"1150 525.667 OFFCURVE",
"1096.661 580 OFFCURVE",
"1029 580 CURVE SMOOTH",
"173 580 LINE SMOOTH",
"105.339 580 OFFCURVE",
"52 525.667 OFFCURVE",
"52 459 CURVE SMOOTH",
"52 121 LINE SMOOTH",
"52 54.333 OFFCURVE",
"105.339 0 OFFCURVE",
"173 0 CURVE"
);
},
{
closed = 1;
nodes = (
"152.104 82 OFFCURVE",
"134 100.104 OFFCURVE",
"134 121 CURVE SMOOTH",
"134 459 LINE SMOOTH",
"134 479.896 OFFCURVE",
"152.104 498 OFFCURVE",
"173 498 CURVE SMOOTH",
"521 498 LINE SMOOTH",
"541.896 498 OFFCURVE",
"560 479.896 OFFCURVE",
"560 459 CURVE SMOOTH",
"560 121 LINE SMOOTH",
"560 100.104 OFFCURVE",
"541.896 82 OFFCURVE",
"521 82 CURVE SMOOTH",
"173 82 LINE",
"173 82 LINE"
);
},
{
closed = 1;
nodes = (
"642 459 LINE SMOOTH",
"642 479.896 OFFCURVE",
"660.104 498 OFFCURVE",
"681 498 CURVE SMOOTH",
"1029 498 LINE SMOOTH",
"1049.896 498 OFFCURVE",
"1068 479.896 OFFCURVE",
"1068 459 CURVE SMOOTH",
"1068 331 LINE",
"642 331 LINE",
"642 331 LINE"
);
}
);
width = 1177;
},
{
layerId = "D465923C-ABAE-4975-85A4-08C1BC9DA335";
paths = (
{
closed = 1;
nodes = (
"198 0 LINE",
"1076 0 LINE",
"1076 153 LINE",
"674 153 LINE SMOOTH",
"652 153 OFFCURVE",
"641 153 OFFCURVE",
"641 153 CURVE",
"641 153 OFFCURVE",
"641 164 OFFCURVE",
"641 186 CURVE SMOOTH",
"641 213 LINE",
"1076 213 LINE",
"1076 435 LINE SMOOTH",
"1076 513.607 OFFCURVE",
"1011.601 580 OFFCURVE",
"932 580 CURVE SMOOTH",
"198 580 LINE SMOOTH",
"117.403 580 OFFCURVE",
"52 513.607 OFFCURVE",
"52 435 CURVE SMOOTH",
"52 145 LINE SMOOTH",
"52 66.393 OFFCURVE",
"117.403 0 OFFCURVE",
"198 0 CURVE"
);
},
{
closed = 1;
nodes = (
"216 153 OFFCURVE",
"205 153 OFFCURVE",
"205 153 CURVE",
"205 153 OFFCURVE",
"205 164 OFFCURVE",
"205 186 CURVE SMOOTH",
"205 394 LINE SMOOTH",
"205 416 OFFCURVE",
"205 427 OFFCURVE",
"205 427 CURVE",
"205 427 OFFCURVE",
"216 427 OFFCURVE",
"238 427 CURVE SMOOTH",
"455 427 LINE SMOOTH",
"477 427 OFFCURVE",
"488 427 OFFCURVE",
"488 427 CURVE",
"488 427 OFFCURVE",
"488 416 OFFCURVE",
"488 394 CURVE SMOOTH",
"488 186 LINE SMOOTH",
"488 164 OFFCURVE",
"488 153 OFFCURVE",
"488 153 CURVE",
"488 153 OFFCURVE",
"477 153 OFFCURVE",
"455 153 CURVE SMOOTH",
"238 153 LINE",
"238 153 LINE"
);
},
{
closed = 1;
nodes = (
"641 394 LINE SMOOTH",
"641 416 OFFCURVE",
"641 427 OFFCURVE",
"641 427 CURVE",
"641 427 OFFCURVE",
"652 427 OFFCURVE",
"674 427 CURVE SMOOTH",
"890 427 LINE SMOOTH",
"912 427 OFFCURVE",
"923 427 OFFCURVE",
"923 427 CURVE",
"923 427 OFFCURVE",
"923 416 OFFCURVE",
"923 394 CURVE SMOOTH",
"923 347 LINE",
"641 347 LINE",
"641 347 LINE"
);
}
);
width = 1177;
}
);
unicode = 0153;
},
{
color = 4;
glyphname = p;
layers = (
{
layerId = "17A5F7C0-AED1-4270-89BA-BFDC1003B8A5";
paths = (
{
closed = 1;
nodes = (
"136 -230 LINE",
"136 0 LINE",
"524 0 LINE SMOOTH",
"590.667 0 OFFCURVE",
"645 54.333 OFFCURVE",
"645 121 CURVE SMOOTH",
"645 459 LINE SMOOTH",
"645 525.667 OFFCURVE",
"590.667 580 OFFCURVE",
"524 580 CURVE SMOOTH",
"54 580 LINE",
"54 -230 LINE",
"54 -230 LINE"
);
},
{
closed = 1;
nodes = (
"154.667 82 OFFCURVE",
"136 99.667 OFFCURVE",
"136 121 CURVE SMOOTH",
"136 459 LINE SMOOTH",
"136 480.333 OFFCURVE",
"154.667 498 OFFCURVE",
"176 498 CURVE SMOOTH",
"524 498 LINE SMOOTH",
"545.333 498 OFFCURVE",
"563 480.333 OFFCURVE",
"563 459 CURVE SMOOTH",
"563 121 LINE SMOOTH",
"563 99.667 OFFCURVE",
"545.333 82 OFFCURVE",
"524 82 CURVE SMOOTH",
"176 82 LINE",
"176 82 LINE"
);
}
);
width = 664;
},
{
layerId = "D465923C-ABAE-4975-85A4-08C1BC9DA335";
paths = (
{
closed = 1;
nodes = (
"207 -230 LINE",
"207 0 LINE",
"497 0 LINE SMOOTH",
"577 0 OFFCURVE",
"642 66.333 OFFCURVE",
"642 145 CURVE SMOOTH",
"642 435 LINE SMOOTH",
"642 513.667 OFFCURVE",
"577 580 OFFCURVE",
"497 580 CURVE SMOOTH",
"54 580 LINE",
"54 -230 LINE",
"54 -230 LINE"
);
},
{
closed = 1;
nodes = (
"218 153 OFFCURVE",
"207 153 OFFCURVE",
"207 153 CURVE",
"207 153 OFFCURVE",
"207 164 OFFCURVE",
"207 186 CURVE SMOOTH",
"207 394 LINE SMOOTH",
"207 416 OFFCURVE",
"207 427 OFFCURVE",
"207 427 CURVE",
"207 427 OFFCURVE",
"218 427 OFFCURVE",
"240 427 CURVE SMOOTH",
"456 427 LINE SMOOTH",
"478 427 OFFCURVE",
"489 427 OFFCURVE",
"489 427 CURVE",
"489 427 OFFCURVE",
"489 416 OFFCURVE",
"489 394 CURVE SMOOTH",
"489 186 LINE SMOOTH",
"489 164 OFFCURVE",
"489 153 OFFCURVE",
"489 153 CURVE",
"489 153 OFFCURVE",
"478 153 OFFCURVE",
"456 153 CURVE SMOOTH",
"240 153 LINE",
"240 153 LINE"
);
}
);
width = 664;
}
);
unicode = 0070;
},
{
color = 4;
glyphname = q;
layers = (
{
layerId = "17A5F7C0-AED1-4270-89BA-BFDC1003B8A5";
paths = (
{
closed = 1;
nodes = (
"611 -230 LINE",
"611 580 LINE",
"142 580 LINE SMOOTH",
"74 580 OFFCURVE",
"20 525.667 OFFCURVE",
"20 459 CURVE SMOOTH",
"20 121 LINE SMOOTH",
"20 54.333 OFFCURVE",
"74 0 OFFCURVE",
"142 0 CURVE SMOOTH",
"529 0 LINE",
"529 -230 LINE",
"529 -230 LINE"
);
},
{
closed = 1;
nodes = (
"120.667 82 OFFCURVE",
"103 99.667 OFFCURVE",
"103 121 CURVE SMOOTH",
"103 459 LINE SMOOTH",
"103 480.333 OFFCURVE",
"120.667 498 OFFCURVE",
"142 498 CURVE SMOOTH",
"490 498 LINE SMOOTH",
"511.333 498 OFFCURVE",
"529 480.333 OFFCURVE",
"529 459 CURVE SMOOTH",
"529 121 LINE SMOOTH",
"529 99.667 OFFCURVE",
"511.333 82 OFFCURVE",
"490 82 CURVE SMOOTH",
"142 82 LINE",
"142 82 LINE"
);
}
);
width = 664;
},
{
layerId = "D465923C-ABAE-4975-85A4-08C1BC9DA335";
paths = (
{
closed = 1;
nodes = (
"609 -230 LINE",
"609 580 LINE",
"165 580 LINE SMOOTH",
"85 580 OFFCURVE",
"20 513.667 OFFCURVE",
"20 435 CURVE SMOOTH",
"20 145 LINE SMOOTH",
"20 66.333 OFFCURVE",
"85 0 OFFCURVE",
"165 0 CURVE SMOOTH",
"456 0 LINE",
"456 -230 LINE",
"456 -230 LINE"
);
},
{
closed = 1;
nodes = (
"185 153 OFFCURVE",
"174 153 OFFCURVE",
"174 153 CURVE",
"174 153 OFFCURVE",
"174 164 OFFCURVE",
"174 186 CURVE SMOOTH",
"174 394 LINE SMOOTH",
"174 416 OFFCURVE",
"174 427 OFFCURVE",
"174 427 CURVE",
"174 427 OFFCURVE",
"185 427 OFFCURVE",
"207 427 CURVE SMOOTH",
"423 427 LINE SMOOTH",
"445 427 OFFCURVE",
"456 427 OFFCURVE",
"456 427 CURVE",
"456 427 OFFCURVE",
"456 416 OFFCURVE",
"456 394 CURVE SMOOTH",
"456 186 LINE SMOOTH",
"456 164 OFFCURVE",
"456 153 OFFCURVE",
"456 153 CURVE",
"456 153 OFFCURVE",
"445 153 OFFCURVE",
"423 153 CURVE SMOOTH",
"207 153 LINE",
"207 153 LINE"
);
}
);
width = 664;
}
);
unicode = 0071;
},
{
color = 4;
glyphname = r;
layers = (
{
layerId = "17A5F7C0-AED1-4270-89BA-BFDC1003B8A5";
paths = (
{
closed = 1;
nodes = (
"134 0 LINE",
"134 459 LINE SMOOTH",
"134 480.333 OFFCURVE",
"151.667 498 OFFCURVE",
"173 498 CURVE SMOOTH",
"499 498 LINE",
"499 580 LINE",
"173 580 LINE SMOOTH",
"106.333 580 OFFCURVE",
"52 525.667 OFFCURVE",
"52 459 CURVE SMOOTH",
"52 0 LINE",
"52 0 LINE"
);
}
);
width = 512;
},
{
layerId = "D465923C-ABAE-4975-85A4-08C1BC9DA335";
paths = (
{
closed = 1;
nodes = (
"205 0 LINE",
"205 394 LINE SMOOTH",
"205 416 OFFCURVE",
"205 427 OFFCURVE",
"205 427 CURVE",
"205 427 OFFCURVE",
"216 427 OFFCURVE",
"238 427 CURVE SMOOTH",
"518 427 LINE",
"518 580 LINE",
"198 580 LINE SMOOTH",
"118 580 OFFCURVE",
"52 513.667 OFFCURVE",
"52 435 CURVE SMOOTH",
"52 0 LINE",
"52 0 LINE"
);
}
);
width = 526;
}
);
unicode = 0072;
},
{
color = 4;
glyphname = s;
layers = (
{
anchors = (
{
name = bottom;
position = "{354, 0}";
},
{
name = top;
position = "{341, 579}";
}
);
layerId = "17A5F7C0-AED1-4270-89BA-BFDC1003B8A5";
paths = (
{
closed = 1;
nodes = (
"169 0 LINE",
"517 0 LINE SMOOTH",
"584.661 0 OFFCURVE",
"639 54.333 OFFCURVE",
"639 121 CURVE SMOOTH",
"639 210 LINE SMOOTH",
"639 276.667 OFFCURVE",
"584.661 331 OFFCURVE",
"517 331 CURVE SMOOTH",
"169 331 LINE SMOOTH",
"148.104 331 OFFCURVE",
"130 349.104 OFFCURVE",
"130 370 CURVE SMOOTH",
"130 459 LINE SMOOTH",
"130 479.896 OFFCURVE",
"148.104 498 OFFCURVE",
"169 498 CURVE SMOOTH",
"517 498 LINE SMOOTH",
"537.896 498 OFFCURVE",
"556 479.896 OFFCURVE",
"556 459 CURVE SMOOTH",
"556 451 LINE",
"639 451 LINE",
"639 459 LINE SMOOTH",
"639 525.667 OFFCURVE",
"584.661 580 OFFCURVE",
"517 580 CURVE SMOOTH",
"169 580 LINE SMOOTH",
"102.333 580 OFFCURVE",
"48 525.667 OFFCURVE",
"48 459 CURVE SMOOTH",
"48 370 LINE SMOOTH",
"48 303.333 OFFCURVE",
"102.333 249 OFFCURVE",
"169 249 CURVE SMOOTH",
"517 249 LINE SMOOTH",
"537.896 249 OFFCURVE",
"556 230.896 OFFCURVE",
"556 210 CURVE SMOOTH",
"556 121 LINE SMOOTH",
"556 100.104 OFFCURVE",
"537.896 82 OFFCURVE",
"517 82 CURVE SMOOTH",
"169 82 LINE SMOOTH",
"148.104 82 OFFCURVE",
"130 100.104 OFFCURVE",
"130 121 CURVE SMOOTH",
"130 129 LINE",
"48 129 LINE",
"48 121 LINE SMOOTH",
"48 54.333 OFFCURVE",
"102.333 0 OFFCURVE",
"169 0 CURVE"
);
}
);
width = 686;
},
{
anchors = (
{
name = bottom;
position = "{345, 0}";
},
{
name = top;
position = "{340, 580}";
}
);
layerId = "D465923C-ABAE-4975-85A4-08C1BC9DA335";
paths = (
{
closed = 1;
nodes = (
"193 0 LINE",
"491 0 LINE SMOOTH",
"571 0 OFFCURVE",
"637 66.333 OFFCURVE",
"637 145 CURVE SMOOTH",
"637 222 LINE SMOOTH",
"637 300.667 OFFCURVE",
"571 367 OFFCURVE",
"491 367 CURVE SMOOTH",
"217 367 LINE SMOOTH",
"206.333 367 OFFCURVE",
"201 367 OFFCURVE",
"201 367 CURVE",
"201 367 OFFCURVE",
"201 372.333 OFFCURVE",
"201 383 CURVE SMOOTH",
"201 411 LINE SMOOTH",
"201 421.667 OFFCURVE",
"201 427 OFFCURVE",
"201 427 CURVE",
"201 427 OFFCURVE",
"206.333 427 OFFCURVE",
"217 427 CURVE SMOOTH",
"467 427 LINE SMOOTH",
"477.667 427 OFFCURVE",
"483 427 OFFCURVE",
"483 427 CURVE",
"483 427 OFFCURVE",
"483 421.667 OFFCURVE",
"483 411 CURVE SMOOTH",
"483 406 LINE",
"637 406 LINE",
"637 435 LINE SMOOTH",
"637 513.667 OFFCURVE",
"571 580 OFFCURVE",
"491 580 CURVE SMOOTH",
"193 580 LINE SMOOTH",
"114.333 580 OFFCURVE",
"48 513.667 OFFCURVE",
"48 435 CURVE SMOOTH",
"48 358 LINE SMOOTH",
"48 279.333 OFFCURVE",
"114.333 213 OFFCURVE",
"193 213 CURVE SMOOTH",
"467 213 LINE SMOOTH",
"477.667 213 OFFCURVE",
"483 213 OFFCURVE",
"483 213 CURVE",
"483 213 OFFCURVE",
"483 207.667 OFFCURVE",
"483 197 CURVE SMOOTH",
"483 169 LINE SMOOTH",
"483 158.333 OFFCURVE",
"483 153 OFFCURVE",
"483 153 CURVE",
"483 153 OFFCURVE",
"477.667 153 OFFCURVE",
"467 153 CURVE SMOOTH",
"217 153 LINE SMOOTH",
"206.333 153 OFFCURVE",
"201 153 OFFCURVE",
"201 153 CURVE",
"201 153 OFFCURVE",
"201 158.333 OFFCURVE",
"201 169 CURVE SMOOTH",
"201 174 LINE",
"48 174 LINE",
"48 145 LINE SMOOTH",
"48 66.333 OFFCURVE",
"114.333 0 OFFCURVE",
"193 0 CURVE"
);
}
);
width = 686;
}
);
unicode = 0073;
},
{
color = 4;
glyphname = scaron;
layers = (
{
components = (
{
name = s;
}
);
layerId = "17A5F7C0-AED1-4270-89BA-BFDC1003B8A5";
paths = (
{
closed = 1;
nodes = (
"351 764 LINE",
"421 881 LINE",
"380 881 LINE",
"322 796 LINE",
"262 881 LINE",
"220 881 LINE",
"292 764 LINE",
"292 764 LINE"
);
}
);
width = 686;
},
{
components = (
{
name = s;
}
);
layerId = "D465923C-ABAE-4975-85A4-08C1BC9DA335";
paths = (
{
closed = 1;
nodes = (
"400 638 LINE",
"510 822 LINE",
"375 822 LINE",
"348 778 LINE",
"321 822 LINE",
"190 822 LINE",
"300 638 LINE",
"300 638 LINE"
);
}
);
width = 686;
}
);
unicode = 0161;
},
{
color = 4;
glyphname = germandbls;
layers = (
{
layerId = "17A5F7C0-AED1-4270-89BA-BFDC1003B8A5";
paths = (
{
closed = 1;
nodes = (
"139 0 LINE",
"139 597 LINE SMOOTH",
"139 618.333 OFFCURVE",
"156.667 636 OFFCURVE",
"178 636 CURVE SMOOTH",
"663 636 LINE SMOOTH",
"684.333 636 OFFCURVE",
"702 618.333 OFFCURVE",
"702 597 CURVE SMOOTH",
"702 443 LINE SMOOTH",
"702 422.104 OFFCURVE",
"683.896 404 OFFCURVE",
"663 404 CURVE SMOOTH",
"284 404 LINE",
"284 333 LINE",
"663 333 LINE SMOOTH",
"683.896 333 OFFCURVE",
"702 314.896 OFFCURVE",
"702 294 CURVE SMOOTH",
"702 121 LINE SMOOTH",
"702 100.104 OFFCURVE",
"683.896 82 OFFCURVE",
"663 82 CURVE SMOOTH",
"284 82 LINE",
"284 0 LINE",
"663 0 LINE SMOOTH",
"729.667 0 OFFCURVE",
"784 54.333 OFFCURVE",
"784 121 CURVE SMOOTH",
"784 294 LINE SMOOTH",
"784 320.865 OFFCURVE",
"772.905 349.124 OFFCURVE",
"754 374 CURVE",
"772.905 399.871 OFFCURVE",
"784 428.135 OFFCURVE",
"784 455 CURVE SMOOTH",
"784 618 LINE",
"769.333 670 OFFCURVE",
"719 720 OFFCURVE",
"663 720 CURVE SMOOTH",
"178 720 LINE SMOOTH",
"110 720 OFFCURVE",
"57 666 OFFCURVE",
"57 598 CURVE SMOOTH",
"57 0 LINE",
"57 0 LINE"
);
}
);
width = 833;
},
{
layerId = "D465923C-ABAE-4975-85A4-08C1BC9DA335";
paths = (
{
closed = 1;
nodes = (
"210 0 LINE",
"210 533 LINE SMOOTH",
"210 555 OFFCURVE",
"210 566 OFFCURVE",
"210 566 CURVE",
"210 566 OFFCURVE",
"221 566 OFFCURVE",
"243 566 CURVE SMOOTH",
"578 566 LINE SMOOTH",
"600 566 OFFCURVE",
"611 566 OFFCURVE",
"611 566 CURVE",
"611 566 OFFCURVE",
"611 555 OFFCURVE",
"611 533 CURVE SMOOTH",
"611 462 LINE SMOOTH",
"611 440 OFFCURVE",
"611 429 OFFCURVE",
"611 429 CURVE",
"611 429 OFFCURVE",
"600 429 OFFCURVE",
"578 429 CURVE SMOOTH",
"273 429 LINE",
"273 285 LINE",
"578 285 LINE SMOOTH",
"600 285 OFFCURVE",
"611 285 OFFCURVE",
"611 285 CURVE",
"611 285 OFFCURVE",
"611 274 OFFCURVE",
"611 252 CURVE SMOOTH",
"611 186 LINE SMOOTH",
"611 164 OFFCURVE",
"611 153 OFFCURVE",
"611 153 CURVE",
"611 153 OFFCURVE",
"600 153 OFFCURVE",
"578 153 CURVE SMOOTH",
"273 153 LINE",
"273 0 LINE",
"618 0 LINE SMOOTH",
"697.601 0 OFFCURVE",
"764 66.393 OFFCURVE",
"764 145 CURVE SMOOTH",
"764 294 LINE SMOOTH",
"764 317.88 OFFCURVE",
"758.94 340.109 OFFCURVE",
"747 362 CURVE",
"757.945 382.896 OFFCURVE",
"764 409.109 OFFCURVE",
"764 431 CURVE SMOOTH",
"764 601 LINE",
"752 669 OFFCURVE",
"690 720 OFFCURVE",
"618 720 CURVE SMOOTH",
"203 720 LINE SMOOTH",
"123 720 OFFCURVE",
"57 655 OFFCURVE",
"57 575 CURVE SMOOTH",
"57 0 LINE",
"57 0 LINE"
);
}
);
width = 833;
}
);
unicode = 00DF;
},
{
color = 4;
glyphname = t;
layers = (
{
layerId = "17A5F7C0-AED1-4270-89BA-BFDC1003B8A5";
paths = (
{
closed = 1;
nodes = (
"174 0 LINE",
"386 0 LINE",
"386 82 LINE",
"174 82 LINE SMOOTH",
"152.667 82 OFFCURVE",
"135 99.667 OFFCURVE",
"135 121 CURVE SMOOTH",
"135 498 LINE",
"386 498 LINE",
"386 580 LINE",
"135 580 LINE",
"135 770 LINE",
"53 770 LINE",
"53 121 LINE SMOOTH",
"53 54.333 OFFCURVE",
"106 0 OFFCURVE",
"174 0 CURVE"
);
}
);
width = 410;
},
{
layerId = "D465923C-ABAE-4975-85A4-08C1BC9DA335";
paths = (
{
closed = 1;
nodes = (
"199 0 LINE",
"421 0 LINE",
"421 153 LINE",
"239 153 LINE SMOOTH",
"217 153 OFFCURVE",
"206 153 OFFCURVE",
"206 153 CURVE",
"206 153 OFFCURVE",
"206 164 OFFCURVE",
"206 186 CURVE SMOOTH",
"206 427 LINE",
"421 427 LINE",
"421 580 LINE",
"206 580 LINE",
"206 752 LINE",
"53 752 LINE",
"53 145 LINE SMOOTH",
"53 66.333 OFFCURVE",
"119 0 OFFCURVE",
"199 0 CURVE"
);
}
);
width = 451;
}
);
unicode = 0074;
},
{
color = 4;
glyphname = u;
layers = (
{
anchors = (
{
name = top;
position = "{349, 580}";
}
);
layerId = "17A5F7C0-AED1-4270-89BA-BFDC1003B8A5";
paths = (
{
closed = 1;
nodes = (
"174 0 LINE",
"522 0 LINE SMOOTH",
"590 0 OFFCURVE",
"644 54.333 OFFCURVE",
"644 121 CURVE SMOOTH",
"644 580 LINE",
"562 580 LINE",
"562 121 LINE SMOOTH",
"562 99.667 OFFCURVE",
"543.333 82 OFFCURVE",
"522 82 CURVE SMOOTH",
"174 82 LINE SMOOTH",
"152.667 82 OFFCURVE",
"135 99.667 OFFCURVE",
"135 121 CURVE SMOOTH",
"135 580 LINE",
"53 580 LINE",
"53 121 LINE SMOOTH",
"53 54.333 OFFCURVE",
"107.333 0 OFFCURVE",
"174 0 CURVE"
);
}
);
width = 695;
},
{
anchors = (
{
name = top;
position = "{347, 579}";
}
);
layerId = "D465923C-ABAE-4975-85A4-08C1BC9DA335";
paths = (
{
closed = 1;
nodes = (
"198 0 LINE",
"496 0 LINE SMOOTH",
"576 0 OFFCURVE",
"641 66.333 OFFCURVE",
"641 145 CURVE SMOOTH",
"641 580 LINE",
"488 580 LINE",
"488 186 LINE SMOOTH",
"488 164 OFFCURVE",
"488 153 OFFCURVE",
"488 153 CURVE",
"488 153 OFFCURVE",
"477 153 OFFCURVE",
"455 153 CURVE SMOOTH",
"239 153 LINE SMOOTH",
"217 153 OFFCURVE",
"206 153 OFFCURVE",
"206 153 CURVE",
"206 153 OFFCURVE",
"206 164 OFFCURVE",
"206 186 CURVE SMOOTH",
"206 580 LINE",
"53 580 LINE",
"53 145 LINE SMOOTH",
"53 66.333 OFFCURVE",
"118 0 OFFCURVE",
"198 0 CURVE"
);
}
);
width = 695;
}
);
unicode = 0075;
},
{
color = 4;
glyphname = uacute;
layers = (
{
components = (
{
name = u;
}
);
layerId = "17A5F7C0-AED1-4270-89BA-BFDC1003B8A5";
paths = (
{
closed = 1;
nodes = (
"353 764 LINE",
"387 903 LINE",
"308 903 LINE",
"273 764 LINE",
"273 764 LINE"
);
}
);
width = 695;
},
{
components = (
{
name = u;
}
);
layerId = "D465923C-ABAE-4975-85A4-08C1BC9DA335";
paths = (
{
closed = 1;
nodes = (
"430 639 LINE",
"481 842 LINE",
"324 842 LINE",
"273 639 LINE",
"273 639 LINE"
);
}
);
width = 695;
}
);
unicode = 00FA;
},
{
color = 4;
glyphname = ucircumflex;
layers = (
{
components = (
{
name = u;
}
);
layerId = "17A5F7C0-AED1-4270-89BA-BFDC1003B8A5";
paths = (
{
closed = 1;
nodes = (
"266 764 LINE",
"326 849 LINE",
"384 764 LINE",
"426 764 LINE",
"355 881 LINE",
"296 881 LINE",
"225 764 LINE",
"225 764 LINE"
);
}
);
width = 695;
},
{
components = (
{
name = u;
}
);
layerId = "D465923C-ABAE-4975-85A4-08C1BC9DA335";
paths = (
{
closed = 1;
nodes = (
"318 639 LINE",
"343 683 LINE",
"371 639 LINE",
"505 639 LINE",
"395 823 LINE",
"295 823 LINE",
"185 639 LINE",
"185 639 LINE"
);
}
);
width = 695;
}
);
unicode = 00FB;
},
{
color = 4;
glyphname = udieresis;
layers = (
{
components = (
{
name = u;
}
);
layerId = "17A5F7C0-AED1-4270-89BA-BFDC1003B8A5";
paths = (
{
closed = 1;
nodes = (
"470 763 LINE",
"470 845 LINE",
"388 845 LINE",
"388 763 LINE",
"388 763 LINE"
);
},
{
closed = 1;
nodes = (
"291 763 LINE",
"291 845 LINE",
"208 845 LINE",
"208 763 LINE",
"208 763 LINE"
);
}
);
width = 695;
},
{
components = (
{
name = u;
}
);
layerId = "D465923C-ABAE-4975-85A4-08C1BC9DA335";
paths = (
{
closed = 1;
nodes = (
"545 638 LINE",
"545 792 LINE",
"391 792 LINE",
"391 638 LINE",
"391 638 LINE"
);
},
{
closed = 1;
nodes = (
"331 638 LINE",
"331 792 LINE",
"178 792 LINE",
"178 638 LINE",
"178 638 LINE"
);
}
);
width = 695;
}
);
unicode = 00FC;
},
{
color = 4;
glyphname = ugrave;
layers = (
{
components = (
{
name = u;
}
);
layerId = "17A5F7C0-AED1-4270-89BA-BFDC1003B8A5";
paths = (
{
closed = 1;
nodes = (
"388 764 LINE",
"354 903 LINE",
"273 903 LINE",
"308 764 LINE",
"308 764 LINE"
);
}
);
width = 695;
},
{
components = (
{
name = u;
}
);
layerId = "D465923C-ABAE-4975-85A4-08C1BC9DA335";
paths = (
{
closed = 1;
nodes = (
"441 639 LINE",
"390 842 LINE",
"233 842 LINE",
"284 639 LINE",
"284 639 LINE"
);
}
);
width = 695;
}
);
unicode = 00F9;
},
{
color = 4;
glyphname = v;
layers = (
{
layerId = "17A5F7C0-AED1-4270-89BA-BFDC1003B8A5";
paths = (
{
closed = 1;
nodes = (
"436 0 LINE",
"757 580 LINE",
"661 580 LINE",
"389 80 LINE",
"117 580 LINE",
"21 580 LINE",
"341 0 LINE",
"341 0 LINE"
);
}
);
width = 790;
},
{
layerId = "D465923C-ABAE-4975-85A4-08C1BC9DA335";
paths = (
{
closed = 1;
nodes = (
"471 0 LINE",
"791 580 LINE",
"615 580 LINE",
"406 195 LINE",
"197 580 LINE",
"21 580 LINE",
"340 0 LINE",
"340 0 LINE"
);
}
);
width = 790;
}
);
unicode = 0076;
},
{
color = 4;
glyphname = w;
layers = (
{
layerId = "17A5F7C0-AED1-4270-89BA-BFDC1003B8A5";
paths = (
{
closed = 1;
nodes = (
"335 0 LINE",
"540 479 LINE",
"756 0 LINE",
"827 0 LINE",
"1046 580 LINE",
"957 580 LINE",
"793 149 LINE",
"594 580 LINE",
"486 580 LINE",
"299 148 LINE",
"123 580 LINE",
"35 580 LINE",
"263 0 LINE",
"263 0 LINE"
);
}
);
width = 1071;
},
{
layerId = "D465923C-ABAE-4975-85A4-08C1BC9DA335";
paths = (
{
closed = 1;
nodes = (
"378 0 LINE",
"528 346 LINE",
"685 0 LINE",
"801 0 LINE",
"1019 580 LINE",
"857 580 LINE",
"741 275 LINE",
"601 580 LINE",
"453 580 LINE",
"322 279 LINE",
"197 580 LINE",
"35 580 LINE",
"263 0 LINE",
"263 0 LINE"
);
}
);
width = 1053;
}
);
unicode = 0077;
},
{
color = 4;
glyphname = x;
layers = (
{
layerId = "17A5F7C0-AED1-4270-89BA-BFDC1003B8A5";
paths = (
{
closed = 1;
nodes = (
"154 0 LINE",
"342 232 LINE",
"531 0 LINE",
"639 0 LINE",
"639 1 LINE",
"396 295 LINE",
"638 579 LINE",
"638 580 LINE",
"531 580 LINE",
"342 360 LINE",
"154 580 LINE",
"46 580 LINE",
"46 579 LINE",
"288 295 LINE",
"46 1 LINE",
"46 0 LINE",
"46 0 LINE"
);
}
);
width = 692;
},
{
layerId = "D465923C-ABAE-4975-85A4-08C1BC9DA335";
paths = (
{
closed = 1;
nodes = (
"203 0 LINE",
"345 174 LINE",
"487 0 LINE",
"644 0 LINE",
"644 50 LINE",
"444 295 LINE",
"644 530 LINE",
"644 580 LINE",
"486 580 LINE",
"345 412 LINE",
"203 580 LINE",
"46 580 LINE",
"46 530 LINE",
"246 295 LINE",
"46 50 LINE",
"46 0 LINE",
"46 0 LINE"
);
}
);
width = 692;
}
);
unicode = 0078;
},
{
color = 4;
glyphname = y;
layers = (
{
anchors = (
{
name = top;
position = "{337, 580}";
}
);
layerId = "17A5F7C0-AED1-4270-89BA-BFDC1003B8A5";
paths = (
{
closed = 1;
nodes = (
"511 -230 LINE SMOOTH",
"579 -230 OFFCURVE",
"632 -176 OFFCURVE",
"632 -108 CURVE SMOOTH",
"632 578 LINE",
"550 578 LINE",
"550 121 LINE SMOOTH",
"550 99.667 OFFCURVE",
"532.333 82 OFFCURVE",
"511 82 CURVE SMOOTH",
"163 82 LINE SMOOTH",
"141.667 82 OFFCURVE",
"124 99.667 OFFCURVE",
"124 121 CURVE SMOOTH",
"124 578 LINE",
"42 578 LINE",
"42 121 LINE SMOOTH",
"42 54.333 OFFCURVE",
"96.333 0 OFFCURVE",
"163 0 CURVE SMOOTH",
"550 0 LINE",
"550 -108 LINE SMOOTH",
"550 -129.333 OFFCURVE",
"532.333 -147 OFFCURVE",
"511 -147 CURVE SMOOTH",
"149 -147 LINE",
"149 -230 LINE",
"149 -230 LINE"
);
}
);
width = 685;
},
{
anchors = (
{
name = top;
position = "{336, 580}";
}
);
layerId = "D465923C-ABAE-4975-85A4-08C1BC9DA335";
paths = (
{
closed = 1;
nodes = (
"486 -208 LINE SMOOTH",
"566 -208 OFFCURVE",
"631 -143 OFFCURVE",
"631 -63 CURVE SMOOTH",
"631 578 LINE",
"478 578 LINE",
"478 186 LINE SMOOTH",
"478 164 OFFCURVE",
"478 153 OFFCURVE",
"478 153 CURVE",
"478 153 OFFCURVE",
"467 153 OFFCURVE",
"445 153 CURVE SMOOTH",
"228 153 LINE SMOOTH",
"206 153 OFFCURVE",
"195 153 OFFCURVE",
"195 153 CURVE",
"195 153 OFFCURVE",
"195 164 OFFCURVE",
"195 186 CURVE SMOOTH",
"195 578 LINE",
"42 578 LINE",
"42 145 LINE SMOOTH",
"42 66.333 OFFCURVE",
"108 0 OFFCURVE",
"188 0 CURVE SMOOTH",
"478 0 LINE",
"478 -21 LINE SMOOTH",
"478 -43 OFFCURVE",
"478 -54 OFFCURVE",
"478 -54 CURVE",
"478 -54 OFFCURVE",
"467 -54 OFFCURVE",
"445 -54 CURVE SMOOTH",
"134 -54 LINE",
"134 -208 LINE",
"134 -208 LINE"
);
}
);
width = 685;
}
);
unicode = 0079;
},
{
color = 4;
glyphname = yacute;
layers = (
{
components = (
{
name = y;
}
);
layerId = "17A5F7C0-AED1-4270-89BA-BFDC1003B8A5";
paths = (
{
closed = 1;
nodes = (
"349 764 LINE",
"383 903 LINE",
"304 903 LINE",
"269 764 LINE",
"269 764 LINE"
);
}
);
width = 685;
},
{
components = (
{
name = y;
}
);
layerId = "D465923C-ABAE-4975-85A4-08C1BC9DA335";
paths = (
{
closed = 1;
nodes = (
"424 639 LINE",
"475 842 LINE",
"318 842 LINE",
"267 639 LINE",
"267 639 LINE"
);
}
);
width = 685;
}
);
unicode = 00FD;
},
{
color = 4;
glyphname = ydieresis;
layers = (
{
components = (
{
name = y;
}
);
layerId = "17A5F7C0-AED1-4270-89BA-BFDC1003B8A5";
paths = (
{
closed = 1;
nodes = (
"466 765 LINE",
"466 847 LINE",
"383 847 LINE",
"383 765 LINE",
"383 765 LINE"
);
},
{
closed = 1;
nodes = (
"286 765 LINE",
"286 847 LINE",
"204 847 LINE",
"203 765 LINE",
"203 765 LINE"
);
}
);
width = 685;
},
{
components = (
{
name = y;
}
);
layerId = "D465923C-ABAE-4975-85A4-08C1BC9DA335";
paths = (
{
closed = 1;
nodes = (
"538 640 LINE",
"538 794 LINE",
"384 794 LINE",
"384 640 LINE",
"384 640 LINE"
);
},
{
closed = 1;
nodes = (
"324 640 LINE",
"324 794 LINE",
"171 794 LINE",
"171 640 LINE",
"171 640 LINE"
);
}
);
width = 685;
}
);
unicode = 00FF;
},
{
color = 4;
glyphname = z;
layers = (
{
anchors = (
{
name = top;
position = "{342, 580}";
}
);
layerId = "17A5F7C0-AED1-4270-89BA-BFDC1003B8A5";
paths = (
{
closed = 1;
nodes = (
"645 0 LINE",
"645 82 LINE",
"144 82 LINE",
"645 468 LINE",
"645 580 LINE",
"54 580 LINE",
"54 498 LINE",
"555 498 LINE",
"54 112 LINE",
"54 0 LINE",
"54 0 LINE"
);
}
);
width = 698;
},
{
anchors = (
{
name = top;
position = "{348, 580}";
}
);
layerId = "D465923C-ABAE-4975-85A4-08C1BC9DA335";
paths = (
{
closed = 1;
nodes = (
"642 0 LINE",
"642 153 LINE",
"293 153 LINE",
"642 423 LINE",
"642 580 LINE",
"54 580 LINE",
"54 427 LINE",
"403 427 LINE",
"54 157 LINE",
"54 0 LINE",
"54 0 LINE"
);
}
);
width = 698;
}
);
unicode = 007A;
},
{
color = 4;
glyphname = zcaron;
layers = (
{
components = (
{
name = z;
}
);
layerId = "17A5F7C0-AED1-4270-89BA-BFDC1003B8A5";
paths = (
{
closed = 1;
nodes = (
"358 766 LINE",
"428 883 LINE",
"387 883 LINE",
"329 798 LINE",
"269 883 LINE",
"227 883 LINE",
"299 766 LINE",
"299 766 LINE"
);
}
);
width = 698;
},
{
components = (
{
name = z;
}
);
layerId = "D465923C-ABAE-4975-85A4-08C1BC9DA335";
paths = (
{
closed = 1;
nodes = (
"407 651 LINE",
"517 835 LINE",
"382 835 LINE",
"355 791 LINE",
"328 835 LINE",
"197 835 LINE",
"307 651 LINE",
"307 651 LINE"
);
}
);
width = 698;
}
);
unicode = 017E;
},
{
color = 4;
glyphname = a.alt;
layers = (
{
layerId = "17A5F7C0-AED1-4270-89BA-BFDC1003B8A5";
paths = (
{
closed = 1;
nodes = (
"172 0 LINE",
"642 0 LINE",
"642 459 LINE SMOOTH",
"642 525.667 OFFCURVE",
"587.661 580 OFFCURVE",
"520 580 CURVE SMOOTH",
"172 580 LINE SMOOTH",
"105.333 580 OFFCURVE",
"51 525.667 OFFCURVE",
"51 459 CURVE SMOOTH",
"51 121 LINE SMOOTH",
"51 54.333 OFFCURVE",
"105.333 0 OFFCURVE",
"172 0 CURVE"
);
},
{
closed = 1;
nodes = (
"151.104 82 OFFCURVE",
"133 100.104 OFFCURVE",
"133 121 CURVE SMOOTH",
"133 459 LINE SMOOTH",
"133 479.896 OFFCURVE",
"151.104 498 OFFCURVE",
"172 498 CURVE SMOOTH",
"520 498 LINE SMOOTH",
"541.891 498 OFFCURVE",
"559 479.896 OFFCURVE",
"559 459 CURVE SMOOTH",
"559 82 LINE",
"172 82 LINE",
"172 82 LINE"
);
}
);
width = 693;
},
{
layerId = "D465923C-ABAE-4975-85A4-08C1BC9DA335";
paths = (
{
closed = 1;
nodes = (
"196 0 LINE",
"639 0 LINE",
"639 435 LINE SMOOTH",
"639 513.607 OFFCURVE",
"574 580 OFFCURVE",
"494 580 CURVE SMOOTH",
"196 580 LINE SMOOTH",
"117.333 580 OFFCURVE",
"51 513.607 OFFCURVE",
"51 435 CURVE SMOOTH",
"51 145 LINE SMOOTH",
"51 66.393 OFFCURVE",
"117.393 0 OFFCURVE",
"196 0 CURVE"
);
},
{
closed = 1;
nodes = (
"215 153 OFFCURVE",
"204 153 OFFCURVE",
"204 153 CURVE",
"204 153 OFFCURVE",
"204 164 OFFCURVE",
"204 186 CURVE SMOOTH",
"204 394 LINE SMOOTH",
"204 416 OFFCURVE",
"204 427 OFFCURVE",
"204 427 CURVE",
"204 427 OFFCURVE",
"215 427 OFFCURVE",
"237 427 CURVE SMOOTH",
"453 427 LINE SMOOTH",
"475 427 OFFCURVE",
"486 427 OFFCURVE",
"486 427 CURVE",
"486 427 OFFCURVE",
"486 416 OFFCURVE",
"486 394 CURVE SMOOTH",
"486 153 LINE",
"237 153 LINE",
"237 153 LINE"
);
}
);
width = 693;
}
);
},
{
color = 4;
glyphname = k.alt;
layers = (
{
layerId = "17A5F7C0-AED1-4270-89BA-BFDC1003B8A5";
paths = (
{
closed = 1;
nodes = (
"136 0 LINE",
"136 249 LINE",
"524 249 LINE SMOOTH",
"544.896 249 OFFCURVE",
"563 230.896 OFFCURVE",
"563 210 CURVE SMOOTH",
"563 0 LINE",
"645 0 LINE",
"645 210 LINE SMOOTH",
"645 235.871 OFFCURVE",
"633.911 265.124 OFFCURVE",
"616 290 CURVE",
"633.911 314.876 OFFCURVE",
"645 344.129 OFFCURVE",
"645 370 CURVE SMOOTH",
"645 580 LINE",
"563 580 LINE",
"563 370 LINE SMOOTH",
"563 349.104 OFFCURVE",
"544.896 331 OFFCURVE",
"524 331 CURVE SMOOTH",
"136 331 LINE",
"136 770 LINE",
"54 770 LINE",
"54 0 LINE",
"54 0 LINE"
);
}
);
width = 669;
},
{
layerId = "D465923C-ABAE-4975-85A4-08C1BC9DA335";
paths = (
{
closed = 1;
nodes = (
"207 0 LINE",
"207 213 LINE",
"456 213 LINE SMOOTH",
"478 213 OFFCURVE",
"489 213 OFFCURVE",
"489 213 CURVE",
"489 213 OFFCURVE",
"489 202 OFFCURVE",
"489 180 CURVE SMOOTH",
"489 0 LINE",
"642 0 LINE",
"642 222 LINE SMOOTH",
"642 243.891 OFFCURVE",
"625.945 269.104 OFFCURVE",
"615 290 CURVE",
"620.473 300.448 OFFCURVE",
"626.341 311.533 OFFCURVE",
"632.604 323.254 CURVE SMOOTH",
"638.868 334.975 OFFCURVE",
"642 346.557 OFFCURVE",
"642 358 CURVE SMOOTH",
"642 580 LINE",
"489 580 LINE",
"489 400 LINE SMOOTH",
"489 378 OFFCURVE",
"489 367 OFFCURVE",
"489 367 CURVE",
"489 367 OFFCURVE",
"478 367 OFFCURVE",
"456 367 CURVE SMOOTH",
"207 367 LINE",
"207 752 LINE",
"54 752 LINE",
"54 0 LINE",
"54 0 LINE"
);
}
);
width = 669;
}
);
},
{
color = 4;
glyphname = v.alt;
layers = (
{
layerId = "17A5F7C0-AED1-4270-89BA-BFDC1003B8A5";
paths = (
{
closed = 1;
nodes = (
"174 0 LINE",
"644 0 LINE",
"644 580 LINE",
"562 580 LINE",
"562 82 LINE",
"174 82 LINE SMOOTH",
"153.104 82 OFFCURVE",
"135 100.104 OFFCURVE",
"135 121 CURVE SMOOTH",
"135 580 LINE",
"53 580 LINE",
"53 121 LINE SMOOTH",
"53 54.333 OFFCURVE",
"107.333 0 OFFCURVE",
"174 0 CURVE"
);
}
);
width = 697;
},
{
layerId = "D465923C-ABAE-4975-85A4-08C1BC9DA335";
paths = (
{
closed = 1;
nodes = (
"198 0 LINE",
"641 0 LINE",
"641 580 LINE",
"488 580 LINE",
"488 153 LINE",
"239 153 LINE SMOOTH",
"217 153 OFFCURVE",
"206 153 OFFCURVE",
"206 153 CURVE",
"206 153 OFFCURVE",
"206 164 OFFCURVE",
"206 186 CURVE SMOOTH",
"206 580 LINE",
"53 580 LINE",
"53 145 LINE SMOOTH",
"53 66.393 OFFCURVE",
"118.399 0 OFFCURVE",
"198 0 CURVE"
);
}
);
width = 697;
}
);
},
{
color = 4;
glyphname = w.alt;
layers = (
{
layerId = "17A5F7C0-AED1-4270-89BA-BFDC1003B8A5";
paths = (
{
closed = 1;
nodes = (
"175 0 LINE",
"940 0 LINE",
"940 580 LINE",
"858 580 LINE",
"858 121 LINE SMOOTH",
"858 100.104 OFFCURVE",
"839.896 82 OFFCURVE",
"819 82 CURVE SMOOTH",
"576 82 LINE SMOOTH",
"555.104 82 OFFCURVE",
"537 100.104 OFFCURVE",
"537 121 CURVE SMOOTH",
"537 580 LINE",
"455 580 LINE",
"455 121 LINE SMOOTH",
"455 100.104 OFFCURVE",
"436.896 82 OFFCURVE",
"416 82 CURVE SMOOTH",
"175 82 LINE SMOOTH",
"153.109 82 OFFCURVE",
"135 100.104 OFFCURVE",
"135 121 CURVE SMOOTH",
"135 580 LINE",
"53 580 LINE",
"53 121 LINE SMOOTH",
"53 54.333 OFFCURVE",
"107.339 0 OFFCURVE",
"175 0 CURVE"
);
}
);
width = 978;
},
{
layerId = "D465923C-ABAE-4975-85A4-08C1BC9DA335";
paths = (
{
closed = 1;
nodes = (
"199 0 LINE",
"896 0 LINE",
"896 580 LINE",
"743 580 LINE",
"743 186 LINE SMOOTH",
"743 164 OFFCURVE",
"743 153 OFFCURVE",
"743 153 CURVE",
"743 153 OFFCURVE",
"732 153 OFFCURVE",
"710 153 CURVE SMOOTH",
"584 153 LINE SMOOTH",
"562 153 OFFCURVE",
"551 153 OFFCURVE",
"551 153 CURVE",
"551 153 OFFCURVE",
"551 164 OFFCURVE",
"551 186 CURVE SMOOTH",
"551 580 LINE",
"397 580 LINE",
"397 186 LINE SMOOTH",
"397 164 OFFCURVE",
"397 153 OFFCURVE",
"397 153 CURVE",
"397 153 OFFCURVE",
"386 153 OFFCURVE",
"364 153 CURVE SMOOTH",
"238 153 LINE SMOOTH",
"216 153 OFFCURVE",
"205 153 OFFCURVE",
"205 153 CURVE",
"205 153 OFFCURVE",
"205 164 OFFCURVE",
"205 186 CURVE SMOOTH",
"205 580 LINE",
"53 580 LINE",
"53 145 LINE SMOOTH",
"53 66.393 OFFCURVE",
"119.399 0 OFFCURVE",
"199 0 CURVE"
);
}
);
width = 978;
}
);
},
{
color = 4;
glyphname = x.alt;
layers = (
{
layerId = "17A5F7C0-AED1-4270-89BA-BFDC1003B8A5";
paths = (
{
closed = 1;
nodes = (
"136 0 LINE",
"136 210 LINE SMOOTH",
"136 230.896 OFFCURVE",
"154.109 249 OFFCURVE",
"176 249 CURVE SMOOTH",
"524 249 LINE SMOOTH",
"544.896 249 OFFCURVE",
"563 230.896 OFFCURVE",
"563 210 CURVE SMOOTH",
"563 0 LINE",
"645 0 LINE",
"645 210 LINE SMOOTH",
"645 235.871 OFFCURVE",
"633.911 265.124 OFFCURVE",
"616 290 CURVE",
"633.911 314.876 OFFCURVE",
"645 344.129 OFFCURVE",
"645 370 CURVE SMOOTH",
"645 580 LINE",
"563 580 LINE",
"563 370 LINE SMOOTH",
"563 349.104 OFFCURVE",
"544.896 331 OFFCURVE",
"524 331 CURVE SMOOTH",
"176 331 LINE SMOOTH",
"154.109 331 OFFCURVE",
"136 349.104 OFFCURVE",
"136 370 CURVE SMOOTH",
"136 580 LINE",
"54 580 LINE",
"54 370 LINE SMOOTH",
"54 344.129 OFFCURVE",
"65.089 314.876 OFFCURVE",
"83 290 CURVE",
"65.089 265.124 OFFCURVE",
"54 235.871 OFFCURVE",
"54 210 CURVE SMOOTH",
"54 0 LINE",
"54 0 LINE"
);
}
);
width = 698;
},
{
layerId = "D465923C-ABAE-4975-85A4-08C1BC9DA335";
paths = (
{
closed = 1;
nodes = (
"207 0 LINE",
"207 180 LINE SMOOTH",
"207 202 OFFCURVE",
"207 213 OFFCURVE",
"207 213 CURVE",
"207 213 OFFCURVE",
"218 213 OFFCURVE",
"240 213 CURVE SMOOTH",
"456 213 LINE SMOOTH",
"478 213 OFFCURVE",
"489 213 OFFCURVE",
"489 213 CURVE",
"489 213 OFFCURVE",
"489 202 OFFCURVE",
"489 180 CURVE SMOOTH",
"489 0 LINE",
"642 0 LINE",
"642 222 LINE SMOOTH",
"642 243.891 OFFCURVE",
"625.945 269.104 OFFCURVE",
"615 290 CURVE",
"620.473 300.448 OFFCURVE",
"626.341 311.533 OFFCURVE",
"632.604 323.254 CURVE SMOOTH",
"638.868 334.975 OFFCURVE",
"642 346.557 OFFCURVE",
"642 358 CURVE SMOOTH",
"642 580 LINE",
"489 580 LINE",
"489 400 LINE SMOOTH",
"489 378 OFFCURVE",
"489 367 OFFCURVE",
"489 367 CURVE",
"489 367 OFFCURVE",
"478 367 OFFCURVE",
"456 367 CURVE SMOOTH",
"240 367 LINE SMOOTH",
"218 367 OFFCURVE",
"207 367 OFFCURVE",
"207 367 CURVE",
"207 367 OFFCURVE",
"207 378 OFFCURVE",
"207 400 CURVE SMOOTH",
"207 580 LINE",
"54 580 LINE",
"54 358 LINE SMOOTH",
"54 346.557 OFFCURVE",
"57.132 334.975 OFFCURVE",
"63.395 323.254 CURVE SMOOTH",
"69.659 311.533 OFFCURVE",
"75.527 300.448 OFFCURVE",
"81 290 CURVE",
"70.055 269.104 OFFCURVE",
"54 243.891 OFFCURVE",
"54 222 CURVE SMOOTH",
"54 0 LINE",
"54 0 LINE"
);
}
);
width = 698;
}
);
},
{
color = 4;
glyphname = z.alt;
layers = (
{
layerId = "17A5F7C0-AED1-4270-89BA-BFDC1003B8A5";
paths = (
{
closed = 1;
nodes = (
"172 0 LINE",
"642 0 LINE",
"642 82 LINE",
"172 82 LINE SMOOTH",
"151.104 82 OFFCURVE",
"133 100.104 OFFCURVE",
"133 121 CURVE SMOOTH",
"133 210 LINE SMOOTH",
"133 230.896 OFFCURVE",
"151.104 249 OFFCURVE",
"172 249 CURVE SMOOTH",
"520 249 LINE SMOOTH",
"587.661 249 OFFCURVE",
"642 303.333 OFFCURVE",
"642 370 CURVE SMOOTH",
"642 459 LINE SMOOTH",
"642 525.667 OFFCURVE",
"587.661 580 OFFCURVE",
"520 580 CURVE SMOOTH",
"51 580 LINE",
"51 498 LINE",
"520 498 LINE SMOOTH",
"541.891 498 OFFCURVE",
"559 479.896 OFFCURVE",
"559 459 CURVE SMOOTH",
"559 370 LINE SMOOTH",
"559 349.104 OFFCURVE",
"541.891 331 OFFCURVE",
"520 331 CURVE SMOOTH",
"172 331 LINE SMOOTH",
"105.333 331 OFFCURVE",
"51 276.667 OFFCURVE",
"51 210 CURVE SMOOTH",
"51 121 LINE SMOOTH",
"51 54.333 OFFCURVE",
"105.333 0 OFFCURVE",
"172 0 CURVE"
);
}
);
width = 692;
},
{
layerId = "D465923C-ABAE-4975-85A4-08C1BC9DA335";
paths = (
{
closed = 1;
nodes = (
"196 0 LINE",
"639 0 LINE",
"639 153 LINE",
"220 153 LINE SMOOTH",
"209.333 153 OFFCURVE",
"204 153 OFFCURVE",
"204 153 CURVE",
"204 153 OFFCURVE",
"204 158.333 OFFCURVE",
"204 169 CURVE SMOOTH",
"204 197 LINE SMOOTH",
"204 207.667 OFFCURVE",
"204 213 OFFCURVE",
"204 213 CURVE",
"204 213 OFFCURVE",
"209.333 213 OFFCURVE",
"220 213 CURVE SMOOTH",
"494 213 LINE SMOOTH",
"573.601 213 OFFCURVE",
"639 279.393 OFFCURVE",
"639 358 CURVE SMOOTH",
"639 435 LINE SMOOTH",
"639 513.607 OFFCURVE",
"573.601 580 OFFCURVE",
"494 580 CURVE SMOOTH",
"51 580 LINE",
"51 427 LINE",
"470 427 LINE SMOOTH",
"480.667 427 OFFCURVE",
"486 427 OFFCURVE",
"486 427 CURVE",
"486 427 OFFCURVE",
"486 421.667 OFFCURVE",
"486 411 CURVE SMOOTH",
"486 383 LINE SMOOTH",
"486 372.333 OFFCURVE",
"486 367 OFFCURVE",
"486 367 CURVE",
"486 367 OFFCURVE",
"480.667 367 OFFCURVE",
"470 367 CURVE SMOOTH",
"196 367 LINE SMOOTH",
"117.393 367 OFFCURVE",
"51 300.607 OFFCURVE",
"51 222 CURVE SMOOTH",
"51 145 LINE SMOOTH",
"51 66.393 OFFCURVE",
"117.393 0 OFFCURVE",
"196 0 CURVE"
);
}
);
width = 692;
}
);
},
{
color = 4;
export = 0;
glyphname = eth;
layers = (
{
layerId = "17A5F7C0-AED1-4270-89BA-BFDC1003B8A5";
paths = (
{
closed = 1;
nodes = (
"145 0 LINE",
"614 0 LINE",
"614 647 LINE",
"667 647 LINE",
"667 710 LINE",
"614 710 LINE",
"614 770 LINE",
"532 770 LINE",
"532 710 LINE",
"382 710 LINE",
"382 647 LINE",
"532 647 LINE",
"532 580 LINE",
"145 580 LINE SMOOTH",
"79.667 580 OFFCURVE",
"23 532.333 OFFCURVE",
"23 459 CURVE SMOOTH",
"23 121 LINE SMOOTH",
"23 47.667 OFFCURVE",
"79.667 0 OFFCURVE",
"145 0 CURVE"
);
},
{
closed = 1;
nodes = (
"122.333 82 OFFCURVE",
"106 91.667 OFFCURVE",
"106 121 CURVE SMOOTH",
"106 459 LINE SMOOTH",
"106 488.333 OFFCURVE",
"122.333 498 OFFCURVE",
"145 498 CURVE SMOOTH",
"493 498 LINE SMOOTH",
"519.667 498 OFFCURVE",
"532 475 OFFCURVE",
"532 459 CURVE SMOOTH",
"532 121 LINE SMOOTH",
"532 105 OFFCURVE",
"519.667 82 OFFCURVE",
"493 82 CURVE SMOOTH",
"145 82 LINE",
"145 82 LINE"
);
}
);
width = 667;
},
{
layerId = "D465923C-ABAE-4975-85A4-08C1BC9DA335";
paths = (
{
closed = 1;
nodes = (
"168 0 LINE",
"612 0 LINE",
"612 647 LINE",
"667 647 LINE",
"667 710 LINE",
"612 710 LINE",
"612 770 LINE",
"459 770 LINE",
"459 710 LINE",
"322 710 LINE",
"322 647 LINE",
"459 647 LINE",
"459 580 LINE",
"168 580 LINE SMOOTH",
"76 580 OFFCURVE",
"23 513.667 OFFCURVE",
"23 435 CURVE SMOOTH",
"23 145 LINE SMOOTH",
"23 53 OFFCURVE",
"89.333 0 OFFCURVE",
"168 0 CURVE"
);
},
{
closed = 1;
nodes = (
"188 153 OFFCURVE",
"177 153 OFFCURVE",
"177 153 CURVE",
"177 153 OFFCURVE",
"177 164 OFFCURVE",
"177 186 CURVE SMOOTH",
"177 394 LINE SMOOTH",
"177 416 OFFCURVE",
"177 427 OFFCURVE",
"177 427 CURVE",
"177 427 OFFCURVE",
"188 427 OFFCURVE",
"210 427 CURVE SMOOTH",
"426 427 LINE SMOOTH",
"448 427 OFFCURVE",
"459 427 OFFCURVE",
"459 427 CURVE",
"459 427 OFFCURVE",
"459 416 OFFCURVE",
"459 394 CURVE SMOOTH",
"459 186 LINE SMOOTH",
"459 164 OFFCURVE",
"459 153 OFFCURVE",
"459 153 CURVE",
"459 153 OFFCURVE",
"448 153 OFFCURVE",
"426 153 CURVE SMOOTH",
"210 153 LINE",
"210 153 LINE"
);
}
);
width = 667;
}
);
unicode = 00F0;
},
{
color = 4;
export = 0;
glyphname = oslash;
layers = (
{
anchors = (
{
name = bottom;
position = "{345, 0}";
},
{
name = top;
position = "{345, 580}";
}
);
layerId = "17A5F7C0-AED1-4270-89BA-BFDC1003B8A5";
paths = (
{
closed = 1;
nodes = (
"58 -66 LINE",
"124 0 LINE",
"517 0 LINE SMOOTH",
"585 0 OFFCURVE",
"639 54.333 OFFCURVE",
"639 121 CURVE SMOOTH",
"639 515 LINE",
"692 568 LINE",
"634 626 LINE",
"588 580 LINE",
"169 580 LINE SMOOTH",
"102.333 580 OFFCURVE",
"48 525.667 OFFCURVE",
"48 459 CURVE SMOOTH",
"48 40 LINE",
"0 -8 LINE",
"0 -8 LINE"
);
},
{
closed = 1;
nodes = (
"130 459 LINE SMOOTH",
"130 480.333 OFFCURVE",
"147.667 498 OFFCURVE",
"169 498 CURVE SMOOTH",
"506 498 LINE",
"130 122 LINE",
"130 122 LINE"
);
},
{
closed = 1;
nodes = (
"556 432 LINE",
"556 121 LINE SMOOTH",
"556 99.667 OFFCURVE",
"538.333 82 OFFCURVE",
"517 82 CURVE SMOOTH",
"206 82 LINE",
"206 82 LINE"
);
}
);
width = 692;
},
{
anchors = (
{
name = bottom;
position = "{342, -2}";
},
{
name = top;
position = "{342, 578}";
}
);
layerId = "D465923C-ABAE-4975-85A4-08C1BC9DA335";
paths = (
{
closed = 1;
nodes = (
"73 -90 LINE",
"163 0 LINE",
"491 0 LINE SMOOTH",
"583 0 OFFCURVE",
"636 53 OFFCURVE",
"636 145 CURVE SMOOTH",
"636 473 LINE",
"715 552 LINE",
"606 662 LINE",
"524 580 LINE",
"193 580 LINE SMOOTH",
"101 580 OFFCURVE",
"48 527 OFFCURVE",
"48 435 CURVE SMOOTH",
"48 104 LINE",
"-36 20 LINE",
"-36 20 LINE"
);
},
{
closed = 1;
nodes = (
"201 394 LINE SMOOTH",
"201 416 OFFCURVE",
"201 427 OFFCURVE",
"201 427 CURVE",
"201 427 OFFCURVE",
"212 427 OFFCURVE",
"234 427 CURVE SMOOTH",
"371 427 LINE",
"201 257 LINE",
"201 257 LINE"
);
},
{
closed = 1;
nodes = (
"483 320 LINE",
"483 186 LINE SMOOTH",
"483 164 OFFCURVE",
"483 153 OFFCURVE",
"483 153 CURVE",
"483 153 OFFCURVE",
"472 153 OFFCURVE",
"450 153 CURVE SMOOTH",
"316 153 LINE",
"316 153 LINE"
);
}
);
width = 692;
}
);
unicode = 00F8;
},
{
color = 4;
export = 0;
glyphname = thorn;
layers = (
{
layerId = "17A5F7C0-AED1-4270-89BA-BFDC1003B8A5";
paths = (
{
closed = 1;
nodes = (
"136 -230 LINE",
"136 0 LINE",
"524 0 LINE SMOOTH",
"590.667 0 OFFCURVE",
"645 54.333 OFFCURVE",
"645 121 CURVE SMOOTH",
"645 349 LINE SMOOTH",
"645 415.667 OFFCURVE",
"590.667 470 OFFCURVE",
"524 470 CURVE SMOOTH",
"136 470 LINE",
"136 720 LINE",
"54 720 LINE",
"54 -230 LINE",
"54 -230 LINE"
);
},
{
closed = 1;
nodes = (
"154.109 82 OFFCURVE",
"136 100.104 OFFCURVE",
"136 121 CURVE SMOOTH",
"136 349 LINE SMOOTH",
"136 370.333 OFFCURVE",
"154.667 388 OFFCURVE",
"176 388 CURVE SMOOTH",
"524 388 LINE SMOOTH",
"545.333 388 OFFCURVE",
"563 370.333 OFFCURVE",
"563 349 CURVE SMOOTH",
"563 121 LINE SMOOTH",
"563 100.104 OFFCURVE",
"544.896 82 OFFCURVE",
"524 82 CURVE SMOOTH",
"176 82 LINE",
"176 82 LINE"
);
}
);
width = 664;
},
{
layerId = "D465923C-ABAE-4975-85A4-08C1BC9DA335";
paths = (
{
closed = 1;
nodes = (
"207 -230 LINE",
"207 0 LINE",
"497 0 LINE SMOOTH",
"576.601 0 OFFCURVE",
"642 66.393 OFFCURVE",
"642 145 CURVE SMOOTH",
"642 365 LINE SMOOTH",
"642 443.667 OFFCURVE",
"577 510 OFFCURVE",
"497 510 CURVE SMOOTH",
"212 510 LINE",
"212 720 LINE",
"54 720 LINE",
"54 -230 LINE",
"54 -230 LINE"
);
},
{
closed = 1;
nodes = (
"218 153 OFFCURVE",
"207 153 OFFCURVE",
"207 153 CURVE",
"207 153 OFFCURVE",
"207 164 OFFCURVE",
"207 186 CURVE SMOOTH",
"207 324 LINE SMOOTH",
"207 346 OFFCURVE",
"207 357 OFFCURVE",
"207 357 CURVE",
"207 357 OFFCURVE",
"218 357 OFFCURVE",
"240 357 CURVE SMOOTH",
"456 357 LINE SMOOTH",
"478 357 OFFCURVE",
"489 357 OFFCURVE",
"489 357 CURVE",
"489 357 OFFCURVE",
"489 346 OFFCURVE",
"489 324 CURVE SMOOTH",
"489 186 LINE SMOOTH",
"489 164 OFFCURVE",
"489 153 OFFCURVE",
"489 153 CURVE",
"489 153 OFFCURVE",
"478 153 OFFCURVE",
"456 153 CURVE SMOOTH",
"240 153 LINE",
"240 153 LINE"
);
}
);
width = 664;
}
);
unicode = 00FE;
},
{
color = 4;
glyphname = a.sc;
layers = (
{
layerId = "17A5F7C0-AED1-4270-89BA-BFDC1003B8A5";
paths = (
{
closed = 1;
nodes = (
"135 0 LINE",
"135 160 LINE",
"593 160 LINE",
"593 0 LINE",
"675 0 LINE",
"675 459 LINE SMOOTH",
"675 525.667 OFFCURVE",
"620.667 580 OFFCURVE",
"554 580 CURVE SMOOTH",
"174 580 LINE SMOOTH",
"107.333 580 OFFCURVE",
"53 525.667 OFFCURVE",
"53 459 CURVE SMOOTH",
"53 0 LINE",
"53 0 LINE"
);
},
{
closed = 1;
nodes = (
"135 459 LINE SMOOTH",
"135 479.896 OFFCURVE",
"153.104 498 OFFCURVE",
"174 498 CURVE SMOOTH",
"554 498 LINE SMOOTH",
"574.896 498 OFFCURVE",
"593 479.896 OFFCURVE",
"593 459 CURVE SMOOTH",
"593 243 LINE",
"135 243 LINE",
"135 243 LINE"
);
}
);
width = 725;
},
{
layerId = "D465923C-ABAE-4975-85A4-08C1BC9DA335";
paths = (
{
closed = 1;
nodes = (
"206 0 LINE",
"206 138 LINE",
"516 138 LINE",
"516 0 LINE",
"669 0 LINE",
"669 435 LINE SMOOTH",
"669 513.607 OFFCURVE",
"603.601 580 OFFCURVE",
"524 580 CURVE SMOOTH",
"199 580 LINE SMOOTH",
"119.399 580 OFFCURVE",
"53 513.607 OFFCURVE",
"53 435 CURVE SMOOTH",
"53 0 LINE",
"53 0 LINE"
);
},
{
closed = 1;
nodes = (
"206 394 LINE SMOOTH",
"206 416 OFFCURVE",
"206 427 OFFCURVE",
"206 427 CURVE",
"206 427 OFFCURVE",
"217 427 OFFCURVE",
"239 427 CURVE SMOOTH",
"483 427 LINE SMOOTH",
"505 427 OFFCURVE",
"516 427 OFFCURVE",
"516 427 CURVE",
"516 427 OFFCURVE",
"516 416 OFFCURVE",
"516 394 CURVE SMOOTH",
"516 291 LINE",
"206 291 LINE",
"206 291 LINE"
);
}
);
width = 725;
}
);
},
{
color = 4;
glyphname = b.sc;
layers = (
{
layerId = "17A5F7C0-AED1-4270-89BA-BFDC1003B8A5";
paths = (
{
closed = 1;
nodes = (
"534 0 LINE SMOOTH",
"600.667 0 OFFCURVE",
"655 54.333 OFFCURVE",
"655 121 CURVE SMOOTH",
"655 207 LINE SMOOTH",
"655 240.831 OFFCURVE",
"640.213 268.109 OFFCURVE",
"611 314 CURVE",
"617.965 329.92 OFFCURVE",
"624 348.095 OFFCURVE",
"624 367 CURVE SMOOTH",
"624 460 LINE SMOOTH",
"624 526.667 OFFCURVE",
"569.661 581 OFFCURVE",
"502 581 CURVE SMOOTH",
"54 581 LINE",
"54 0 LINE",
"54 0 LINE"
);
},
{
closed = 1;
nodes = (
"154.104 82 OFFCURVE",
"136 100.104 OFFCURVE",
"136 121 CURVE SMOOTH",
"136 207 LINE SMOOTH",
"136 227.896 OFFCURVE",
"154.104 246 OFFCURVE",
"175 246 CURVE SMOOTH",
"534 246 LINE SMOOTH",
"554.896 246 OFFCURVE",
"573 227.896 OFFCURVE",
"573 207 CURVE SMOOTH",
"573 121 LINE SMOOTH",
"573 100.104 OFFCURVE",
"554.896 82 OFFCURVE",
"534 82 CURVE SMOOTH",
"175 82 LINE",
"175 82 LINE"
);
},
{
closed = 1;
nodes = (
"154.104 328 OFFCURVE",
"136 346.104 OFFCURVE",
"136 367 CURVE SMOOTH",
"136 460 LINE SMOOTH",
"136 480.896 OFFCURVE",
"154.104 499 OFFCURVE",
"175 499 CURVE SMOOTH",
"502 499 LINE SMOOTH",
"522.896 499 OFFCURVE",
"541 480.896 OFFCURVE",
"541 460 CURVE SMOOTH",
"541 367 LINE SMOOTH",
"541 346.104 OFFCURVE",
"522.896 328 OFFCURVE",
"502 328 CURVE SMOOTH",
"175 328 LINE",
"175 328 LINE"
);
}
);
width = 700;
},
{
layerId = "D465923C-ABAE-4975-85A4-08C1BC9DA335";
paths = (
{
closed = 1;
nodes = (
"507 0 LINE SMOOTH",
"585.607 0 OFFCURVE",
"652 66.393 OFFCURVE",
"652 145 CURVE SMOOTH",
"652 219 LINE SMOOTH",
"652 253.825 OFFCURVE",
"639.896 286.124 OFFCURVE",
"619 311 CURVE",
"622.98 324.931 OFFCURVE",
"624 339.084 OFFCURVE",
"624 356 CURVE SMOOTH",
"624 435 LINE SMOOTH",
"624 514.603 OFFCURVE",
"558.601 581 OFFCURVE",
"479 581 CURVE SMOOTH",
"54 581 LINE",
"54 0 LINE",
"54 0 LINE"
);
},
{
closed = 1;
nodes = (
"212.333 153 OFFCURVE",
"207 153 OFFCURVE",
"207 153 CURVE",
"207 153 OFFCURVE",
"207 158.333 OFFCURVE",
"207 169 CURVE SMOOTH",
"207 205 LINE SMOOTH",
"207 215.667 OFFCURVE",
"207 221 OFFCURVE",
"207 221 CURVE",
"207 221 OFFCURVE",
"212.333 221 OFFCURVE",
"223 221 CURVE SMOOTH",
"483 221 LINE SMOOTH",
"493.667 221 OFFCURVE",
"499 221 OFFCURVE",
"499 221 CURVE",
"499 221 OFFCURVE",
"499 215.667 OFFCURVE",
"499 205 CURVE SMOOTH",
"499 169 LINE SMOOTH",
"499 158.333 OFFCURVE",
"499 153 OFFCURVE",
"499 153 CURVE",
"499 153 OFFCURVE",
"493.667 153 OFFCURVE",
"483 153 CURVE SMOOTH",
"223 153 LINE",
"223 153 LINE"
);
},
{
closed = 1;
nodes = (
"212.333 364 OFFCURVE",
"207 364 OFFCURVE",
"207 364 CURVE",
"207 364 OFFCURVE",
"207 369.333 OFFCURVE",
"207 380 CURVE SMOOTH",
"207 422 LINE SMOOTH",
"207 432.667 OFFCURVE",
"207 438 OFFCURVE",
"207 438 CURVE",
"207 438 OFFCURVE",
"212.333 438 OFFCURVE",
"223 438 CURVE SMOOTH",
"455 438 LINE SMOOTH",
"465.667 438 OFFCURVE",
"471 438 OFFCURVE",
"471 438 CURVE",
"471 438 OFFCURVE",
"471 432.667 OFFCURVE",
"471 422 CURVE SMOOTH",
"471 380 LINE SMOOTH",
"471 369.333 OFFCURVE",
"471 364 OFFCURVE",
"471 364 CURVE",
"471 364 OFFCURVE",
"465.667 364 OFFCURVE",
"455 364 CURVE SMOOTH",
"223 364 LINE",
"223 364 LINE"
);
}
);
width = 700;
}
);
},
{
color = 4;
glyphname = c.sc;
layers = (
{
layerId = "17A5F7C0-AED1-4270-89BA-BFDC1003B8A5";
paths = (
{
closed = 1;
nodes = (
"172 0 LINE",
"640 0 LINE",
"640 82 LINE",
"172 82 LINE SMOOTH",
"151.104 82 OFFCURVE",
"133 100.104 OFFCURVE",
"133 121 CURVE SMOOTH",
"133 460 LINE SMOOTH",
"133 480.896 OFFCURVE",
"151.104 499 OFFCURVE",
"172 499 CURVE SMOOTH",
"640 499 LINE",
"640 581 LINE",
"172 581 LINE SMOOTH",
"105.333 581 OFFCURVE",
"51 526.667 OFFCURVE",
"51 460 CURVE SMOOTH",
"51 121 LINE SMOOTH",
"51 54.333 OFFCURVE",
"105.333 0 OFFCURVE",
"172 0 CURVE"
);
}
);
width = 693;
},
{
layerId = "D465923C-ABAE-4975-85A4-08C1BC9DA335";
paths = (
{
closed = 1;
nodes = (
"196 0 LINE",
"638 0 LINE",
"638 153 LINE",
"237 153 LINE SMOOTH",
"215 153 OFFCURVE",
"204 153 OFFCURVE",
"204 153 CURVE",
"204 153 OFFCURVE",
"204 164 OFFCURVE",
"204 186 CURVE SMOOTH",
"204 395 LINE SMOOTH",
"204 417 OFFCURVE",
"204 428 OFFCURVE",
"204 428 CURVE",
"204 428 OFFCURVE",
"215 428 OFFCURVE",
"237 428 CURVE SMOOTH",
"638 428 LINE",
"638 581 LINE",
"196 581 LINE SMOOTH",
"116.399 581 OFFCURVE",
"51 514.603 OFFCURVE",
"51 435 CURVE SMOOTH",
"51 145 LINE SMOOTH",
"51 66.393 OFFCURVE",
"116.399 0 OFFCURVE",
"196 0 CURVE"
);
}
);
width = 693;
}
);
},
{
color = 4;
glyphname = d.sc;
layers = (
{
layerId = "17A5F7C0-AED1-4270-89BA-BFDC1003B8A5";
paths = (
{
closed = 1;
nodes = (
"534 0 LINE SMOOTH",
"600.667 0 OFFCURVE",
"655 54.333 OFFCURVE",
"655 121 CURVE SMOOTH",
"655 460 LINE SMOOTH",
"655 526.667 OFFCURVE",
"600.667 581 OFFCURVE",
"534 581 CURVE SMOOTH",
"54 581 LINE",
"54 0 LINE",
"54 0 LINE"
);
},
{
closed = 1;
nodes = (
"154.104 82 OFFCURVE",
"136 100.104 OFFCURVE",
"136 121 CURVE SMOOTH",
"136 460 LINE SMOOTH",
"136 480.896 OFFCURVE",
"154.104 499 OFFCURVE",
"175 499 CURVE SMOOTH",
"534 499 LINE SMOOTH",
"554.896 499 OFFCURVE",
"573 480.896 OFFCURVE",
"573 460 CURVE SMOOTH",
"573 121 LINE SMOOTH",
"573 100.104 OFFCURVE",
"554.896 82 OFFCURVE",
"534 82 CURVE SMOOTH",
"175 82 LINE",
"175 82 LINE"
);
}
);
width = 705;
},
{
layerId = "D465923C-ABAE-4975-85A4-08C1BC9DA335";
paths = (
{
closed = 1;
nodes = (
"507 0 LINE SMOOTH",
"585.607 0 OFFCURVE",
"652 66.393 OFFCURVE",
"652 145 CURVE SMOOTH",
"652 435 LINE SMOOTH",
"652 514.603 OFFCURVE",
"585.607 581 OFFCURVE",
"507 581 CURVE SMOOTH",
"54 581 LINE",
"54 0 LINE",
"54 0 LINE"
);
},
{
closed = 1;
nodes = (
"218 153 OFFCURVE",
"207 153 OFFCURVE",
"207 153 CURVE",
"207 153 OFFCURVE",
"207 164 OFFCURVE",
"207 186 CURVE SMOOTH",
"207 395 LINE SMOOTH",
"207 417 OFFCURVE",
"207 428 OFFCURVE",
"207 428 CURVE",
"207 428 OFFCURVE",
"218 428 OFFCURVE",
"240 428 CURVE SMOOTH",
"466 428 LINE SMOOTH",
"488 428 OFFCURVE",
"499 428 OFFCURVE",
"499 428 CURVE",
"499 428 OFFCURVE",
"499 417 OFFCURVE",
"499 395 CURVE SMOOTH",
"499 186 LINE SMOOTH",
"499 164 OFFCURVE",
"499 153 OFFCURVE",
"499 153 CURVE",
"499 153 OFFCURVE",
"488 153 OFFCURVE",
"466 153 CURVE SMOOTH",
"240 153 LINE",
"240 153 LINE"
);
}
);
width = 705;
}
);
},
{
color = 4;
glyphname = e.sc;
layers = (
{
layerId = "17A5F7C0-AED1-4270-89BA-BFDC1003B8A5";
paths = (
{
closed = 1;
nodes = (
"581 0 LINE",
"581 82 LINE",
"136 82 LINE",
"136 249 LINE",
"467 249 LINE",
"467 331 LINE",
"136 331 LINE",
"136 499 LINE",
"581 499 LINE",
"581 581 LINE",
"54 581 LINE",
"54 0 LINE",
"54 0 LINE"
);
}
);
width = 638;
},
{
layerId = "D465923C-ABAE-4975-85A4-08C1BC9DA335";
paths = (
{
closed = 1;
nodes = (
"589 0 LINE",
"589 153 LINE",
"207 153 LINE",
"207 213 LINE",
"492 213 LINE",
"492 367 LINE",
"207 367 LINE",
"207 428 LINE",
"589 428 LINE",
"589 581 LINE",
"54 581 LINE",
"54 0 LINE",
"54 0 LINE"
);
}
);
width = 638;
}
);
},
{
color = 4;
glyphname = f.sc;
layers = (
{
layerId = "17A5F7C0-AED1-4270-89BA-BFDC1003B8A5";
paths = (
{
closed = 1;
nodes = (
"136 0 LINE",
"136 249 LINE",
"467 249 LINE",
"467 331 LINE",
"136 331 LINE",
"136 499 LINE",
"581 499 LINE",
"581 581 LINE",
"54 581 LINE",
"54 0 LINE",
"54 0 LINE"
);
}
);
width = 591;
},
{
layerId = "D465923C-ABAE-4975-85A4-08C1BC9DA335";
paths = (
{
closed = 1;
nodes = (
"207 0 LINE",
"207 213 LINE",
"492 213 LINE",
"492 367 LINE",
"207 367 LINE",
"207 428 LINE",
"589 428 LINE",
"589 581 LINE",
"54 581 LINE",
"54 0 LINE",
"54 0 LINE"
);
}
);
width = 591;
}
);
},
{
color = 4;
glyphname = g.sc;
layers = (
{
layerId = "17A5F7C0-AED1-4270-89BA-BFDC1003B8A5";
paths = (
{
closed = 1;
nodes = (
"172 0 LINE",
"520 0 LINE SMOOTH",
"587.661 0 OFFCURVE",
"642 54.333 OFFCURVE",
"642 121 CURVE SMOOTH",
"642 299 LINE",
"380 299 LINE",
"380 217 LINE",
"559 217 LINE",
"559 121 LINE SMOOTH",
"559 100.104 OFFCURVE",
"541.891 82 OFFCURVE",
"520 82 CURVE SMOOTH",
"172 82 LINE SMOOTH",
"151.104 82 OFFCURVE",
"133 100.104 OFFCURVE",
"133 121 CURVE SMOOTH",
"133 460 LINE SMOOTH",
"133 480.896 OFFCURVE",
"151.104 499 OFFCURVE",
"172 499 CURVE SMOOTH",
"520 499 LINE SMOOTH",
"541.891 499 OFFCURVE",
"559 480.896 OFFCURVE",
"559 460 CURVE SMOOTH",
"559 446 LINE",
"642 446 LINE",
"642 460 LINE SMOOTH",
"642 526.667 OFFCURVE",
"587.661 581 OFFCURVE",
"520 581 CURVE SMOOTH",
"172 581 LINE SMOOTH",
"105.333 581 OFFCURVE",
"51 526.667 OFFCURVE",
"51 460 CURVE SMOOTH",
"51 121 LINE SMOOTH",
"51 54.333 OFFCURVE",
"105.333 0 OFFCURVE",
"172 0 CURVE"
);
}
);
width = 690;
},
{
layerId = "D465923C-ABAE-4975-85A4-08C1BC9DA335";
paths = (
{
closed = 1;
nodes = (
"196 0 LINE",
"494 0 LINE SMOOTH",
"573.601 0 OFFCURVE",
"639 66.393 OFFCURVE",
"639 145 CURVE SMOOTH",
"639 339 LINE",
"342 339 LINE",
"342 196 LINE",
"486 196 LINE",
"486 169 LINE SMOOTH",
"486 158.333 OFFCURVE",
"486 153 OFFCURVE",
"486 153 CURVE",
"486 153 OFFCURVE",
"480.667 153 OFFCURVE",
"470 153 CURVE SMOOTH",
"237 153 LINE SMOOTH",
"215 153 OFFCURVE",
"204 153 OFFCURVE",
"204 153 CURVE",
"204 153 OFFCURVE",
"204 164 OFFCURVE",
"204 186 CURVE SMOOTH",
"204 395 LINE SMOOTH",
"204 417 OFFCURVE",
"204 428 OFFCURVE",
"204 428 CURVE",
"204 428 OFFCURVE",
"215 428 OFFCURVE",
"237 428 CURVE SMOOTH",
"470 428 LINE SMOOTH",
"480.667 428 OFFCURVE",
"486 428 OFFCURVE",
"486 428 CURVE",
"486 428 OFFCURVE",
"486 422.667 OFFCURVE",
"486 412 CURVE SMOOTH",
"486 402 LINE",
"639 402 LINE",
"639 435 LINE SMOOTH",
"639 514.603 OFFCURVE",
"573.601 581 OFFCURVE",
"494 581 CURVE SMOOTH",
"196 581 LINE SMOOTH",
"117.393 581 OFFCURVE",
"51 514.603 OFFCURVE",
"51 435 CURVE SMOOTH",
"51 145 LINE SMOOTH",
"51 66.393 OFFCURVE",
"117.393 0 OFFCURVE",
"196 0 CURVE"
);
}
);
width = 690;
}
);
},
{
color = 4;
glyphname = h.sc;
layers = (
{
layerId = "17A5F7C0-AED1-4270-89BA-BFDC1003B8A5";
paths = (
{
closed = 1;
nodes = (
"136 0 LINE",
"136 249 LINE",
"580 249 LINE",
"580 0 LINE",
"662 0 LINE",
"662 580 LINE",
"580 580 LINE",
"580 331 LINE",
"136 331 LINE",
"136 580 LINE",
"54 580 LINE",
"54 0 LINE",
"54 0 LINE"
);
}
);
width = 715;
},
{
layerId = "D465923C-ABAE-4975-85A4-08C1BC9DA335";
paths = (
{
closed = 1;
nodes = (
"209 0 LINE",
"209 213 LINE",
"507 213 LINE",
"507 0 LINE",
"661 0 LINE",
"661 580 LINE",
"507 580 LINE",
"507 367 LINE",
"209 367 LINE",
"209 580 LINE",
"56 580 LINE",
"56 0 LINE",
"56 0 LINE"
);
}
);
width = 717;
}
);
},
{
color = 4;
glyphname = i.sc;
layers = (
{
layerId = "17A5F7C0-AED1-4270-89BA-BFDC1003B8A5";
paths = (
{
closed = 1;
nodes = (
"136 0 LINE",
"136 580 LINE",
"54 580 LINE",
"54 0 LINE",
"54 0 LINE"
);
}
);
width = 214;
},
{
layerId = "D465923C-ABAE-4975-85A4-08C1BC9DA335";
paths = (
{
closed = 1;
nodes = (
"207 0 LINE",
"207 580 LINE",
"54 580 LINE",
"54 0 LINE",
"54 0 LINE"
);
}
);
width = 214;
}
);
},
{
color = 4;
glyphname = j.sc;
layers = (
{
layerId = "17A5F7C0-AED1-4270-89BA-BFDC1003B8A5";
paths = (
{
closed = 1;
nodes = (
"126 0 LINE",
"485 0 LINE SMOOTH",
"551.667 0 OFFCURVE",
"606 54.333 OFFCURVE",
"606 121 CURVE SMOOTH",
"606 580 LINE",
"524 580 LINE",
"524 121 LINE SMOOTH",
"524 100.104 OFFCURVE",
"505.896 82 OFFCURVE",
"485 82 CURVE SMOOTH",
"126 82 LINE SMOOTH",
"105.104 82 OFFCURVE",
"87 100.104 OFFCURVE",
"87 121 CURVE SMOOTH",
"87 169 LINE",
"5 169 LINE",
"5 121 LINE SMOOTH",
"5 54.333 OFFCURVE",
"59.333 0 OFFCURVE",
"126 0 CURVE"
);
}
);
width = 657;
},
{
layerId = "D465923C-ABAE-4975-85A4-08C1BC9DA335";
paths = (
{
closed = 1;
nodes = (
"151 0 LINE",
"458 0 LINE SMOOTH",
"537.601 0 OFFCURVE",
"603 66.393 OFFCURVE",
"603 145 CURVE SMOOTH",
"603 580 LINE",
"450 580 LINE",
"450 186 LINE SMOOTH",
"450 164 OFFCURVE",
"450 153 OFFCURVE",
"450 153 CURVE",
"450 153 OFFCURVE",
"439 153 OFFCURVE",
"417 153 CURVE SMOOTH",
"191 153 LINE SMOOTH",
"169 153 OFFCURVE",
"158 153 OFFCURVE",
"158 153 CURVE",
"158 153 OFFCURVE",
"158 164 OFFCURVE",
"158 186 CURVE SMOOTH",
"158 227 LINE",
"5 227 LINE",
"5 145 LINE SMOOTH",
"5 66.393 OFFCURVE",
"71.399 0 OFFCURVE",
"151 0 CURVE"
);
}
);
width = 657;
}
);
},
{
color = 4;
glyphname = k.sc;
layers = (
{
layerId = "17A5F7C0-AED1-4270-89BA-BFDC1003B8A5";
paths = (
{
closed = 1;
nodes = (
"136 0 LINE",
"136 249 LINE",
"296 249 LINE",
"524 0 LINE",
"631 0 LINE",
"631 1 LINE",
"369 290 LINE",
"632 579 LINE",
"632 580 LINE",
"524 580 LINE",
"296 331 LINE",
"136 331 LINE",
"136 580 LINE",
"54 580 LINE",
"54 0 LINE",
"54 0 LINE"
);
}
);
width = 682;
},
{
layerId = "D465923C-ABAE-4975-85A4-08C1BC9DA335";
paths = (
{
closed = 1;
nodes = (
"207 0 LINE",
"207 213 LINE",
"285 213 LINE",
"482 0 LINE",
"636 0 LINE",
"636 52 LINE",
"420 290 LINE",
"636 528 LINE",
"636 580 LINE",
"482 580 LINE",
"285 367 LINE",
"207 367 LINE",
"207 580 LINE",
"54 580 LINE",
"54 0 LINE",
"54 0 LINE"
);
}
);
width = 682;
}
);
},
{
color = 4;
glyphname = l.sc;
layers = (
{
layerId = "17A5F7C0-AED1-4270-89BA-BFDC1003B8A5";
paths = (
{
closed = 1;
nodes = (
"655 0 LINE",
"655 82 LINE",
"136 82 LINE",
"136 580 LINE",
"54 580 LINE",
"54 0 LINE",
"54 0 LINE"
);
}
);
width = 659;
},
{
layerId = "D465923C-ABAE-4975-85A4-08C1BC9DA335";
paths = (
{
closed = 1;
nodes = (
"652 0 LINE",
"652 153 LINE",
"207 153 LINE",
"207 580 LINE",
"54 580 LINE",
"54 0 LINE",
"54 0 LINE"
);
}
);
width = 659;
}
);
},
{
color = 4;
glyphname = m.sc;
layers = (
{
layerId = "17A5F7C0-AED1-4270-89BA-BFDC1003B8A5";
paths = (
{
closed = 1;
nodes = (
"136 0 LINE",
"136 505 LINE",
"415 107 LINE",
"695 505 LINE",
"695 0 LINE",
"777 0 LINE",
"777 581 LINE",
"664 581 LINE",
"415 223 LINE",
"164 581 LINE",
"54 581 LINE",
"54 0 LINE",
"54 0 LINE"
);
}
);
width = 824;
},
{
layerId = "D465923C-ABAE-4975-85A4-08C1BC9DA335";
paths = (
{
closed = 1;
nodes = (
"207 0 LINE",
"207 341 LINE",
"406 60 LINE",
"604 341 LINE",
"604 0 LINE",
"758 0 LINE",
"758 581 LINE",
"598 581 LINE",
"406 304 LINE",
"213 581 LINE",
"54 581 LINE",
"54 0 LINE",
"54 0 LINE"
);
}
);
width = 824;
}
);
},
{
color = 4;
glyphname = n.sc;
layers = (
{
layerId = "17A5F7C0-AED1-4270-89BA-BFDC1003B8A5";
paths = (
{
closed = 1;
nodes = (
"136 0 LINE",
"136 489 LINE",
"544 0 LINE",
"655 0 LINE",
"655 580 LINE",
"573 580 LINE",
"573 92 LINE",
"165 580 LINE",
"54 580 LINE",
"54 0 LINE",
"54 0 LINE"
);
}
);
width = 709;
},
{
layerId = "D465923C-ABAE-4975-85A4-08C1BC9DA335";
paths = (
{
closed = 1;
nodes = (
"207 0 LINE",
"207 344 LINE",
"493 0 LINE",
"652 0 LINE",
"652 580 LINE",
"499 580 LINE",
"499 238 LINE",
"212 580 LINE",
"54 580 LINE",
"54 0 LINE",
"54 0 LINE"
);
}
);
width = 708;
}
);
},
{
color = 4;
glyphname = o.sc;
layers = (
{
layerId = "17A5F7C0-AED1-4270-89BA-BFDC1003B8A5";
paths = (
{
closed = 1;
nodes = (
"172 0 LINE",
"520 0 LINE SMOOTH",
"587.661 0 OFFCURVE",
"642 54.333 OFFCURVE",
"642 121 CURVE SMOOTH",
"642 459 LINE SMOOTH",
"642 525.667 OFFCURVE",
"587.661 580 OFFCURVE",
"520 580 CURVE SMOOTH",
"172 580 LINE SMOOTH",
"105.333 580 OFFCURVE",
"51 525.667 OFFCURVE",
"51 459 CURVE SMOOTH",
"51 121 LINE SMOOTH",
"51 54.333 OFFCURVE",
"105.333 0 OFFCURVE",
"172 0 CURVE"
);
},
{
closed = 1;
nodes = (
"151.104 82 OFFCURVE",
"133 100.104 OFFCURVE",
"133 121 CURVE SMOOTH",
"133 459 LINE SMOOTH",
"133 479.896 OFFCURVE",
"151.104 498 OFFCURVE",
"172 498 CURVE SMOOTH",
"520 498 LINE SMOOTH",
"541.891 498 OFFCURVE",
"559 479.896 OFFCURVE",
"559 459 CURVE SMOOTH",
"559 121 LINE SMOOTH",
"559 100.104 OFFCURVE",
"541.891 82 OFFCURVE",
"520 82 CURVE SMOOTH",
"172 82 LINE",
"172 82 LINE"
);
}
);
width = 692;
},
{
layerId = "D465923C-ABAE-4975-85A4-08C1BC9DA335";
paths = (
{
closed = 1;
nodes = (
"196 0 LINE",
"494 0 LINE SMOOTH",
"573.601 0 OFFCURVE",
"639 66.393 OFFCURVE",
"639 145 CURVE SMOOTH",
"639 435 LINE SMOOTH",
"639 513.607 OFFCURVE",
"573.601 580 OFFCURVE",
"494 580 CURVE SMOOTH",
"196 580 LINE SMOOTH",
"117.393 580 OFFCURVE",
"51 513.607 OFFCURVE",
"51 435 CURVE SMOOTH",
"51 145 LINE SMOOTH",
"51 66.393 OFFCURVE",
"117.393 0 OFFCURVE",
"196 0 CURVE"
);
},
{
closed = 1;
nodes = (
"215 153 OFFCURVE",
"204 153 OFFCURVE",
"204 153 CURVE",
"204 153 OFFCURVE",
"204 164 OFFCURVE",
"204 186 CURVE SMOOTH",
"204 394 LINE SMOOTH",
"204 416 OFFCURVE",
"204 427 OFFCURVE",
"204 427 CURVE",
"204 427 OFFCURVE",
"215 427 OFFCURVE",
"237 427 CURVE SMOOTH",
"453 427 LINE SMOOTH",
"475 427 OFFCURVE",
"486 427 OFFCURVE",
"486 427 CURVE",
"486 427 OFFCURVE",
"486 416 OFFCURVE",
"486 394 CURVE SMOOTH",
"486 186 LINE SMOOTH",
"486 164 OFFCURVE",
"486 153 OFFCURVE",
"486 153 CURVE",
"486 153 OFFCURVE",
"475 153 OFFCURVE",
"453 153 CURVE SMOOTH",
"237 153 LINE",
"237 153 LINE"
);
}
);
width = 692;
}
);
},
{
color = 4;
glyphname = p.sc;
layers = (
{
layerId = "17A5F7C0-AED1-4270-89BA-BFDC1003B8A5";
paths = (
{
closed = 1;
nodes = (
"136 0 LINE",
"136 208 LINE",
"524 208 LINE SMOOTH",
"590.667 208 OFFCURVE",
"645 263.667 OFFCURVE",
"645 329 CURVE SMOOTH",
"645 459 LINE SMOOTH",
"645 524.333 OFFCURVE",
"590.667 580 OFFCURVE",
"524 580 CURVE SMOOTH",
"54 580 LINE",
"54 0 LINE",
"54 0 LINE"
);
},
{
closed = 1;
nodes = (
"154.109 290 OFFCURVE",
"136 308.104 OFFCURVE",
"136 329 CURVE SMOOTH",
"136 459 LINE SMOOTH",
"136 479.896 OFFCURVE",
"154.109 498 OFFCURVE",
"176 498 CURVE SMOOTH",
"524 498 LINE SMOOTH",
"544.896 498 OFFCURVE",
"563 479.896 OFFCURVE",
"563 459 CURVE SMOOTH",
"563 329 LINE SMOOTH",
"563 308.104 OFFCURVE",
"544.896 290 OFFCURVE",
"524 290 CURVE SMOOTH",
"176 290 LINE",
"176 290 LINE"
);
}
);
width = 660;
},
{
layerId = "D465923C-ABAE-4975-85A4-08C1BC9DA335";
paths = (
{
closed = 1;
nodes = (
"207 0 LINE",
"207 177 LINE",
"497 178 LINE SMOOTH",
"576.601 178 OFFCURVE",
"642 244.393 OFFCURVE",
"642 323 CURVE SMOOTH",
"642 435 LINE SMOOTH",
"642 512.612 OFFCURVE",
"576.601 580 OFFCURVE",
"497 580 CURVE SMOOTH",
"54 580 LINE",
"54 0 LINE",
"54 0 LINE"
);
},
{
closed = 1;
nodes = (
"218 332 OFFCURVE",
"207 332 OFFCURVE",
"207 332 CURVE",
"207 332 OFFCURVE",
"207 343 OFFCURVE",
"207 365 CURVE SMOOTH",
"207 394 LINE SMOOTH",
"207 416 OFFCURVE",
"207 427 OFFCURVE",
"207 427 CURVE",
"207 427 OFFCURVE",
"218 427 OFFCURVE",
"240 427 CURVE SMOOTH",
"456 427 LINE SMOOTH",
"478.667 427 OFFCURVE",
"489.833 427 OFFCURVE",
"489.5 427 CURVE SMOOTH",
"489.167 427 OFFCURVE",
"489 416 OFFCURVE",
"489 394 CURVE SMOOTH",
"489 365 LINE SMOOTH",
"489 343 OFFCURVE",
"489.167 332 OFFCURVE",
"489.5 332 CURVE SMOOTH",
"489.833 332 OFFCURVE",
"478.667 332 OFFCURVE",
"456 332 CURVE SMOOTH",
"240 332 LINE",
"240 332 LINE"
);
}
);
width = 660;
}
);
},
{
color = 4;
glyphname = q.sc;
layers = (
{
layerId = "17A5F7C0-AED1-4270-89BA-BFDC1003B8A5";
paths = (
{
closed = 1;
nodes = (
"173 0 LINE",
"737 0 LINE",
"737 82 LINE",
"638 82 LINE",
"638.995 89.463 OFFCURVE",
"640.077 96.709 OFFCURVE",
"641.246 103.739 CURVE SMOOTH",
"642.415 110.769 OFFCURVE",
"643 116.523 OFFCURVE",
"643 121 CURVE SMOOTH",
"643 459 LINE SMOOTH",
"643 525.667 OFFCURVE",
"588.661 580 OFFCURVE",
"521 580 CURVE SMOOTH",
"173 580 LINE SMOOTH",
"106.333 580 OFFCURVE",
"52 525.667 OFFCURVE",
"52 459 CURVE SMOOTH",
"52 121 LINE SMOOTH",
"52 54.333 OFFCURVE",
"106.333 0 OFFCURVE",
"173 0 CURVE"
);
},
{
closed = 1;
nodes = (
"152.104 82 OFFCURVE",
"134 100.104 OFFCURVE",
"134 121 CURVE SMOOTH",
"134 459 LINE SMOOTH",
"134 479.896 OFFCURVE",
"152.104 498 OFFCURVE",
"173 498 CURVE SMOOTH",
"521 498 LINE SMOOTH",
"541.896 498 OFFCURVE",
"560 479.896 OFFCURVE",
"560 459 CURVE SMOOTH",
"560 121 LINE SMOOTH",
"560 100.104 OFFCURVE",
"541.896 82 OFFCURVE",
"521 82 CURVE SMOOTH",
"173 82 LINE",
"173 82 LINE"
);
}
);
width = 770;
},
{
layerId = "D465923C-ABAE-4975-85A4-08C1BC9DA335";
paths = (
{
closed = 1;
nodes = (
"197 0 LINE",
"722 0 LINE",
"722 153 LINE",
"637 153 LINE",
"639.667 166.333 OFFCURVE",
"640 172.333 OFFCURVE",
"640 179 CURVE SMOOTH",
"640 435 LINE SMOOTH",
"640 513.667 OFFCURVE",
"575.597 580 OFFCURVE",
"495 580 CURVE SMOOTH",
"197 580 LINE SMOOTH",
"118.393 580 OFFCURVE",
"52 513.607 OFFCURVE",
"52 435 CURVE SMOOTH",
"52 145 LINE SMOOTH",
"52 66.393 OFFCURVE",
"118.393 0 OFFCURVE",
"197 0 CURVE"
);
},
{
closed = 1;
nodes = (
"216 153 OFFCURVE",
"205 153 OFFCURVE",
"205 153 CURVE",
"205 153 OFFCURVE",
"205 164 OFFCURVE",
"205 186 CURVE SMOOTH",
"205 394 LINE SMOOTH",
"205 416 OFFCURVE",
"205 427 OFFCURVE",
"205 427 CURVE",
"205 427 OFFCURVE",
"216 427 OFFCURVE",
"238 427 CURVE SMOOTH",
"454 427 LINE SMOOTH",
"476 427 OFFCURVE",
"487 427 OFFCURVE",
"487 427 CURVE",
"487 427 OFFCURVE",
"487 416 OFFCURVE",
"487 394 CURVE SMOOTH",
"487 186 LINE SMOOTH",
"487 164 OFFCURVE",
"487 153 OFFCURVE",
"487 153 CURVE",
"487 153 OFFCURVE",
"476 153 OFFCURVE",
"454 153 CURVE SMOOTH",
"238 153 LINE",
"238 153 LINE"
);
}
);
width = 770;
}
);
},
{
color = 4;
glyphname = r.sc;
layers = (
{
layerId = "17A5F7C0-AED1-4270-89BA-BFDC1003B8A5";
paths = (
{
closed = 1;
nodes = (
"136 0 LINE",
"136 208 LINE",
"314 208 LINE",
"542 0 LINE",
"647 0 LINE",
"647 1 LINE",
"416 208 LINE",
"523 208 LINE SMOOTH",
"591 208 OFFCURVE",
"644 262.333 OFFCURVE",
"644 329 CURVE SMOOTH",
"644 459 LINE SMOOTH",
"644 525.667 OFFCURVE",
"591 580 OFFCURVE",
"523 580 CURVE SMOOTH",
"54 580 LINE",
"54 0 LINE",
"54 0 LINE"
);
},
{
closed = 1;
nodes = (
"153.667 290 OFFCURVE",
"136 307.667 OFFCURVE",
"136 329 CURVE SMOOTH",
"136 459 LINE SMOOTH",
"136 480.333 OFFCURVE",
"153.667 498 OFFCURVE",
"175 498 CURVE SMOOTH",
"523 498 LINE SMOOTH",
"544.333 498 OFFCURVE",
"562 480.333 OFFCURVE",
"562 459 CURVE SMOOTH",
"562 329 LINE SMOOTH",
"562 307.667 OFFCURVE",
"544.333 290 OFFCURVE",
"523 290 CURVE SMOOTH",
"175 290 LINE",
"175 290 LINE"
);
}
);
width = 700;
},
{
layerId = "D465923C-ABAE-4975-85A4-08C1BC9DA335";
paths = (
{
closed = 1;
nodes = (
"207 0 LINE",
"207 178 LINE",
"302 178 LINE",
"497 0 LINE",
"652 0 LINE",
"652 54 LINE",
"508 178 LINE",
"511 178 LINE SMOOTH",
"584.632 184.965 OFFCURVE",
"643 249.368 OFFCURVE",
"643 323 CURVE SMOOTH",
"643 435 LINE SMOOTH",
"643 512.612 OFFCURVE",
"576.601 580 OFFCURVE",
"497 580 CURVE SMOOTH",
"54 580 LINE",
"54 0 LINE",
"54 0 LINE"
);
},
{
closed = 1;
nodes = (
"218 332 OFFCURVE",
"207 332 OFFCURVE",
"207 332 CURVE",
"207 332 OFFCURVE",
"207 343 OFFCURVE",
"207 365 CURVE SMOOTH",
"207 394 LINE SMOOTH",
"207 416 OFFCURVE",
"207 427 OFFCURVE",
"207 427 CURVE",
"207 427 OFFCURVE",
"218 427 OFFCURVE",
"240 427 CURVE SMOOTH",
"456 427 LINE SMOOTH",
"478 427 OFFCURVE",
"489 427 OFFCURVE",
"489 427 CURVE",
"489 427 OFFCURVE",
"489 416 OFFCURVE",
"489 394 CURVE SMOOTH",
"489 365 LINE SMOOTH",
"489 343 OFFCURVE",
"489 332 OFFCURVE",
"489 332 CURVE",
"489 332 OFFCURVE",
"478 332 OFFCURVE",
"456 332 CURVE SMOOTH",
"240 332 LINE",
"240 332 LINE"
);
}
);
width = 700;
}
);
},
{
color = 4;
glyphname = s.sc;
layers = (
{
layerId = "17A5F7C0-AED1-4270-89BA-BFDC1003B8A5";
paths = (
{
closed = 1;
nodes = (
"170 0 LINE",
"518 0 LINE SMOOTH",
"585.661 0 OFFCURVE",
"640 54.333 OFFCURVE",
"640 121 CURVE SMOOTH",
"640 210 LINE SMOOTH",
"640 276.667 OFFCURVE",
"585.661 331 OFFCURVE",
"518 331 CURVE SMOOTH",
"170 331 LINE SMOOTH",
"149.104 331 OFFCURVE",
"131 349.104 OFFCURVE",
"131 370 CURVE SMOOTH",
"131 459 LINE SMOOTH",
"131 479.896 OFFCURVE",
"149.104 498 OFFCURVE",
"170 498 CURVE SMOOTH",
"518 498 LINE SMOOTH",
"538.896 498 OFFCURVE",
"557 479.896 OFFCURVE",
"557 459 CURVE SMOOTH",
"557 441 LINE",
"640 441 LINE",
"640 459 LINE SMOOTH",
"640 525.667 OFFCURVE",
"585.661 580 OFFCURVE",
"518 580 CURVE SMOOTH",
"170 580 LINE SMOOTH",
"103.333 580 OFFCURVE",
"49 525.667 OFFCURVE",
"49 459 CURVE SMOOTH",
"49 370 LINE SMOOTH",
"49 303.333 OFFCURVE",
"103.333 249 OFFCURVE",
"170 249 CURVE SMOOTH",
"518 249 LINE SMOOTH",
"538.896 249 OFFCURVE",
"557 230.896 OFFCURVE",
"557 210 CURVE SMOOTH",
"557 121 LINE SMOOTH",
"557 100.104 OFFCURVE",
"538.896 82 OFFCURVE",
"518 82 CURVE SMOOTH",
"170 82 LINE SMOOTH",
"149.104 82 OFFCURVE",
"131 100.104 OFFCURVE",
"131 121 CURVE SMOOTH",
"131 139 LINE",
"49 139 LINE",
"49 121 LINE SMOOTH",
"49 54.333 OFFCURVE",
"103.333 0 OFFCURVE",
"170 0 CURVE"
);
}
);
width = 687;
},
{
layerId = "D465923C-ABAE-4975-85A4-08C1BC9DA335";
paths = (
{
closed = 1;
nodes = (
"194 0 LINE",
"492 0 LINE SMOOTH",
"571.601 0 OFFCURVE",
"638 66.393 OFFCURVE",
"638 145 CURVE SMOOTH",
"638 222 LINE SMOOTH",
"638 300.607 OFFCURVE",
"571.601 367 OFFCURVE",
"492 367 CURVE SMOOTH",
"218 367 LINE SMOOTH",
"207.333 367 OFFCURVE",
"202 367 OFFCURVE",
"202 367 CURVE",
"202 367 OFFCURVE",
"202 372.333 OFFCURVE",
"202 383 CURVE SMOOTH",
"202 411 LINE SMOOTH",
"202 421.667 OFFCURVE",
"202 427 OFFCURVE",
"202 427 CURVE",
"202 427 OFFCURVE",
"207.333 427 OFFCURVE",
"218 427 CURVE SMOOTH",
"468 427 LINE SMOOTH",
"478.667 427 OFFCURVE",
"484 427 OFFCURVE",
"484 427 CURVE",
"484 427 OFFCURVE",
"484 421.667 OFFCURVE",
"484 411 CURVE SMOOTH",
"484 407 LINE",
"638 407 LINE",
"638 435 LINE SMOOTH",
"638 513.607 OFFCURVE",
"571.601 580 OFFCURVE",
"492 580 CURVE SMOOTH",
"194 580 LINE SMOOTH",
"115.393 580 OFFCURVE",
"49 513.607 OFFCURVE",
"49 435 CURVE SMOOTH",
"49 358 LINE SMOOTH",
"49 279.393 OFFCURVE",
"115.393 213 OFFCURVE",
"194 213 CURVE SMOOTH",
"468 213 LINE SMOOTH",
"478.667 213 OFFCURVE",
"484 213 OFFCURVE",
"484 213 CURVE",
"484 213 OFFCURVE",
"484 207.667 OFFCURVE",
"484 197 CURVE SMOOTH",
"484 169 LINE SMOOTH",
"484 158.333 OFFCURVE",
"484 153 OFFCURVE",
"484 153 CURVE",
"484 153 OFFCURVE",
"478.667 153 OFFCURVE",
"468 153 CURVE SMOOTH",
"218 153 LINE SMOOTH",
"207.333 153 OFFCURVE",
"202 153 OFFCURVE",
"202 153 CURVE",
"202 153 OFFCURVE",
"202 158.333 OFFCURVE",
"202 169 CURVE SMOOTH",
"202 173 LINE",
"49 173 LINE",
"49 145 LINE SMOOTH",
"49 66.393 OFFCURVE",
"115.393 0 OFFCURVE",
"194 0 CURVE"
);
}
);
width = 687;
}
);
},
{
color = 4;
glyphname = t.sc;
layers = (
{
layerId = "17A5F7C0-AED1-4270-89BA-BFDC1003B8A5";
paths = (
{
closed = 1;
nodes = (
"364 0 LINE",
"364 498 LINE",
"623 498 LINE",
"623 580 LINE",
"22 580 LINE",
"22 498 LINE",
"282 498 LINE",
"282 0 LINE",
"282 0 LINE"
);
}
);
width = 644;
},
{
layerId = "D465923C-ABAE-4975-85A4-08C1BC9DA335";
paths = (
{
closed = 1;
nodes = (
"397 0 LINE",
"397 427 LINE",
"620 427 LINE",
"620 580 LINE",
"22 580 LINE",
"22 427 LINE",
"243 427 LINE",
"243 0 LINE",
"243 0 LINE"
);
}
);
width = 644;
}
);
},
{
color = 4;
glyphname = u.sc;
layers = (
{
layerId = "17A5F7C0-AED1-4270-89BA-BFDC1003B8A5";
paths = (
{
closed = 1;
nodes = (
"174 0 LINE",
"522 0 LINE SMOOTH",
"589.661 0 OFFCURVE",
"644 54.333 OFFCURVE",
"644 121 CURVE SMOOTH",
"644 580 LINE",
"562 580 LINE",
"562 121 LINE SMOOTH",
"562 100.104 OFFCURVE",
"543.891 82 OFFCURVE",
"522 82 CURVE SMOOTH",
"174 82 LINE SMOOTH",
"153.104 82 OFFCURVE",
"135 100.104 OFFCURVE",
"135 121 CURVE SMOOTH",
"135 580 LINE",
"53 580 LINE",
"53 121 LINE SMOOTH",
"53 54.333 OFFCURVE",
"107.333 0 OFFCURVE",
"174 0 CURVE"
);
}
);
width = 695;
},
{
layerId = "D465923C-ABAE-4975-85A4-08C1BC9DA335";
paths = (
{
closed = 1;
nodes = (
"198 0 LINE",
"496 0 LINE SMOOTH",
"575.601 0 OFFCURVE",
"641 66.393 OFFCURVE",
"641 145 CURVE SMOOTH",
"641 580 LINE",
"488 580 LINE",
"488 186 LINE SMOOTH",
"488 164 OFFCURVE",
"488 153 OFFCURVE",
"488 153 CURVE",
"488 153 OFFCURVE",
"477 153 OFFCURVE",
"455 153 CURVE SMOOTH",
"239 153 LINE SMOOTH",
"217 153 OFFCURVE",
"206 153 OFFCURVE",
"206 153 CURVE",
"206 153 OFFCURVE",
"206 164 OFFCURVE",
"206 186 CURVE SMOOTH",
"206 580 LINE",
"53 580 LINE",
"53 145 LINE SMOOTH",
"53 66.393 OFFCURVE",
"118.399 0 OFFCURVE",
"198 0 CURVE"
);
}
);
width = 695;
}
);
},
{
color = 4;
glyphname = v.sc;
layers = (
{
layerId = "17A5F7C0-AED1-4270-89BA-BFDC1003B8A5";
paths = (
{
closed = 1;
nodes = (
"442 0 LINE",
"768 580 LINE",
"672 580 LINE",
"395 81 LINE",
"118 580 LINE",
"21 580 LINE",
"348 0 LINE",
"348 0 LINE"
);
}
);
width = 801;
},
{
layerId = "D465923C-ABAE-4975-85A4-08C1BC9DA335";
paths = (
{
closed = 1;
nodes = (
"477 0 LINE",
"799 580 LINE",
"625 580 LINE",
"411 194 LINE",
"197 580 LINE",
"21 580 LINE",
"346 0 LINE",
"346 0 LINE"
);
}
);
width = 801;
}
);
},
{
color = 4;
glyphname = w.sc;
layers = (
{
layerId = "17A5F7C0-AED1-4270-89BA-BFDC1003B8A5";
paths = (
{
closed = 1;
nodes = (
"338 0 LINE",
"543 467 LINE",
"759 0 LINE",
"831 0 LINE",
"1052 580 LINE",
"964 580 LINE",
"796 150 LINE",
"593 580 LINE",
"493 580 LINE",
"301 149 LINE",
"122 580 LINE",
"34 580 LINE",
"266 0 LINE",
"266 0 LINE"
);
}
);
width = 1078;
},
{
layerId = "D465923C-ABAE-4975-85A4-08C1BC9DA335";
paths = (
{
closed = 1;
nodes = (
"381 0 LINE",
"531 339 LINE",
"688 0 LINE",
"804 0 LINE",
"1028 580 LINE",
"864 580 LINE",
"744 275 LINE",
"600 580 LINE",
"460 580 LINE",
"325 276 LINE",
"196 580 LINE",
"34 580 LINE",
"266 0 LINE",
"266 0 LINE"
);
}
);
width = 1079;
}
);
},
{
color = 4;
glyphname = x.sc;
layers = (
{
layerId = "17A5F7C0-AED1-4270-89BA-BFDC1003B8A5";
paths = (
{
closed = 1;
nodes = (
"154 0 LINE",
"342 233 LINE",
"531 0 LINE",
"639 0 LINE",
"639 1 LINE",
"396 296 LINE",
"638 579 LINE",
"638 580 LINE",
"530 580 LINE",
"342 361 LINE",
"154 580 LINE",
"46 580 LINE",
"46 579 LINE",
"288 296 LINE",
"46 1 LINE",
"46 0 LINE",
"46 0 LINE"
);
}
);
width = 692;
},
{
layerId = "D465923C-ABAE-4975-85A4-08C1BC9DA335";
paths = (
{
closed = 1;
nodes = (
"203 0 LINE",
"345 175 LINE",
"487 0 LINE",
"644 0 LINE",
"644 50 LINE",
"444 296 LINE",
"644 530 LINE",
"644 580 LINE",
"487 580 LINE",
"345 412 LINE",
"203 580 LINE",
"46 580 LINE",
"46 530 LINE",
"244 296 LINE",
"46 50 LINE",
"46 0 LINE",
"46 0 LINE"
);
}
);
width = 692;
}
);
},
{
color = 4;
glyphname = y.sc;
layers = (
{
layerId = "17A5F7C0-AED1-4270-89BA-BFDC1003B8A5";
paths = (
{
closed = 1;
nodes = (
"373 0 LINE",
"373 200 LINE",
"645 580 LINE",
"548 580 LINE",
"331 297 LINE",
"114 580 LINE",
"18 580 LINE",
"290 200 LINE",
"290 0 LINE",
"290 0 LINE"
);
}
);
width = 688;
},
{
layerId = "D465923C-ABAE-4975-85A4-08C1BC9DA335";
paths = (
{
closed = 1;
nodes = (
"443 0 LINE",
"443 200 LINE",
"715 580 LINE",
"532 580 LINE",
"367 364 LINE",
"199 580 LINE",
"18 580 LINE",
"290 200 LINE",
"290 0 LINE",
"290 0 LINE"
);
}
);
width = 688;
}
);
},
{
color = 4;
glyphname = z.sc;
layers = (
{
layerId = "17A5F7C0-AED1-4270-89BA-BFDC1003B8A5";
paths = (
{
closed = 1;
nodes = (
"645 0 LINE",
"645 82 LINE",
"144 82 LINE",
"645 468 LINE",
"645 580 LINE",
"54 580 LINE",
"54 498 LINE",
"555 498 LINE",
"54 112 LINE",
"54 0 LINE",
"54 0 LINE"
);
}
);
width = 698;
},
{
layerId = "D465923C-ABAE-4975-85A4-08C1BC9DA335";
paths = (
{
closed = 1;
nodes = (
"642 0 LINE",
"642 153 LINE",
"293 153 LINE",
"642 423 LINE",
"642 580 LINE",
"54 580 LINE",
"54 427 LINE",
"403 427 LINE",
"54 157 LINE",
"54 0 LINE",
"54 0 LINE"
);
}
);
width = 698;
}
);
},
{
color = 4;
export = 0;
glyphname = ordfeminine;
layers = (
{
layerId = "17A5F7C0-AED1-4270-89BA-BFDC1003B8A5";
paths = (
{
closed = 1;
nodes = (
"186 327 LINE",
"500 327 LINE",
"500 633 LINE SMOOTH",
"500 677 OFFCURVE",
"463.333 713 OFFCURVE",
"418 713 CURVE SMOOTH",
"106 713 LINE",
"106 659 LINE",
"418 659 LINE SMOOTH",
"432.667 659 OFFCURVE",
"444 646.333 OFFCURVE",
"444 633 CURVE SMOOTH",
"444 547 LINE",
"106 547 LINE",
"106 407 LINE SMOOTH",
"106 363 OFFCURVE",
"142 327 OFFCURVE",
"186 327 CURVE"
);
},
{
closed = 1;
nodes = (
"172.667 381 OFFCURVE",
"160 393.667 OFFCURVE",
"160 407 CURVE SMOOTH",
"160 493 LINE",
"444 493 LINE",
"444 381 LINE",
"186 381 LINE",
"186 381 LINE"
);
}
);
width = 500;
},
{
layerId = "D465923C-ABAE-4975-85A4-08C1BC9DA335";
paths = (
{
closed = 1;
nodes = (
"224 360 LINE",
"500 360 LINE",
"500 630 LINE SMOOTH",
"500 679.333 OFFCURVE",
"459.333 720 OFFCURVE",
"410 720 CURVE SMOOTH",
"134 720 LINE",
"134 625 LINE",
"384 625 LINE SMOOTH",
"398 625 OFFCURVE",
"405 625 OFFCURVE",
"405 625 CURVE",
"405 625 OFFCURVE",
"405 618.333 OFFCURVE",
"405 605 CURVE SMOOTH",
"405 588 LINE",
"134 588 LINE",
"134 450 LINE SMOOTH",
"134 400.667 OFFCURVE",
"174.667 360 OFFCURVE",
"224 360 CURVE"
);
},
{
closed = 1;
nodes = (
"236 455 OFFCURVE",
"229 455 OFFCURVE",
"229 455 CURVE",
"229 455 OFFCURVE",
"229 461.667 OFFCURVE",
"229 475 CURVE SMOOTH",
"229 505 LINE",
"405 505 LINE",
"405 455 LINE",
"250 455 LINE",
"250 455 LINE"
);
}
);
width = 500;
}
);
unicode = 00AA;
},
{
color = 4;
export = 0;
glyphname = ordmasculine;
layers = (
{
layerId = "17A5F7C0-AED1-4270-89BA-BFDC1003B8A5";
paths = (
{
closed = 1;
nodes = (
"186 334 LINE",
"418 334 LINE SMOOTH",
"463.333 334 OFFCURVE",
"500 370 OFFCURVE",
"500 414 CURVE SMOOTH",
"500 640 LINE SMOOTH",
"500 684 OFFCURVE",
"463.333 720 OFFCURVE",
"418 720 CURVE SMOOTH",
"186 720 LINE SMOOTH",
"142 720 OFFCURVE",
"106 684 OFFCURVE",
"106 640 CURVE SMOOTH",
"106 414 LINE SMOOTH",
"106 370 OFFCURVE",
"142 334 OFFCURVE",
"186 334 CURVE"
);
},
{
closed = 1;
nodes = (
"172.667 388 OFFCURVE",
"160 400.667 OFFCURVE",
"160 414 CURVE SMOOTH",
"160 640 LINE SMOOTH",
"160 653.333 OFFCURVE",
"172.667 666 OFFCURVE",
"186 666 CURVE SMOOTH",
"418 666 LINE SMOOTH",
"432.667 666 OFFCURVE",
"444 653.333 OFFCURVE",
"444 640 CURVE SMOOTH",
"444 414 LINE SMOOTH",
"444 400.667 OFFCURVE",
"432.667 388 OFFCURVE",
"418 388 CURVE SMOOTH",
"186 388 LINE",
"186 388 LINE"
);
}
);
width = 500;
},
{
layerId = "D465923C-ABAE-4975-85A4-08C1BC9DA335";
paths = (
{
closed = 1;
nodes = (
"224 360 LINE",
"410 360 LINE SMOOTH",
"459.333 360 OFFCURVE",
"500 400.667 OFFCURVE",
"500 450 CURVE SMOOTH",
"500 630 LINE SMOOTH",
"500 679.333 OFFCURVE",
"459.333 720 OFFCURVE",
"410 720 CURVE SMOOTH",
"224 720 LINE SMOOTH",
"176 720 OFFCURVE",
"134 679.333 OFFCURVE",
"134 630 CURVE SMOOTH",
"134 450 LINE SMOOTH",
"134 400.667 OFFCURVE",
"176 360 OFFCURVE",
"224 360 CURVE"
);
},
{
closed = 1;
nodes = (
"236 455 OFFCURVE",
"229 455 OFFCURVE",
"229 455 CURVE",
"229 455 OFFCURVE",
"229 461.667 OFFCURVE",
"229 475 CURVE SMOOTH",
"229 605 LINE SMOOTH",
"229 618.333 OFFCURVE",
"229 625 OFFCURVE",
"229 625 CURVE",
"229 625 OFFCURVE",
"236 625 OFFCURVE",
"250 625 CURVE SMOOTH",
"384 625 LINE SMOOTH",
"398 625 OFFCURVE",
"405 625 OFFCURVE",
"405 625 CURVE",
"405 625 OFFCURVE",
"405 618.333 OFFCURVE",
"405 605 CURVE SMOOTH",
"405 475 LINE SMOOTH",
"405 461.667 OFFCURVE",
"405 455 OFFCURVE",
"405 455 CURVE",
"405 455 OFFCURVE",
"398 455 OFFCURVE",
"384 455 CURVE SMOOTH",
"250 455 LINE",
"250 455 LINE"
);
}
);
width = 500;
}
);
unicode = 00BA;
},
{
color = 4;
export = 0;
glyphname = mu;
layers = (
{
layerId = "17A5F7C0-AED1-4270-89BA-BFDC1003B8A5";
paths = (
{
closed = 1;
nodes = (
"130 -250 LINE",
"130 0 LINE",
"517 0 LINE SMOOTH",
"590.333 0 OFFCURVE",
"639 49 OFFCURVE",
"639 121 CURVE SMOOTH",
"639 580 LINE",
"557 580 LINE",
"557 121 LINE SMOOTH",
"557 94.333 OFFCURVE",
"543.667 82 OFFCURVE",
"517 82 CURVE SMOOTH",
"169 82 LINE SMOOTH",
"142.333 82 OFFCURVE",
"130 93 OFFCURVE",
"130 121 CURVE SMOOTH",
"130 580 LINE",
"48 580 LINE",
"48 -250 LINE",
"48 -250 LINE"
);
}
);
width = 695;
},
{
layerId = "D465923C-ABAE-4975-85A4-08C1BC9DA335";
paths = (
{
closed = 1;
nodes = (
"201 -250 LINE",
"201 0 LINE",
"491 0 LINE SMOOTH",
"569.667 0 OFFCURVE",
"636 53 OFFCURVE",
"636 145 CURVE SMOOTH",
"636 580 LINE",
"483 580 LINE",
"483 153 LINE SMOOTH",
"483 153 OFFCURVE",
"483 153 OFFCURVE",
"483 153 CURVE SMOOTH",
"201 153 LINE SMOOTH",
"201 153 OFFCURVE",
"201 153 OFFCURVE",
"201 153 CURVE SMOOTH",
"201 580 LINE",
"48 580 LINE",
"48 -250 LINE",
"48 -250 LINE"
);
}
);
width = 695;
}
);
unicode = 03BC;
},
{
color = 4;
glyphname = zero;
layers = (
{
layerId = "17A5F7C0-AED1-4270-89BA-BFDC1003B8A5";
paths = (
{
closed = 1;
nodes = (
"178 0 LINE",
"663 0 LINE SMOOTH",
"729.667 0 OFFCURVE",
"784 54.333 OFFCURVE",
"784 121 CURVE SMOOTH",
"784 598 LINE SMOOTH",
"784 665.661 OFFCURVE",
"729.667 720 OFFCURVE",
"663 720 CURVE SMOOTH",
"178 720 LINE SMOOTH",
"110.339 720 OFFCURVE",
"57 665.661 OFFCURVE",
"57 598 CURVE SMOOTH",
"57 121 LINE SMOOTH",
"57 54.333 OFFCURVE",
"110.339 0 OFFCURVE",
"178 0 CURVE"
);
},
{
closed = 1;
nodes = (
"702 538 LINE",
"702 121 LINE SMOOTH",
"702 100.104 OFFCURVE",
"683.896 82 OFFCURVE",
"663 82 CURVE SMOOTH",
"149 82 LINE",
"149 82 LINE"
);
},
{
closed = 1;
nodes = (
"139 598 LINE SMOOTH",
"139 618.896 OFFCURVE",
"157.104 637 OFFCURVE",
"178 637 CURVE SMOOTH",
"691 637 LINE",
"139 181 LINE",
"139 181 LINE"
);
}
);
width = 834;
},
{
layerId = "D465923C-ABAE-4975-85A4-08C1BC9DA335";
paths = (
{
closed = 1;
nodes = (
"203 0 LINE",
"618 0 LINE SMOOTH",
"698 0 OFFCURVE",
"764 76.333 OFFCURVE",
"764 155 CURVE SMOOTH",
"764 571 LINE SMOOTH",
"764 651 OFFCURVE",
"698 720 OFFCURVE",
"618 720 CURVE SMOOTH",
"203 720 LINE SMOOTH",
"123 720 OFFCURVE",
"57 651 OFFCURVE",
"57 571 CURVE SMOOTH",
"57 155 LINE SMOOTH",
"57 76.333 OFFCURVE",
"123 0 OFFCURVE",
"203 0 CURVE"
);
},
{
closed = 1;
nodes = (
"611 431 LINE",
"611 196 LINE SMOOTH",
"611 174 OFFCURVE",
"611 163 OFFCURVE",
"611 163 CURVE",
"611 163 OFFCURVE",
"600 163 OFFCURVE",
"578 163 CURVE SMOOTH",
"292 163 LINE",
"292 163 LINE"
);
},
{
closed = 1;
nodes = (
"210 530 LINE SMOOTH",
"210 552 OFFCURVE",
"210 563 OFFCURVE",
"210 563 CURVE",
"210 563 OFFCURVE",
"221 563 OFFCURVE",
"243 563 CURVE SMOOTH",
"529 563 LINE",
"210 295 LINE",
"210 295 LINE"
);
}
);
width = 834;
}
);
unicode = 0030;
},
{
color = 4;
glyphname = one;
layers = (
{
layerId = "17A5F7C0-AED1-4270-89BA-BFDC1003B8A5";
paths = (
{
closed = 1;
nodes = (
"302 0 LINE",
"302 720 LINE",
"190 720 LINE",
"1 495 LINE",
"108 495 LINE",
"219 628 LINE",
"219 0 LINE",
"219 0 LINE"
);
}
);
width = 391;
},
{
layerId = "D465923C-ABAE-4975-85A4-08C1BC9DA335";
paths = (
{
closed = 1;
nodes = (
"390 0 LINE",
"390 720 LINE",
"231 720 LINE",
"1 446 LINE",
"204 446 LINE",
"237 487 LINE",
"237 0 LINE",
"237 0 LINE"
);
}
);
width = 391;
}
);
unicode = 0031;
},
{
color = 4;
glyphname = two;
layers = (
{
layerId = "17A5F7C0-AED1-4270-89BA-BFDC1003B8A5";
paths = (
{
closed = 1;
nodes = (
"784 0 LINE",
"784 82 LINE",
"178 82 LINE SMOOTH",
"157.104 82 OFFCURVE",
"139 100.104 OFFCURVE",
"139 121 CURVE SMOOTH",
"139 270 LINE SMOOTH",
"139 290.896 OFFCURVE",
"157.104 309 OFFCURVE",
"178 309 CURVE SMOOTH",
"663 309 LINE SMOOTH",
"729.667 309 OFFCURVE",
"784 363.333 OFFCURVE",
"784 430 CURVE SMOOTH",
"784 599 LINE SMOOTH",
"784 666.661 OFFCURVE",
"729.667 721 OFFCURVE",
"663 721 CURVE SMOOTH",
"178 721 LINE SMOOTH",
"110.339 721 OFFCURVE",
"57 666.661 OFFCURVE",
"57 599 CURVE SMOOTH",
"57 571 LINE",
"139 571 LINE",
"139 599 LINE SMOOTH",
"139 619.896 OFFCURVE",
"157.104 638 OFFCURVE",
"178 638 CURVE SMOOTH",
"663 638 LINE SMOOTH",
"683.896 638 OFFCURVE",
"702 619.896 OFFCURVE",
"702 599 CURVE SMOOTH",
"702 430 LINE SMOOTH",
"702 409.104 OFFCURVE",
"683.896 391 OFFCURVE",
"663 391 CURVE SMOOTH",
"178 391 LINE SMOOTH",
"110.339 391 OFFCURVE",
"57 337.661 OFFCURVE",
"57 270 CURVE SMOOTH",
"57 0 LINE",
"57 0 LINE"
);
}
);
width = 830;
},
{
layerId = "D465923C-ABAE-4975-85A4-08C1BC9DA335";
paths = (
{
closed = 1;
nodes = (
"764 0 LINE",
"764 153 LINE",
"243 153 LINE SMOOTH",
"221 153 OFFCURVE",
"210 153 OFFCURVE",
"210 153 CURVE",
"210 153 OFFCURVE",
"210 164 OFFCURVE",
"210 186 CURVE SMOOTH",
"210 237 LINE SMOOTH",
"210 259 OFFCURVE",
"210 270 OFFCURVE",
"210 270 CURVE",
"210 270 OFFCURVE",
"221 270 OFFCURVE",
"243 270 CURVE SMOOTH",
"618 270 LINE SMOOTH",
"698 270 OFFCURVE",
"764 336 OFFCURVE",
"764 416 CURVE SMOOTH",
"764 575 LINE SMOOTH",
"764 655 OFFCURVE",
"698 720 OFFCURVE",
"618 720 CURVE SMOOTH",
"203 720 LINE SMOOTH",
"123 720 OFFCURVE",
"57 655 OFFCURVE",
"57 575 CURVE SMOOTH",
"57 509 LINE",
"210 509 LINE",
"210 534 LINE SMOOTH",
"210 556 OFFCURVE",
"210 567 OFFCURVE",
"210 567 CURVE",
"210 567 OFFCURVE",
"221 567 OFFCURVE",
"243 567 CURVE SMOOTH",
"578 567 LINE SMOOTH",
"600 567 OFFCURVE",
"611 567 OFFCURVE",
"611 567 CURVE",
"611 567 OFFCURVE",
"611 556 OFFCURVE",
"611 534 CURVE SMOOTH",
"611 457 LINE SMOOTH",
"611 435 OFFCURVE",
"611 424 OFFCURVE",
"611 424 CURVE",
"611 424 OFFCURVE",
"600 424 OFFCURVE",
"578 424 CURVE SMOOTH",
"203 424 LINE SMOOTH",
"123 424 OFFCURVE",
"57 359 OFFCURVE",
"57 279 CURVE SMOOTH",
"57 0 LINE",
"57 0 LINE"
);
}
);
width = 830;
}
);
unicode = 0032;
},
{
color = 4;
glyphname = three;
layers = (
{
layerId = "17A5F7C0-AED1-4270-89BA-BFDC1003B8A5";
paths = (
{
closed = 1;
nodes = (
"175 0 LINE",
"660 0 LINE SMOOTH",
"726.667 0 OFFCURVE",
"781 54.333 OFFCURVE",
"781 121 CURVE SMOOTH",
"781 288 LINE SMOOTH",
"781 322.825 OFFCURVE",
"770.333 364 OFFCURVE",
"737 396 CURVE",
"743.965 410.925 OFFCURVE",
"749 429.095 OFFCURVE",
"749 448 CURVE SMOOTH",
"749 599 LINE SMOOTH",
"749 666.661 OFFCURVE",
"695.661 721 OFFCURVE",
"628 721 CURVE SMOOTH",
"175 721 LINE SMOOTH",
"107.339 721 OFFCURVE",
"53 666.661 OFFCURVE",
"53 599 CURVE SMOOTH",
"53 573 LINE",
"136 573 LINE",
"136 599 LINE SMOOTH",
"136 619.896 OFFCURVE",
"154.104 638 OFFCURVE",
"175 638 CURVE SMOOTH",
"628 638 LINE SMOOTH",
"648.896 638 OFFCURVE",
"667 619.896 OFFCURVE",
"667 599 CURVE SMOOTH",
"667 448 LINE SMOOTH",
"667 427.104 OFFCURVE",
"648.896 409 OFFCURVE",
"628 409 CURVE SMOOTH",
"191 409 LINE",
"191 327 LINE",
"660 327 LINE SMOOTH",
"680.896 327 OFFCURVE",
"699 308.896 OFFCURVE",
"699 288 CURVE SMOOTH",
"699 121 LINE SMOOTH",
"699 100.104 OFFCURVE",
"680.896 82 OFFCURVE",
"660 82 CURVE SMOOTH",
"175 82 LINE SMOOTH",
"154.104 82 OFFCURVE",
"136 100.104 OFFCURVE",
"136 121 CURVE SMOOTH",
"136 137 LINE",
"53 137 LINE",
"53 121 LINE SMOOTH",
"53 54.333 OFFCURVE",
"107.339 0 OFFCURVE",
"175 0 CURVE"
);
}
);
width = 826;
},
{
layerId = "D465923C-ABAE-4975-85A4-08C1BC9DA335";
paths = (
{
closed = 1;
nodes = (
"199 0 LINE",
"615 0 LINE SMOOTH",
"695 0 OFFCURVE",
"760 66.333 OFFCURVE",
"760 145 CURVE SMOOTH",
"760 294 LINE SMOOTH",
"760 328.667 OFFCURVE",
"747 361 OFFCURVE",
"727 385 CURVE",
"731 398.333 OFFCURVE",
"733 416.333 OFFCURVE",
"733 431 CURVE SMOOTH",
"733 575 LINE SMOOTH",
"733 655 OFFCURVE",
"668 720 OFFCURVE",
"588 720 CURVE SMOOTH",
"199 720 LINE SMOOTH",
"119 720 OFFCURVE",
"53 655 OFFCURVE",
"53 575 CURVE SMOOTH",
"53 511 LINE",
"206 511 LINE",
"206 534 LINE SMOOTH",
"206 556 OFFCURVE",
"206 567 OFFCURVE",
"206 567 CURVE",
"206 567 OFFCURVE",
"217 567 OFFCURVE",
"239 567 CURVE SMOOTH",
"547 567 LINE SMOOTH",
"569 567 OFFCURVE",
"580 567 OFFCURVE",
"580 567 CURVE",
"580 567 OFFCURVE",
"580 556 OFFCURVE",
"580 534 CURVE SMOOTH",
"580 472 LINE SMOOTH",
"580 450 OFFCURVE",
"580 439 OFFCURVE",
"580 439 CURVE",
"580 439 OFFCURVE",
"569 439 OFFCURVE",
"547 439 CURVE SMOOTH",
"171 439 LINE",
"171 286 LINE",
"574 286 LINE SMOOTH",
"596 286 OFFCURVE",
"607 286 OFFCURVE",
"607 286 CURVE",
"607 286 OFFCURVE",
"607 275 OFFCURVE",
"607 253 CURVE SMOOTH",
"607 186 LINE SMOOTH",
"607 164 OFFCURVE",
"607 153 OFFCURVE",
"607 153 CURVE",
"607 153 OFFCURVE",
"596 153 OFFCURVE",
"574 153 CURVE SMOOTH",
"239 153 LINE SMOOTH",
"217 153 OFFCURVE",
"206 153 OFFCURVE",
"206 153 CURVE",
"206 153 OFFCURVE",
"206 164 OFFCURVE",
"206 186 CURVE SMOOTH",
"206 201 LINE",
"53 201 LINE",
"53 145 LINE SMOOTH",
"53 66.333 OFFCURVE",
"119 0 OFFCURVE",
"199 0 CURVE"
);
}
);
width = 826;
}
);
unicode = 0033;
},
{
color = 4;
glyphname = four;
layers = (
{
layerId = "17A5F7C0-AED1-4270-89BA-BFDC1003B8A5";
paths = (
{
closed = 1;
nodes = (
"590 0 LINE",
"590 186 LINE",
"702 186 LINE",
"702 268 LINE",
"590 268 LINE",
"590 721 LINE",
"498 721 LINE",
"6 278 LINE",
"6 186 LINE",
"508 186 LINE",
"508 0 LINE",
"508 0 LINE"
);
},
{
closed = 1;
nodes = (
"508 610 LINE",
"508 268 LINE",
"111 268 LINE",
"111 268 LINE"
);
}
);
width = 730;
},
{
layerId = "D465923C-ABAE-4975-85A4-08C1BC9DA335";
paths = (
{
closed = 1;
nodes = (
"590 0 LINE",
"590 179 LINE",
"686 179 LINE",
"686 333 LINE",
"590 333 LINE",
"590 720 LINE",
"453 720 LINE",
"6 316 LINE",
"6 179 LINE",
"437 179 LINE",
"437 0 LINE",
"437 0 LINE"
);
},
{
closed = 1;
nodes = (
"437 481 LINE",
"437 333 LINE",
"255 333 LINE",
"255 333 LINE"
);
}
);
width = 730;
}
);
unicode = 0034;
},
{
color = 4;
glyphname = five;
layers = (
{
layerId = "17A5F7C0-AED1-4270-89BA-BFDC1003B8A5";
paths = (
{
closed = 1;
nodes = (
"178 0 LINE",
"663 0 LINE SMOOTH",
"729.667 0 OFFCURVE",
"784 54.333 OFFCURVE",
"784 121 CURVE SMOOTH",
"784 291 LINE SMOOTH",
"784 358.661 OFFCURVE",
"729.667 412 OFFCURVE",
"663 412 CURVE SMOOTH",
"178 412 LINE SMOOTH",
"157.104 412 OFFCURVE",
"139 430.109 OFFCURVE",
"139 452 CURVE SMOOTH",
"139 599 LINE SMOOTH",
"139 619.896 OFFCURVE",
"157.104 638 OFFCURVE",
"178 638 CURVE SMOOTH",
"784 638 LINE",
"784 721 LINE",
"57 721 LINE",
"57 330 LINE",
"663 330 LINE SMOOTH",
"683.896 330 OFFCURVE",
"702 311.896 OFFCURVE",
"702 291 CURVE SMOOTH",
"702 121 LINE SMOOTH",
"702 100.104 OFFCURVE",
"683.896 82 OFFCURVE",
"663 82 CURVE SMOOTH",
"178 82 LINE SMOOTH",
"157.104 82 OFFCURVE",
"139 100.104 OFFCURVE",
"139 121 CURVE SMOOTH",
"139 150 LINE",
"57 150 LINE",
"57 121 LINE SMOOTH",
"57 54.333 OFFCURVE",
"110.339 0 OFFCURVE",
"178 0 CURVE"
);
}
);
width = 830;
},
{
layerId = "D465923C-ABAE-4975-85A4-08C1BC9DA335";
paths = (
{
closed = 1;
nodes = (
"203 0 LINE",
"618 0 LINE SMOOTH",
"698 0 OFFCURVE",
"764 66.333 OFFCURVE",
"764 145 CURVE SMOOTH",
"764 297 LINE SMOOTH",
"764 377 OFFCURVE",
"698 442 OFFCURVE",
"618 442 CURVE SMOOTH",
"243 442 LINE SMOOTH",
"221 442 OFFCURVE",
"210 442 OFFCURVE",
"210 442 CURVE",
"210 442 OFFCURVE",
"210 453 OFFCURVE",
"210 475 CURVE SMOOTH",
"210 534 LINE SMOOTH",
"210 556 OFFCURVE",
"210 567 OFFCURVE",
"210 567 CURVE",
"210 567 OFFCURVE",
"221 567 OFFCURVE",
"243 567 CURVE SMOOTH",
"764 567 LINE",
"764 720 LINE",
"57 720 LINE",
"57 288 LINE",
"578 288 LINE SMOOTH",
"600 288 OFFCURVE",
"611 288 OFFCURVE",
"611 288 CURVE",
"611 288 OFFCURVE",
"611 277 OFFCURVE",
"611 255 CURVE SMOOTH",
"611 186 LINE SMOOTH",
"611 164 OFFCURVE",
"611 153 OFFCURVE",
"611 153 CURVE",
"611 153 OFFCURVE",
"600 153 OFFCURVE",
"578 153 CURVE SMOOTH",
"243 153 LINE SMOOTH",
"221 153 OFFCURVE",
"210 153 OFFCURVE",
"210 153 CURVE",
"210 153 OFFCURVE",
"210 164 OFFCURVE",
"210 186 CURVE SMOOTH",
"210 201 LINE",
"57 201 LINE",
"57 145 LINE SMOOTH",
"57 66.333 OFFCURVE",
"123 0 OFFCURVE",
"203 0 CURVE"
);
}
);
width = 830;
}
);
unicode = 0035;
},
{
color = 4;
glyphname = six;
layers = (
{
layerId = "17A5F7C0-AED1-4270-89BA-BFDC1003B8A5";
paths = (
{
closed = 1;
nodes = (
"178 0 LINE",
"663 0 LINE SMOOTH",
"729.667 0 OFFCURVE",
"784 54.333 OFFCURVE",
"784 121 CURVE SMOOTH",
"784 294 LINE SMOOTH",
"784 361.661 OFFCURVE",
"729.667 415 OFFCURVE",
"663 415 CURVE SMOOTH",
"178 415 LINE SMOOTH",
"157.104 415 OFFCURVE",
"139 433.109 OFFCURVE",
"139 455 CURVE SMOOTH",
"139 599 LINE SMOOTH",
"139 619.896 OFFCURVE",
"157.104 638 OFFCURVE",
"178 638 CURVE SMOOTH",
"658 638 LINE",
"658 721 LINE",
"178 721 LINE SMOOTH",
"110.339 721 OFFCURVE",
"57 666.661 OFFCURVE",
"57 599 CURVE SMOOTH",
"57 121 LINE SMOOTH",
"57 54.333 OFFCURVE",
"110.339 0 OFFCURVE",
"178 0 CURVE"
);
},
{
closed = 1;
nodes = (
"157.104 82 OFFCURVE",
"139 100.104 OFFCURVE",
"139 121 CURVE SMOOTH",
"139 333 LINE",
"663 333 LINE SMOOTH",
"683.896 333 OFFCURVE",
"702 314.896 OFFCURVE",
"702 294 CURVE SMOOTH",
"702 121 LINE SMOOTH",
"702 100.104 OFFCURVE",
"683.896 82 OFFCURVE",
"663 82 CURVE SMOOTH",
"178 82 LINE",
"178 82 LINE"
);
}
);
width = 820;
},
{
layerId = "D465923C-ABAE-4975-85A4-08C1BC9DA335";
paths = (
{
closed = 1;
nodes = (
"203 0 LINE",
"618 0 LINE SMOOTH",
"698 0 OFFCURVE",
"764 66.333 OFFCURVE",
"764 145 CURVE SMOOTH",
"764 297 LINE SMOOTH",
"764 377 OFFCURVE",
"698 442 OFFCURVE",
"618 442 CURVE SMOOTH",
"243 442 LINE SMOOTH",
"221 442 OFFCURVE",
"210 442 OFFCURVE",
"210 442 CURVE",
"210 442 OFFCURVE",
"210 453 OFFCURVE",
"210 475 CURVE SMOOTH",
"210 534 LINE SMOOTH",
"210 556 OFFCURVE",
"210 567 OFFCURVE",
"210 567 CURVE",
"210 567 OFFCURVE",
"221 567 OFFCURVE",
"243 567 CURVE SMOOTH",
"655 567 LINE",
"655 720 LINE",
"203 720 LINE SMOOTH",
"123 720 OFFCURVE",
"57 655 OFFCURVE",
"57 575 CURVE SMOOTH",
"57 145 LINE SMOOTH",
"57 66.333 OFFCURVE",
"123 0 OFFCURVE",
"203 0 CURVE"
);
},
{
closed = 1;
nodes = (
"221 153 OFFCURVE",
"210 153 OFFCURVE",
"210 153 CURVE",
"210 153 OFFCURVE",
"210 164 OFFCURVE",
"210 186 CURVE SMOOTH",
"210 288 LINE",
"578 288 LINE SMOOTH",
"600 288 OFFCURVE",
"611 288 OFFCURVE",
"611 288 CURVE",
"611 288 OFFCURVE",
"611 277 OFFCURVE",
"611 255 CURVE SMOOTH",
"611 186 LINE SMOOTH",
"611 164 OFFCURVE",
"611 153 OFFCURVE",
"611 153 CURVE",
"611 153 OFFCURVE",
"600 153 OFFCURVE",
"578 153 CURVE SMOOTH",
"243 153 LINE",
"243 153 LINE"
);
}
);
width = 820;
}
);
unicode = 0036;
},
{
color = 4;
glyphname = seven;
layers = (
{
layerId = "17A5F7C0-AED1-4270-89BA-BFDC1003B8A5";
paths = (
{
closed = 1;
nodes = (
"604 0 LINE",
"604 599 LINE SMOOTH",
"604 667 OFFCURVE",
"549.667 721 OFFCURVE",
"483 721 CURVE SMOOTH",
"3 721 LINE",
"3 638 LINE",
"483 638 LINE SMOOTH",
"504.333 638 OFFCURVE",
"522 620.333 OFFCURVE",
"522 599 CURVE SMOOTH",
"522 0 LINE",
"522 0 LINE"
);
}
);
width = 660;
},
{
layerId = "D465923C-ABAE-4975-85A4-08C1BC9DA335";
paths = (
{
closed = 1;
nodes = (
"601 0 LINE",
"601 576 LINE SMOOTH",
"601 656 OFFCURVE",
"536 721 OFFCURVE",
"456 721 CURVE SMOOTH",
"3 721 LINE",
"3 568 LINE",
"415 568 LINE SMOOTH",
"437 568 OFFCURVE",
"448 568 OFFCURVE",
"448 568 CURVE",
"448 568 OFFCURVE",
"448 557 OFFCURVE",
"448 535 CURVE SMOOTH",
"448 0 LINE",
"448 0 LINE"
);
}
);
width = 660;
}
);
unicode = 0037;
},
{
color = 4;
glyphname = eight;
layers = (
{
layerId = "17A5F7C0-AED1-4270-89BA-BFDC1003B8A5";
paths = (
{
closed = 1;
nodes = (
"178 0 LINE",
"663 0 LINE SMOOTH",
"729.667 0 OFFCURVE",
"784 54.333 OFFCURVE",
"784 121 CURVE SMOOTH",
"784 291 LINE SMOOTH",
"784 317.865 OFFCURVE",
"772.905 346.124 OFFCURVE",
"754 371 CURVE",
"772.905 396.871 OFFCURVE",
"784 425.135 OFFCURVE",
"784 452 CURVE SMOOTH",
"784 619 LINE",
"769.075 670.741 OFFCURVE",
"718.721 721 OFFCURVE",
"663 721 CURVE SMOOTH",
"178 721 LINE SMOOTH",
"110.339 721 OFFCURVE",
"57 666.661 OFFCURVE",
"57 599 CURVE SMOOTH",
"57 452 LINE SMOOTH",
"57 425.135 OFFCURVE",
"68.095 396.871 OFFCURVE",
"87 371 CURVE",
"68.095 346.124 OFFCURVE",
"57 317.865 OFFCURVE",
"57 291 CURVE SMOOTH",
"57 121 LINE SMOOTH",
"57 54.333 OFFCURVE",
"110.339 0 OFFCURVE",
"178 0 CURVE"
);
},
{
closed = 1;
nodes = (
"157.104 82 OFFCURVE",
"139 100.104 OFFCURVE",
"139 121 CURVE SMOOTH",
"139 291 LINE SMOOTH",
"139 311.896 OFFCURVE",
"157.104 330 OFFCURVE",
"178 330 CURVE SMOOTH",
"663 330 LINE SMOOTH",
"683.896 330 OFFCURVE",
"702 311.896 OFFCURVE",
"702 291 CURVE SMOOTH",
"702 121 LINE SMOOTH",
"702 100.104 OFFCURVE",
"683.896 82 OFFCURVE",
"663 82 CURVE SMOOTH",
"178 82 LINE",
"178 82 LINE"
);
},
{
closed = 1;
nodes = (
"157.104 401 OFFCURVE",
"139 419.104 OFFCURVE",
"139 440 CURVE SMOOTH",
"139 598 LINE SMOOTH",
"139 618.896 OFFCURVE",
"157.104 637 OFFCURVE",
"178 637 CURVE SMOOTH",
"663 637 LINE SMOOTH",
"683.896 637 OFFCURVE",
"702 618.896 OFFCURVE",
"702 598 CURVE SMOOTH",
"702 440 LINE SMOOTH",
"702 419.104 OFFCURVE",
"683.896 401 OFFCURVE",
"663 401 CURVE SMOOTH",
"178 401 LINE",
"178 401 LINE"
);
}
);
width = 834;
},
{
layerId = "D465923C-ABAE-4975-85A4-08C1BC9DA335";
paths = (
{
closed = 1;
nodes = (
"203 0 LINE",
"618 0 LINE SMOOTH",
"698 0 OFFCURVE",
"764 66.333 OFFCURVE",
"764 145 CURVE SMOOTH",
"764 297 LINE SMOOTH",
"764 321 OFFCURVE",
"759 343.667 OFFCURVE",
"747 365 CURVE",
"757.667 386.333 OFFCURVE",
"764 412.667 OFFCURVE",
"764 434 CURVE SMOOTH",
"764 601 LINE",
"752 669 OFFCURVE",
"690 720 OFFCURVE",
"618 720 CURVE SMOOTH",
"203 720 LINE SMOOTH",
"123 720 OFFCURVE",
"57 655 OFFCURVE",
"57 575 CURVE SMOOTH",
"57 434 LINE SMOOTH",
"57 410 OFFCURVE",
"64.667 386.333 OFFCURVE",
"74 365 CURVE",
"64.667 343.667 OFFCURVE",
"57 319.667 OFFCURVE",
"57 297 CURVE SMOOTH",
"57 145 LINE SMOOTH",
"57 66.333 OFFCURVE",
"123 0 OFFCURVE",
"203 0 CURVE"
);
},
{
closed = 1;
nodes = (
"221 153 OFFCURVE",
"210 153 OFFCURVE",
"210 153 CURVE",
"210 153 OFFCURVE",
"210 164 OFFCURVE",
"210 186 CURVE SMOOTH",
"210 255 LINE SMOOTH",
"210 277 OFFCURVE",
"210 288 OFFCURVE",
"210 288 CURVE",
"210 288 OFFCURVE",
"221 288 OFFCURVE",
"243 288 CURVE SMOOTH",
"578 288 LINE SMOOTH",
"600 288 OFFCURVE",
"611 288 OFFCURVE",
"611 288 CURVE",
"611 288 OFFCURVE",
"611 277 OFFCURVE",
"611 255 CURVE SMOOTH",
"611 186 LINE SMOOTH",
"611 164 OFFCURVE",
"611 153 OFFCURVE",
"611 153 CURVE",
"611 153 OFFCURVE",
"600 153 OFFCURVE",
"578 153 CURVE SMOOTH",
"243 153 LINE",
"243 153 LINE"
);
},
{
closed = 1;
nodes = (
"221 432 OFFCURVE",
"210 432 OFFCURVE",
"210 432 CURVE",
"210 432 OFFCURVE",
"210 443 OFFCURVE",
"210 465 CURVE SMOOTH",
"210 533 LINE SMOOTH",
"210 555 OFFCURVE",
"210 566 OFFCURVE",
"210 566 CURVE",
"210 566 OFFCURVE",
"221 566 OFFCURVE",
"243 566 CURVE SMOOTH",
"578 566 LINE SMOOTH",
"600 566 OFFCURVE",
"611 566 OFFCURVE",
"611 566 CURVE",
"611 566 OFFCURVE",
"611 555 OFFCURVE",
"611 533 CURVE SMOOTH",
"611 465 LINE SMOOTH",
"611 443 OFFCURVE",
"611 432 OFFCURVE",
"611 432 CURVE",
"611 432 OFFCURVE",
"600 432 OFFCURVE",
"578 432 CURVE SMOOTH",
"243 432 LINE",
"243 432 LINE"
);
}
);
width = 834;
}
);
unicode = 0038;
},
